<svg width="380" height="137" fill="none" xmlns="http://www.w3.org/2000/svg"><path d="M53.627 70.255c.569.652-.783 1.274-4.054 1.866-3.2.592-6.364.889-9.493.889l-1.813-.09c-1.28-.058-1.92-2.665-1.92-7.82 0-1.362.106-4.354.32-8.975l.96-24.44c-5.69 3.733-10.596 7.821-14.72 12.265-4.054 4.443-6.08 8.442-6.08 11.997v3.11c.213 2.666.533 4.947.96 6.843.426 1.837 1.102 3.288 2.026 4.355.57.652-.782 1.274-4.053 1.866-3.2.592-6.364.889-9.493.889l-1.814-.09c-1.28-.058-1.92-2.517-1.92-7.375 0-2.43.107-4.71.32-6.843l.107-2.577c0-1.126.142-5.955.427-14.486.498-10.664.746-18.218.746-22.661 0-3.614-.177-6.221-.533-7.82-.284-1.6-1.138-3.17-2.56-4.71-.427-.534.213-1.274 1.92-2.222 1.778-.948 3.911-1.778 6.4-2.489C11.92.967 14.018.641 15.653.76c1.28.059 1.92 2.844 1.92 8.353 0 2.252-.106 5.066-.32 8.443 0-.119-.07 2.636-.213 8.265 0 2.666-.071 6.902-.213 12.708 2.702-2.37 5.76-4.503 9.173-6.399 3.485-1.896 7.396-3.762 11.733-5.599l.214-6.22c0-4.207-.178-7.14-.534-8.798-.284-1.718-1.173-3.407-2.666-5.066-.427-.533.249-1.273 2.026-2.221 1.778-.948 3.911-1.778 6.4-2.489 2.56-.77 4.658-1.096 6.294-.977 1.28.059 1.92 2.695 1.92 7.91 0 1.184-.142 4.146-.427 8.886-.071 4.384-.178 10.22-.32 17.507-.071 7.287-.107 13.241-.107 17.862 0 4.444.178 8.087.534 10.931.355 2.785 1.209 4.918 2.56 6.399Zm46.207-26.838c2.56.355 3.84 1.984 3.84 4.887 0 1.244-.213 2.637-.64 4.177-1.28 4.443-3.52 7.998-6.72 10.664-3.129 2.666-7.076 4.947-11.84 6.843-4.693 1.836-9.209 2.785-13.546 2.844-.285 0-.498-.03-.64-.089-.356 0-.534-.03-.534-.089a23.047 23.047 0 0 0-2.24-5.599c-.924-1.836-2.275-4.147-4.053-6.931-2.418-3.674-4.053-6.488-4.907-8.443-2.489-5.865-3.733-11.523-3.733-16.974 0-2.488.249-4.858.747-7.109 1.849-8.057 5.546-13.982 11.093-17.774 4.338-2.843 9.138-5.036 14.4-6.576 5.262-1.6 10.524-2.31 15.787-2.133.284 0 .426.237.426.711V2.271c-.142 2.25-.96 5.657-2.453 10.22-1.423 4.561-2.49 7.701-3.2 9.42-.427.888-1.03 1.332-1.813 1.332-.925 0-1.458-.71-1.6-2.132-.356-5.392-2.063-10.25-5.12-14.575-4.694.948-8.285 3.259-10.774 6.932-2.986 4.443-4.409 9.983-4.266 16.618 0 7.11 2.026 14.22 6.08 21.329.782 1.422 1.849 3.17 3.2 5.243 1.493 2.37 2.63 4.325 3.413 5.865a22.15 22.15 0 0 1 2.027 4.71c.782-.415 1.635-1.066 2.56-1.955.924-.889 1.6-1.718 2.026-2.488 1.707-2.548 2.774-5.362 3.2-8.443a7.162 7.162 0 0 0-.533-3.643c-.427-1.185-1.28-1.867-2.56-2.044-.853-.119-.463-.622 1.173-1.511 1.636-.889 2.524-1.363 2.667-1.422.356-.118 1.102-.415 2.24-.889 1.21-.533 2.347-.918 3.413-1.155 1.138-.296 2.098-.385 2.88-.267ZM161.497 1.47c1.066 0 1.6.177 1.6.533 0 3.021-.711 6.843-2.134 11.464-1.35 4.562-2.524 7.91-3.52 10.042-.426.83-.995 1.244-1.706 1.244-.427 0-.818-.178-1.174-.533-.284-.355-.462-.889-.533-1.6-.427-5.628-2.453-10.96-6.08-15.996h-6.827c.071.711.107 1.807.107 3.288 0 2.074-.107 4.71-.32 7.91-.071 1.895-.177 7.109-.32 15.64-.142 8.472-.213 15.019-.213 19.64 0 4.444.177 8.087.533 10.93.356 2.845 1.209 5.007 2.56 6.488.569.652-.782 1.274-4.053 1.867-3.2.533-6.364.8-9.494.8l-1.813-.09c-1.28-.059-1.92-2.636-1.92-7.731 0-1.422.107-4.444.32-9.065l.213-4.088c.071-2.192.25-7.227.534-15.107.356-7.88.533-13.42.533-16.619 0-3.258-.177-5.954-.533-8.086-.284-2.192-.854-4.118-1.707-5.777h-6.72c-2.987 5.806-4.657 11.138-5.013 15.996-.071 1.422-.604 2.133-1.6 2.133-.711 0-1.28-.415-1.707-1.244-1.067-2.43-2.311-5.569-3.733-9.42-1.351-3.91-2.027-6.932-2.027-9.065 0-1.007 1.28-1.777 3.84-2.31 2.56-.533 5.44-.889 8.64-1.067 3.2-.177 4.8-.237 4.8-.177h39.467Zm51.088 20.173c2.418 4.917 3.627 10.042 3.627 15.374 0 .889-.071 2.163-.214 3.821-.71 6.932-2.95 12.59-6.72 16.974-4.266 4.977-10.56 9.065-18.88 12.264-1.777.889-4.017 1.659-6.72 2.31-2.63.711-3.982.89-4.053.534a27.417 27.417 0 0 0-2.56-5.599c-1.067-1.837-2.453-4-4.16-6.487-2.773-4.03-4.729-7.317-5.867-9.865-1.92-4.147-2.88-8.65-2.88-13.508 0-2.073.143-3.94.427-5.598 1.138-7.584 3.698-13.508 7.68-17.774 2.987-3.2 6.756-5.865 11.307-7.998s9.529-3.762 14.933-4.888c.569-.118.996-.178 1.28-.178.64 0 .996.06 1.067.178a27.35 27.35 0 0 0 2.346 5.51c.996 1.718 2.418 3.91 4.267 6.576.356.533 1.103 1.659 2.24 3.377 1.138 1.718 2.098 3.377 2.88 4.977Zm-12.587 34.57c2.063-4.444 3.094-9.213 3.094-14.308 0-6.34-1.743-12.471-5.227-18.396a59.109 59.109 0 0 0-3.52-5.243c-.284-.415-.924-1.363-1.92-2.844a153.314 153.314 0 0 1-2.667-4.266c-.71-1.362-1.28-2.636-1.706-3.821-.924.652-1.707 1.333-2.347 2.044-2.062 2.251-3.662 4.621-4.8 7.11-2.347 5.035-3.52 10.545-3.52 16.529 0 5.865 1.564 11.494 4.693 16.885.57.948 1.885 2.962 3.947 6.043a133.329 133.329 0 0 1 3.413 5.243c1.138 1.837 2.027 3.555 2.667 5.154 3.2-2.429 5.831-5.806 7.893-10.13Zm55.505-12.62c.64.06.25.504-1.173 1.333-1.351.83-2.276 1.363-2.773 1.6-3.414 1.54-6.116 2.31-8.107 2.31-2.347 0-4.196-.444-5.547-1.333-1.35-.947-2.026-2.192-2.026-3.732 0-.652.177-1.481.533-2.488.356-.889.783-1.66 1.28-2.31.569-.653 1.351-1.393 2.347-2.223 2.916-2.251 5.333-4.798 7.253-7.642a34.812 34.812 0 0 0 4.373-9.42c1.067-3.377 1.6-6.784 1.6-10.22 0-1.244-.035-2.163-.106-2.755h-18.56c.071 1.896.036 4.562-.107 7.998a37.53 37.53 0 0 0-.107 3.11l-.106 4.533c0 5.51.036 9.894.106 13.152l.107 13.242v3.021c0 4.858.178 8.798.533 11.82.356 3.021 1.21 5.332 2.56 6.931.64.652-.675 1.274-3.946 1.867-3.271.533-6.471.8-9.6.8l-1.814-.09c-1.28-.059-1.92-2.488-1.92-7.287 0-2.547.107-4.888.32-7.02l.107-2.489c.071-4.502.143-10.25.213-17.24.143-7.05.214-13.241.214-18.573 0-4.088-.284-7.406-.854-9.954-.497-2.607-1.457-4.74-2.88-6.398-.569-.652.783-1.274 4.054-1.866 3.342-.593 6.542-.86 9.6-.8h35.626c1.636 0 2.454.385 2.454 1.155 0 6.873-1.351 12.412-4.054 16.618-2.63 4.207-4.906 7.169-6.826 8.887-1.92 1.718-3.058 2.725-3.414 3.022l-1.706 1.333c-1.564 1.185-2.631 2.28-3.2 3.288a6.407 6.407 0 0 0-.854 3.2c0 1.362.534 2.458 1.6 3.287 1.138.83 2.738 1.274 4.8 1.333Zm67.457 26.66c.569.653-.782 1.275-4.053 1.867-3.2.592-6.364.889-9.494.889l-1.813-.09c-1.28-.058-1.92-2.665-1.92-7.82 0-1.362.107-4.354.32-8.975l.96-24.44c-5.689 3.733-10.596 7.821-14.72 12.265-4.053 4.443-6.08 8.442-6.08 11.997v3.11c.213 2.666.533 4.947.96 6.843.427 1.837 1.103 3.288 2.027 4.355.569.652-.783 1.274-4.054 1.866a52.08 52.08 0 0 1-9.493.889l-1.813-.09c-1.28-.058-1.92-2.517-1.92-7.375 0-2.43.106-4.71.32-6.843l.106-2.577c0-1.126.143-5.955.427-14.486.498-10.664.747-18.218.747-22.661 0-3.614-.178-6.221-.534-7.82-.284-1.6-1.137-3.17-2.56-4.71-.426-.534.214-1.274 1.92-2.222 1.778-.948 3.911-1.778 6.4-2.489 2.56-.77 4.658-1.096 6.294-.977 1.28.059 1.92 2.844 1.92 8.353 0 2.252-.107 5.066-.32 8.443 0-.119-.071 2.636-.214 8.265 0 2.666-.07 6.902-.213 12.708 2.703-2.37 5.76-4.503 9.173-6.399 3.485-1.896 7.396-3.762 11.734-5.599l.213-6.22c0-4.207-.177-7.14-.533-8.798-.284-1.718-1.174-3.407-2.667-5.066-.427-.533.249-1.273 2.027-2.221 1.777-.948 3.911-1.778 6.4-2.489 2.56-.77 4.657-1.096 6.293-.977 1.28.059 1.92 2.695 1.92 7.91 0 1.184-.142 4.146-.427 8.886-.07 4.384-.177 10.22-.32 17.507a1938.55 1938.55 0 0 0-.106 17.862c0 4.444.177 8.087.533 10.931.356 2.785 1.209 4.918 2.56 6.399Zm55.808.09c.569.652-.783 1.274-4.054 1.866-3.2.533-6.364.8-9.493.8l-1.813-.09c-1.28-.058-1.92-2.576-1.92-7.553 0-1.303.07-3.08.213-5.332l.107-3.91.213-4.088c.071-2.192.249-7.228.533-15.108.356-7.88.534-13.419.534-16.618 0-3.2-.178-5.895-.534-8.087-.284-2.192-.817-4.118-1.6-5.777h-18.453a29.186 29.186 0 0 0 3.84 9.51c1.849 2.902 4.267 5.776 7.253 8.62.356.355 1.103 1.066 2.24 2.132 1.138 1.067 2.063 2.133 2.774 3.2.71 1.007 1.066 1.955 1.066 2.843 0 .889-.32 1.6-.96 2.133-.284.237-1.6 1.274-3.946 3.11-2.631 1.896-4.871 3.703-6.72 5.422-1.85 1.658-3.556 3.791-5.12 6.398a30.651 30.651 0 0 0-2.774 6.843c-.64 2.37-.96 4.621-.96 6.754 0 3.258.604 5.569 1.814 6.932.569.652-.854 1.274-4.267 1.866-3.413.533-6.72.8-9.92.8l-1.813-.09c-.711 0-.996-.77-.854-2.31 0-.948.071-1.718.214-2.31.71-4.622 1.777-8.473 3.2-11.553 1.493-3.14 3.769-6.221 6.826-9.243 2.56-2.488 5.191-4.65 7.894-6.487 2.702-1.837 4.16-2.844 4.373-3.022.497-.473-.036-1.658-1.6-3.554a56.287 56.287 0 0 0-5.013-5.332c-3.627-3.437-6.365-6.991-8.214-10.665-1.849-3.673-2.916-7.731-3.2-12.174-.071-1.008 1.529-2.015 4.8-3.022 3.271-1.007 5.938-1.63 8-1.866.569-.06 1.031-.089 1.387-.089h27.413c.64-.06 1.564-.089 2.774-.089.71 0 1.244.03 1.6.089 1.28.06 1.92 2.696 1.92 7.91 0 1.54-.071 3.376-.214 5.51l-.106 2.932c-.071 1.896-.178 7.11-.32 15.64-.143 8.473-.214 15.02-.214 19.64 0 4.444.178 8.087.534 10.931.355 2.844 1.209 5.006 2.56 6.488ZM24.204 130.432c.254.316-.35.617-1.814.904a23.831 23.831 0 0 1-4.248.388l-.812-.043c-.573-.029-.859-1.278-.859-3.746 0-.689.048-2.153.143-4.392.35-9.33.525-15.114.525-17.353 0-1.579-.063-2.9-.19-3.962-.128-1.062-.367-1.981-.717-2.756H8.93l.048 1.378c0 1.608-.064 2.957-.191 4.048-.032 2.124-.08 4.952-.143 8.483a983.852 983.852 0 0 0-.048 8.611c0 2.153.08 3.919.239 5.297.159 1.378.54 2.425 1.145 3.143.255.316-.35.617-1.814.904a23.831 23.831 0 0 1-4.248.388l-.811-.043c-.573-.029-.86-1.278-.86-3.746 0-.689.048-2.153.144-4.392l.095-1.981c.032-1.062.112-3.502.239-7.32.159-3.818.238-6.502.238-8.052 0-1.952-.127-3.56-.381-4.823-.223-1.263-.669-2.31-1.337-3.143-.255-.316.35-.603 1.814-.862a22.07 22.07 0 0 1 4.248-.43l.812.043h12.506c.223-.029.525-.043.907-.043s.652.014.811.043c.573.029.86 1.306.86 3.832 0 .747-.032 1.637-.096 2.67l-.048 1.421c-.032.918-.08 3.445-.143 7.578a656.754 656.754 0 0 0-.095 9.516c0 2.153.08 3.919.238 5.297.16 1.378.541 2.425 1.146 3.143Zm20.93-12.53c1.177.201 1.766 1.004 1.766 2.411 0 .775-.143 1.522-.43 2.239-.604 1.866-1.654 3.387-3.15 4.564-1.528 1.206-3.31 2.24-5.346 3.101-2.005.861-3.914 1.306-5.728 1.335a.721.721 0 0 1-.287-.044c-.159 0-.238-.014-.238-.043a12.218 12.218 0 0 0-1.05-2.755c-.478-.919-1.098-1.967-1.862-3.144-1.178-1.808-1.973-3.229-2.387-4.263-1.114-2.784-1.67-5.497-1.67-8.138 0-1.263.111-2.44.334-3.531.35-1.693.97-3.286 1.861-4.779a12.929 12.929 0 0 1 3.39-3.832c1.909-1.378 4.04-2.44 6.396-3.187 2.386-.775 4.757-1.12 7.112-1.033.127 0 .19.129.19.387v.172c-.031 1.091-.381 2.771-1.05 5.038-.667 2.24-1.177 3.732-1.527 4.479-.19.43-.445.645-.764.645a.574.574 0 0 1-.477-.258c-.127-.201-.207-.459-.239-.775-.19-2.756-.97-5.124-2.338-7.105-.828.23-1.671.632-2.53 1.206-.86.545-1.607 1.277-2.244 2.196a13.028 13.028 0 0 0-1.718 3.832 17.073 17.073 0 0 0-.525 4.22c0 .459.016.789.047.99l.287-.172c1.082-.574 2.355-.99 3.819-1.249a25.254 25.254 0 0 1 4.391-.387c1.241 0 2.291.086 3.15.258.892.144 1.337.33 1.337.56 0 1.78-1.034 3.56-3.103 5.339-.445.402-.78.603-1.002.603-.318 0-.525-.33-.62-.99-.287-2.067-1.815-3.1-4.583-3.1-1.146 0-2.339.157-3.58.473.318 2.584 1.162 5.253 2.53 8.009l1.527 2.498c1.4 2.067 2.291 3.76 2.673 5.081.414-.201.971-.617 1.671-1.249.891-.919 1.48-2.225 1.766-3.918.032-.173.048-.46.048-.862 0-1.377-.462-2.138-1.384-2.282-.287-.057-.144-.272.43-.646.604-.402 1.05-.66 1.336-.775.159-.057.493-.201 1.002-.43a7.788 7.788 0 0 1 1.528-.56c.477-.144.89-.187 1.24-.129Zm25.296 12.53c.254.316-.35.617-1.814.904a23.831 23.831 0 0 1-4.248.388l-.812-.043c-.573-.029-.859-1.235-.859-3.617 0-.689.048-2.196.143-4.521.16-3.79.255-6.545.287-8.268h-8.592a437.247 437.247 0 0 0-.048 6.717c0 2.153.08 3.919.238 5.297.16 1.378.541 2.425 1.146 3.143.255.316-.35.617-1.814.904a23.831 23.831 0 0 1-4.248.388l-.811-.043c-.573-.029-.86-1.278-.86-3.746 0-.689.048-2.153.144-4.392l.095-1.981c.032-1.062.111-3.502.239-7.32.159-3.818.238-6.502.238-8.052 0-2.038-.08-3.459-.238-4.263-.128-.833-.525-1.651-1.194-2.455-.19-.258.112-.617.907-1.076.796-.46 1.75-.861 2.864-1.206 1.146-.373 2.085-.53 2.817-.473.572.028.859 1.306.859 3.832 0 .603-.064 2.052-.191 4.349l-.096 7.837h8.64l.143-7.191c0-1.751-.08-3.014-.238-3.789-.128-.776-.51-1.536-1.146-2.283-.191-.258.095-.617.86-1.076.795-.46 1.75-.861 2.863-1.206 1.146-.373 2.085-.53 2.816-.473.573.028.86 1.377.86 4.047 0 1.12-.048 2.498-.144 4.134l-.238 16.449c0 2.353.08 4.262.238 5.726.16 1.464.557 2.584 1.194 3.359Zm19.736-14.64c1.559 1.894 2.339 3.76 2.339 5.598 0 .861-.223 1.765-.669 2.712-.954 1.952-2.546 3.531-4.773 4.737-2.196 1.177-4.79 2.167-7.78 2.971-.383.086-.685.129-.908.129-.223 0-.445-.057-.668-.172-1.591-.833-3.119-1.981-4.582-3.445-1.433-1.464-2.148-2.885-2.148-4.263 0-.775.238-1.449.715-2.024a3.272 3.272 0 0 1 1.242-.947c.54-.23 1.288-.517 2.243-.861.064 0 .51-.101 1.336-.301.86-.23 1.194-.201 1.003.086a2.982 2.982 0 0 0-.62 1.851c0 .919.334 1.981 1.002 3.187a9.094 9.094 0 0 0 1.957 2.368c.796.66 1.56 1.134 2.291 1.421 1.019-.402 1.973-1.019 2.864-1.852.891-.832 1.337-1.808 1.337-2.928 0-1.665-.557-3.244-1.67-4.736-1.115-1.522-2.61-3.172-4.488-4.952-.477-.431-.716-1.034-.716-1.809 0-.287.032-.689.096-1.205.382-2.297 1.225-4.55 2.53-6.761 1.304-2.21 2.848-3.932 4.63-5.167h-8.354c-1.432 2.268-2.227 4.708-2.386 7.32-.032.345-.128.603-.287.775-.127.173-.286.259-.477.259-.319 0-.573-.215-.764-.646-.064-.144-.51-1.105-1.337-2.885-.795-1.808-1.193-3.43-1.193-4.866 0-.057.048-.129.143-.215.191-.172.478-.388.86-.646.413-.258.7-.43.859-.517.795-.373 1.48-.645 2.052-.818a5.16 5.16 0 0 1 1.719-.301h13.89c.446 0 .669.1.669.301 0 .23-.366.632-1.098 1.206l-.096.13c-1.463 1.521-2.609 2.999-3.436 4.434-.828 1.407-1.448 3.072-1.862 4.995-.032.201-.111.531-.239.99a5.287 5.287 0 0 0-.143 1.12c0 .574.16 1.019.478 1.335.031.029.636.617 1.813 1.765 1.273 1.148 2.148 2.024 2.626 2.627Zm23.209 2.11c1.178.201 1.766 1.004 1.766 2.411 0 .775-.143 1.522-.429 2.239-.605 1.866-1.655 3.387-3.151 4.564-1.527 1.206-3.309 2.24-5.346 3.101-2.005.861-3.914 1.306-5.728 1.335a.718.718 0 0 1-.286-.044c-.159 0-.239-.014-.239-.043a12.218 12.218 0 0 0-1.05-2.755 38.53 38.53 0 0 0-1.862-3.144c-1.177-1.808-1.973-3.229-2.386-4.263-1.114-2.784-1.67-5.497-1.67-8.138 0-1.263.11-2.44.333-3.531.35-1.693.97-3.286 1.862-4.779a12.926 12.926 0 0 1 3.389-3.832c1.909-1.378 4.041-2.44 6.396-3.187 2.387-.775 4.758-1.12 7.112-1.033.128 0 .191.129.191.387v.172c-.032 1.091-.382 2.771-1.05 5.038-.668 2.24-1.177 3.732-1.527 4.479-.191.43-.446.645-.764.645a.573.573 0 0 1-.477-.258c-.128-.201-.207-.459-.239-.775-.191-2.756-.971-5.124-2.339-7.105-.827.23-1.671.632-2.53 1.206-.859.545-1.607 1.277-2.243 2.196a13.026 13.026 0 0 0-1.719 3.832 17.077 17.077 0 0 0-.525 4.22c0 .459.016.789.048.99l.286-.172c1.082-.574 2.355-.99 3.819-1.249a25.26 25.26 0 0 1 4.392-.387c1.241 0 2.291.086 3.15.258.891.144 1.336.33 1.336.56 0 1.78-1.034 3.56-3.102 5.339-.446.402-.78.603-1.003.603-.318 0-.525-.33-.62-.99-.287-2.067-1.814-3.1-4.583-3.1a14.5 14.5 0 0 0-3.58.473c.319 2.584 1.162 5.253 2.53 8.009l1.528 2.498c1.4 2.067 2.291 3.76 2.673 5.081.414-.201.97-.617 1.671-1.249.891-.919 1.479-2.225 1.766-3.918.031-.173.047-.46.047-.862 0-1.377-.461-2.138-1.384-2.282-.286-.057-.143-.272.43-.646.604-.402 1.05-.66 1.336-.775.159-.057.493-.201 1.003-.43a7.794 7.794 0 0 1 1.527-.56c.477-.144.891-.187 1.241-.129Zm25.296 12.53c.255.316-.35.617-1.813.904a23.84 23.84 0 0 1-4.249.388l-.811-.043c-.573-.029-.859-1.235-.859-3.617 0-.689.047-2.196.143-4.521.159-3.79.254-6.545.286-8.268h-8.592a436.496 436.496 0 0 0-.047 6.717c0 2.153.079 3.919.238 5.297.159 1.378.541 2.425 1.146 3.143.254.316-.35.617-1.814.904a23.83 23.83 0 0 1-4.248.388l-.812-.043c-.573-.029-.859-1.278-.859-3.746 0-.689.048-2.153.143-4.392l.096-1.981c.031-1.062.111-3.502.238-7.32.159-3.818.239-6.502.239-8.052 0-2.038-.08-3.459-.239-4.263-.127-.833-.525-1.651-1.193-2.455-.191-.258.111-.617.907-1.076.795-.46 1.75-.861 2.864-1.206 1.146-.373 2.084-.53 2.816-.473.573.028.859 1.306.859 3.832 0 .603-.063 2.052-.191 4.349l-.095 7.837h8.64l.143-7.191c0-1.751-.08-3.014-.239-3.789-.127-.776-.509-1.536-1.145-2.283-.191-.258.095-.617.859-1.076.795-.46 1.75-.861 2.864-1.206 1.145-.373 2.084-.53 2.816-.473.573.028.859 1.377.859 4.047 0 1.12-.047 2.498-.143 4.134l-.239 16.449c0 2.353.08 4.262.239 5.726.159 1.464.557 2.584 1.193 3.359Zm20.69-13.133c1.146.172 1.719.962 1.719 2.368 0 .603-.096 1.278-.287 2.024-.572 2.153-1.575 3.875-3.007 5.167-1.4 1.292-3.166 2.397-5.298 3.316-2.1.89-4.121 1.349-6.062 1.378a.723.723 0 0 1-.287-.044c-.159 0-.238-.014-.238-.043a11.707 11.707 0 0 0-1.003-2.712c-.413-.89-1.018-2.01-1.814-3.359-1.082-1.78-1.813-3.143-2.195-4.091-1.114-2.841-1.671-5.583-1.671-8.224 0-1.206.111-2.354.334-3.445.828-3.904 2.482-6.774 4.964-8.611a23.134 23.134 0 0 1 6.444-3.187c2.355-.775 4.71-1.12 7.065-1.033.127 0 .191.115.191.344V97.362c-.064 1.091-.43 2.742-1.098 4.952-.636 2.211-1.114 3.732-1.432 4.565-.191.43-.461.645-.811.645-.414 0-.653-.344-.716-1.033-.16-2.612-.923-4.966-2.292-7.062-2.1.46-3.707 1.579-4.821 3.359-1.336 2.153-1.973 4.837-1.909 8.052 0 3.445.907 6.89 2.721 10.334.35.689.827 1.536 1.432 2.541.668 1.148 1.177 2.095 1.527 2.842.382.717.684 1.478.907 2.282.35-.201.732-.517 1.146-.947.413-.431.716-.833.907-1.206a10.134 10.134 0 0 0 1.432-4.091 3.734 3.734 0 0 0-.239-1.765c-.191-.574-.573-.904-1.146-.991-.381-.057-.206-.301.525-.732.732-.43 1.13-.66 1.194-.689.159-.057.493-.2 1.002-.43a7.843 7.843 0 0 1 1.528-.56c.509-.143.938-.186 1.288-.129Zm9.265 5.598c0 1.779.096 3.301.287 4.564.191 1.234.557 2.196 1.098 2.885.254.316-.35.617-1.814.904a21.577 21.577 0 0 1-4.248.431l-.812-.043c-.573-.029-.859-1.249-.859-3.66 0-.689.048-2.196.143-4.522 0-.488.064-2.856.191-7.104.223-7.234.334-11.052.334-11.454 0-1.636-.079-2.77-.238-3.402-.128-.631-.494-1.32-1.098-2.067-.223-.258.047-.617.811-1.076.796-.46 1.766-.861 2.912-1.206 1.145-.373 2.084-.53 2.816-.473.541.028.812 1.349.812 3.961 0 1.148-.048 2.541-.144 4.177a2414.76 2414.76 0 0 1-.143 7.793 900.901 900.901 0 0 0-.048 8.698v1.594Zm7.972-9.603c2.132 2.44 3.93 4.967 5.394 7.579 1.495 2.583 2.641 4.851 3.437 6.803.509 1.206.907 1.967 1.193 2.282.318.287.461.46.43.517-.128.316-.955.603-2.483.861-1.527.259-2.8.388-3.818.388-.414 0-.684-.086-.812-.259-.127-.172-.286-.574-.477-1.205a24.688 24.688 0 0 0-.334-.948c-.127-.43-.271-.846-.43-1.248-.604-1.608-1.623-3.56-3.055-5.856-1.432-2.326-2.927-4.392-4.487-6.201-.127-.172-.382-.459-.763-.861-.382-.431-.669-.847-.86-1.249a3.6 3.6 0 0 1-.238-1.335c0-1.148.509-2.885 1.527-5.21.891-2.009 2.276-3.775 4.153-5.296 1.909-1.55 3.835-2.742 5.776-3.574.986-.43 1.973-.76 2.959-.99.987-.259 1.798-.388 2.435-.388.7 0 1.05.158 1.05.474 0 1.062-.35 2.784-1.05 5.167-.669 2.354-1.178 3.861-1.528 4.521-.191.459-.445.689-.764.689-.191 0-.366-.086-.525-.258-.127-.201-.207-.46-.238-.775-.128-1.493-.35-2.727-.669-3.703-.318-.976-.636-1.708-.954-2.196-.287-.517-.43-.732-.43-.646-.827.373-1.718 1.062-2.673 2.067a9.946 9.946 0 0 0-2.148 3.444c-.382 1.034-.652 1.837-.811 2.412a6.233 6.233 0 0 0-.239 1.679c0 1.148.477 2.253 1.432 3.315Zm32.754-6.545a17.823 17.823 0 0 1 1.623 7.45c0 .43-.032 1.047-.096 1.851-.318 3.359-1.32 6.1-3.007 8.225-1.909 2.411-4.726 4.392-8.449 5.942-.795.43-1.798.803-3.007 1.119-1.177.345-1.782.431-1.814.259a13.817 13.817 0 0 0-1.145-2.713 51.66 51.66 0 0 0-1.862-3.143c-1.241-1.952-2.116-3.546-2.625-4.78-.86-2.009-1.289-4.191-1.289-6.545 0-1.005.063-1.909.191-2.713.509-3.674 1.654-6.545 3.437-8.612 1.336-1.55 3.023-2.842 5.059-3.875 2.037-1.033 4.264-1.823 6.683-2.368.255-.058.445-.086.573-.086.286 0 .445.028.477.086.255.918.605 1.808 1.05 2.67.446.832 1.082 1.894 1.91 3.186l1.002 1.636c.509.833.939 1.636 1.289 2.411Zm-5.633 16.75c.923-2.152 1.384-4.463 1.384-6.932 0-3.072-.779-6.043-2.338-8.913a29.146 29.146 0 0 0-1.576-2.541c-.127-.201-.413-.66-.859-1.378a74.91 74.91 0 0 1-1.193-2.067 15.776 15.776 0 0 1-.764-1.851 6.433 6.433 0 0 0-1.05.99c-.923 1.091-1.639 2.239-2.148 3.445-1.05 2.44-1.575 5.11-1.575 8.009 0 2.842.7 5.569 2.1 8.181.255.46.843 1.436 1.766 2.928a67.41 67.41 0 0 1 1.528 2.541c.509.89.907 1.722 1.193 2.497 1.432-1.177 2.609-2.813 3.532-4.909Zm26.652-26.567c.509 0 .891.029 1.146.086.254.029.382.115.382.258 0 1.034-.335 2.713-1.003 5.038-.668 2.326-1.177 3.89-1.527 4.694-.191.43-.462.646-.812.646-.413 0-.652-.345-.716-1.034-.159-2.468-.939-4.88-2.339-7.234h-6.348c.032.345.047.876.047 1.593 0 1.005-.047 2.283-.143 3.833-.032 2.124-.079 4.952-.143 8.482a978.716 978.716 0 0 0-.048 8.612c0 2.153.08 3.919.239 5.297.159 1.377.541 2.425 1.146 3.143.254.316-.35.617-1.814.904-1.464.258-2.88.388-4.249.388l-.811-.043c-.318-.029-.541-.359-.668-.991-.128-.631-.191-1.507-.191-2.626 0-.689.048-2.196.143-4.522.35-9.329.525-15.113.525-17.352 0-1.981-.127-3.574-.382-4.78-.223-1.234-.652-2.268-1.289-3.1-.254-.316.366-.618 1.862-.904 1.528-.288 2.975-.417 4.344-.388h12.649Zm23.667 9.817a17.823 17.823 0 0 1 1.623 7.45c0 .43-.032 1.047-.095 1.851-.319 3.359-1.321 6.1-3.008 8.225-1.909 2.411-4.725 4.392-8.448 5.942-.796.43-1.798.803-3.008 1.119-1.177.345-1.782.431-1.814.259a13.817 13.817 0 0 0-1.145-2.713 51.145 51.145 0 0 0-1.862-3.143c-1.241-1.952-2.116-3.546-2.625-4.78-.859-2.009-1.289-4.191-1.289-6.545 0-1.005.064-1.909.191-2.713.509-3.674 1.655-6.545 3.437-8.612 1.336-1.55 3.023-2.842 5.06-3.875 2.036-1.033 4.264-1.823 6.682-2.368.255-.058.446-.086.573-.086.286 0 .446.028.477.086.255.918.605 1.808 1.051 2.67.445.832 1.081 1.894 1.909 3.186l1.002 1.636c.509.833.939 1.636 1.289 2.411Zm-5.632 16.75c.922-2.152 1.384-4.463 1.384-6.932 0-3.072-.78-6.043-2.339-8.913a28.905 28.905 0 0 0-1.575-2.541c-.128-.201-.414-.66-.86-1.378a74.91 74.91 0 0 1-1.193-2.067 15.776 15.776 0 0 1-.764-1.851 6.515 6.515 0 0 0-1.05.99c-.923 1.091-1.639 2.239-2.148 3.445-1.05 2.44-1.575 5.11-1.575 8.009 0 2.842.7 5.569 2.1 8.181.255.46.844 1.436 1.766 2.928.51.804 1.019 1.651 1.528 2.541.509.89.907 1.722 1.193 2.497 1.432-1.177 2.61-2.813 3.533-4.909Zm38.183-.602c0 1.779.095 3.301.286 4.564.191 1.234.557 2.196 1.098 2.885.255.316-.35.617-1.814.904a21.577 21.577 0 0 1-4.248.431l-.811-.043c-.573-.029-.86-1.249-.86-3.66 0-.689.048-2.196.144-4.522 0-.488.063-2.856.191-7.104.222-7.234.334-11.052.334-11.454 0-1.636-.08-2.77-.239-3.402-.127-.631-.493-1.32-1.098-2.067-.223-.258.048-.617.812-1.076.795-.46 1.766-.861 2.911-1.206 1.146-.373 2.085-.53 2.817-.473.541.028.811 1.349.811 3.961a73.85 73.85 0 0 1-.143 4.177c-.032 1.923-.08 4.521-.143 7.793a900.901 900.901 0 0 0-.048 8.698v1.594Zm7.971-9.603c2.133 2.44 3.93 4.967 5.394 7.579 1.496 2.583 2.642 4.851 3.437 6.803.509 1.206.907 1.967 1.193 2.282.319.287.462.46.43.517-.127.316-.955.603-2.482.861-1.528.259-2.8.388-3.819.388-.413 0-.684-.086-.811-.259-.127-.172-.287-.574-.478-1.205a23.037 23.037 0 0 0-.334-.948c-.127-.43-.27-.846-.429-1.248-.605-1.608-1.623-3.56-3.055-5.856-1.432-2.326-2.928-4.392-4.487-6.201-.127-.172-.382-.459-.764-.861-.382-.431-.668-.847-.859-1.249a3.6 3.6 0 0 1-.239-1.335c0-1.148.509-2.885 1.528-5.21.891-2.009 2.275-3.775 4.153-5.296 1.909-1.55 3.834-2.742 5.775-3.574.987-.43 1.973-.76 2.96-.99.986-.259 1.798-.388 2.434-.388.7 0 1.05.158 1.05.474 0 1.062-.35 2.784-1.05 5.167-.668 2.354-1.177 3.861-1.527 4.521-.191.459-.446.689-.764.689-.191 0-.366-.086-.525-.258-.127-.201-.207-.46-.239-.775-.127-1.493-.35-2.727-.668-3.703-.318-.976-.637-1.708-.955-2.196-.286-.517-.429-.732-.429-.646-.828.373-1.719 1.062-2.673 2.067a9.946 9.946 0 0 0-2.148 3.444c-.382 1.034-.653 1.837-.812 2.412a6.273 6.273 0 0 0-.239 1.679c0 1.148.478 2.253 1.432 3.315Zm28.172 4.091c.286.029.111.244-.525.646-.605.402-1.019.66-1.241.775-1.528.746-2.737 1.12-3.628 1.12-1.05 0-1.878-.216-2.482-.646-.605-.46-.907-1.062-.907-1.809 0-.316.08-.717.239-1.205.159-.431.35-.804.572-1.12a9.772 9.772 0 0 1 1.051-1.077 15.503 15.503 0 0 0 3.245-3.703 17.5 17.5 0 0 0 1.957-4.564c.478-1.636.716-3.287.716-4.952 0-.603-.015-1.047-.047-1.334h-8.306c.032.918.016 2.21-.048 3.875-.031.402-.047.904-.047 1.507l-.048 2.196c0 2.67.016 4.794.048 6.373l.047 6.415v1.465c0 2.353.08 4.262.239 5.726.159 1.464.541 2.584 1.146 3.359.286.316-.303.617-1.766.904a24.634 24.634 0 0 1-4.296.388l-.812-.043c-.573-.029-.859-1.206-.859-3.531 0-1.235.048-2.368.143-3.402l.048-1.205c.032-2.182.063-4.967.095-8.354.064-3.416.096-6.416.096-8.999 0-1.981-.128-3.589-.382-4.823-.223-1.263-.653-2.297-1.289-3.1-.255-.316.35-.617 1.814-.904a20.515 20.515 0 0 1 4.296-.388H327.744c.732 0 1.098.187 1.098.56 0 3.33-.605 6.014-1.814 8.052-1.178 2.038-2.196 3.473-3.055 4.306a99.443 99.443 0 0 1-1.528 1.464l-.763.646c-.7.574-1.178 1.105-1.432 1.593a3.3 3.3 0 0 0-.382 1.55c0 .66.239 1.191.716 1.593.509.402 1.225.617 2.148.646Zm30.235 7.406c.445 2.325.891 3.775 1.336 4.349.478.574.716.904.716.991.032.229-.318.445-1.05.645-.7.173-1.479.316-2.339.431-1.209.144-2.068.215-2.577.215-.955 0-1.496-.158-1.623-.473-.096-.23-.318-1.249-.668-3.057-.16-.689-.382-1.637-.669-2.842-.254-1.235-.429-1.981-.525-2.239-1.241 1.693-2.975 3.215-5.203 4.564-2.195 1.32-4.296 2.368-6.3 3.143-1.592.603-2.833.89-3.724.861-.35-.028-.604-.473-.763-1.335-.16-.861-.239-1.923-.239-3.186 0-1.808.111-3.315.334-4.521.318-1.809.7-3.517 1.146-5.124.445-1.608 1.352-3.56 2.72-5.856 1.401-2.325 3.326-4.435 5.776-6.33-.573-1.234-1.002-2.268-1.289-3.1-.254-.861-.366-1.608-.334-2.24.032-.63.414-1.19 1.146-1.679a9.286 9.286 0 0 1 2.291-1.12 16.01 16.01 0 0 1 1.718-.473c.541-.115.86-.115.955 0 .064.086.064.287 0 .603a8.979 8.979 0 0 0-.048.904c0 1.464 1.114 4.493 3.342 9.086 1.241 2.583 2.45 5.813 3.627 9.688 1.21 3.875 1.958 6.574 2.244 8.095Zm-16.468 2.412c1.146-.603 2.371-1.579 3.675-2.928 1.305-1.378 2.355-2.756 3.151-4.134.827-1.407 1.161-2.426 1.002-3.057-.382-1.436-.795-2.699-1.241-3.79a178.699 178.699 0 0 0-1.718-4.133l-.716-1.55a4.69 4.69 0 0 0-.334-.646c-2.483 2.239-4.058 6.487-4.726 12.745l-.095.991c-.223 1.952-.335 3.315-.335 4.09 0 1.694.303 2.541.907 2.541a.75.75 0 0 0 .43-.129Zm43.444 3.143c.255.316-.35.617-1.813.904a23.934 23.934 0 0 1-4.249.388l-.811-.043c-.573-.029-.859-1.249-.859-3.66 0-.632.031-1.493.095-2.584l.048-1.895.095-1.98c.032-1.062.112-3.502.239-7.32.159-3.818.239-6.502.239-8.052 0-1.551-.08-2.857-.239-3.919-.127-1.062-.366-1.995-.716-2.799h-8.258a14.838 14.838 0 0 0 1.718 4.608c.828 1.406 1.91 2.798 3.246 4.176.159.173.494.517 1.003 1.034a8.824 8.824 0 0 1 1.241 1.55c.318.488.477.947.477 1.378 0 .43-.143.775-.429 1.033a164.5 164.5 0 0 1-1.767 1.507c-1.177.919-2.179 1.794-3.007 2.627-.827.804-1.591 1.837-2.291 3.1a15.586 15.586 0 0 0-1.241 3.316c-.286 1.148-.43 2.239-.43 3.272 0 1.579.271 2.699.812 3.359.254.316-.382.617-1.91.904a26.643 26.643 0 0 1-4.439.388l-.811-.043c-.318 0-.446-.374-.382-1.12 0-.459.032-.832.095-1.119.319-2.24.796-4.105 1.432-5.598.669-1.522 1.687-3.014 3.055-4.478a26.795 26.795 0 0 1 3.533-3.144c1.209-.89 1.861-1.378 1.957-1.464.222-.229-.016-.803-.716-1.722-.7-.919-1.448-1.78-2.244-2.584-1.623-1.665-2.848-3.387-3.675-5.167-.828-1.779-1.305-3.746-1.432-5.899-.032-.488.684-.976 2.148-1.464s2.657-.79 3.58-.904c.254-.029.461-.043.62-.043h12.268c.286-.029.7-.043 1.241-.043.318 0 .557.014.716.043.573.029.859 1.306.859 3.832 0 .747-.032 1.636-.095 2.67l-.048 1.421c-.032.918-.08 3.445-.143 7.578a653.82 653.82 0 0 0-.096 9.516c0 2.153.08 3.919.239 5.297.159 1.377.541 2.425 1.145 3.143Z" fill="#FCFCFC"/></svg>