<svg width="345" height="167" fill="none" xmlns="http://www.w3.org/2000/svg"><g clip-path="url(#a)"><g clip-path="url(#b)"><path d="M58.355 0c.12.407.237.815.354 1.222l.198.688c.38 1.595.485 3.18.493 4.813l.003.557c-.01.922-.043 1.694-.448 2.53-.57 1.178-.306 2.406-.189 3.67.11 1.295.103 2.58.08 3.877l.738-.244c.18-.493.18-.493.246-.978 1.63-.275 1.63-.275 2.459 0l.215.489c.233.53.233.53.768.687.652.04 1.16-.005 1.8-.094 1.628-.17 3.19.032 4.808.232l.9.103c2.355.276 2.355.276 3.31.538l-.245.49-.525.018-2.395.088-.826.03c-2.703.052-2.703.052-5.362.482-.732.175-1.453.129-2.202.115l-.246-.734c-1.305.065-1.305.065-2.29.856l-.415.611-.491.245c-.368 1.145-.26 2.355-.233 3.542l.013.71.031 1.539c.018.832.034 1.664.05 2.495l.07 3.608c.061 3.022.117 6.044.172 9.066l.018.983c.09 4.942.159 9.884.204 14.826l.008.89c.026 2.813.049 5.627.069 8.44l.023 3.081c.006.701.01 1.402.014 2.103l.01 1.256.002.57c.008.835.063 1.58.286 2.384-.078.408-.16.816-.246 1.222l.246.49-.246.733c-.014.424-.014.848-.005 1.272l.015.786.02.848.018.868.06 2.75.039 1.863c.032 1.523.065 3.046.1 4.57l.563.146.74.195.732.192c.669.2.669.2 1.458.6.866.42 1.603.461 2.56.532 1.68.155 2.882.623 4.364 1.446 1.165.56 2.13.471 3.35.066.057-.93.082-1.553-.35-2.392-.81-1.646-1.146-3.919-.633-5.706.532-1.241 1.368-1.831 2.536-2.49 1.439-.366 2.642-.394 3.949.367 1.098.768 1.595 1.593 1.875 2.887.126 1.945-.237 3.744-.738 5.623l-.246.245c-.01.488-.01.977 0 1.466 1.67.677 3.262.887 5.047 1.022 1.615.14 2.847.554 3.958 1.79 1.604 1.929 1.982 4.303 2.305 6.723l.833.079c1.225.153 2.37.489 3.546.852l.616.184c1.091.331 2.153.697 3.216 1.11 1.419.521 2.798.69 4.298.83 4.412.488 8.494 1.636 11.586 5.012a34.816 34.816 0 0 1 2.213 3.178l.368.583c.342.608.606 1.212.861 1.862l.347.874c1.641 4.737 1.079 10.315.693 15.236a45.702 45.702 0 0 0-.118 3.095l-.015.559c-.009 1.152.198 1.769.814 2.726-.019.541-.019.541-.246.978-.411.224-.411.224-.922.397-1.203.528-1.513 1.322-1.978 2.501-.296.525-.296.525-.744.695-.6.083-.947.012-1.522-.169l-.565-.17c-.385-.12-.77-.241-1.154-.363-.998-.298-1.846-.476-2.892-.44-.973.031-1.494-.14-2.285-.74l-.562-.412-.407-.321c.096 2.523.293 5.024.584 7.532l.095.817a84.26 84.26 0 0 0 .543 3.878l.113.695c.071.425.146.849.227 1.272.244 1.472.007 2.529-.578 3.896l-.83.077-.891.168c-.56.655-.56.655-.415 1.207l.169.504.246.978.538-.137c.691-.107.691-.107 1.226.002 1.05.204 2.115.213 3.182.24 1.097.049 1.783.239 2.676.873l.507.229c.594.324.999.747 1.46 1.238l-.246.489.491.488c-.934.31-1.815.288-2.789.295l-.65.007c-.732.008-1.464.014-2.196.02l-1.613.016c-1.506.014-3.011.026-4.516.037l-2.875.023c-22.41.181-44.823.113-67.234.091-.324-.643-.184-.929-.015-1.619l.145-.606.116-.464h.492v-.489c.564-.28.9-.278 1.527-.287l.62-.018c.431-.01.862-.018 1.293-.023 1.266-.03 1.266-.03 2.35-.63.365-.483.365-.483.556-.982.382-.659.927-.93 1.55-1.345 1.166-.96 2.073-2.424 2.26-3.923.31-3.792.5-7.614-.405-11.333-.204-.969-.187-1.87-.16-2.855-.007-1.431-.45-2.717-.955-4.043-.883-2.354-1.527-4.68-1.568-7.197-.055-1.225-.198-1.786-1.106-2.628l-.54-.454c-1.981-1.813-3.289-6.136-3.701-8.774-.007-.541.022-1.073.057-1.613.163-2.653-.51-4.436-1.778-6.732-.998-1.849-1.663-3.861-2.287-5.859-.226-.708-.373-1.153-.91-1.686-.213.992-.422 1.985-.63 2.979l-.184.852-.17.824-.16.757c-.123.696-.123.696.058 1.36l.103.562c-.3.346-.602.692-.918 1.025-.494.7-.546 1.448-.643 2.283-.218.821-.522 1.243-1.144 1.825-.778.137-.778.137-1.628.107l-.855-.016c-.713-.091-.713-.091-1.204-.58l-.216-.809c-.206-.919-.206-.919-.845-1.482l-.415-.642c.11-.453.11-.453.323-.978.738-1.853.46-3.838-.292-5.653l-.266-.588c-.368-.868-.581-1.763-.814-2.674a8.521 8.521 0 0 0-.61-1.521c-.46-1.21-.315-2.173.2-3.376l.23-.367L20 96.808c.015-.535.015-.535.246-1.222.74-.684 1.501-1.15 2.459-1.467l-.707-.55c-.603-.505-1.026-.882-1.26-1.65-.031-.795-.031-.795 0-1.467l1.992.358c.649.12 1.295.245 1.942.375l.384-.825c1.122-2.225 2.451-4.329 4.927-5.153 3.765-.853 7.652.79 11.072 2.23.75.296 1.473.503 2.256.692.588.16.588.16 1.03.367.173.486.337.975.492 1.467.503.242 1.012.368 1.55.516 2.647.87 4.929 2.8 6.92 4.68l.453.427c.292.277.582.557.869.839.999.955 1.974 1.528 3.238 2.094-.294-1.384-.627-1.835-1.72-2.689-1.44-1.782-2.127-3.684-2.705-5.867l-.258-.759c-.524-1.65-.466-2.522.229-4.091.343-.965.442-1.882.536-2.897.264-2.776.587-5.563 1.706-8.143.18-.448.359-.896.537-1.345l.446-1.1h.492V20.291l-4.918-.978-.737-.49a14.398 14.398 0 0 1-.246-1.924l-.057-.534c-.035-.519-.035-.519.057-1.453.843-.911 1.585-1.187 2.795-1.254l.616.002.613-.002c.722.036 1.413.147 2.123.277-.029-.658-.06-1.315-.093-1.972l-.023-.557c-.046-.885-.13-1.626-.386-2.482-.49-1.776-.217-3.516.102-5.303l.094-.569c.182-1.056.425-2.042.797-3.052h.492Zm4.607 129.053a12.066 12.066 0 0 0-2.64.269c-.007 2.536-.012 5.073-.015 7.61v.625c-.007 6.072.02 12.142.13 18.213l.008.489c.038 2.103.079 4.207.123 6.31.62.005 1.242.009 1.863.012l.765.003.75.007.728.002c1.871.011 2.724-.363 4.5-1.246l-.247-9.045 1.23-.734c.123-.826-.003-1.482-.162-2.3-.354-1.523-.625-2.927-.607-4.499.021-.738.037-1.449-.03-2.185-.123-.993-.204-1.877-.062-2.872l.123-.856c-.246-.489-.246-.489-.999-.764l-.722-.214c.005-.977.01-1.954.012-2.931l.003-1.194c.003-.588.007-1.176.008-1.764l.001-.557c.006-.822.107-1.605-.27-2.355l-2.037-.012-.837-.003-.821-.006-.795-.003Zm-7.747.489c-.7-.005-1.097.043-1.777.269-.535.406-.715.647-.885 1.3l-.078.67-.09.752-.084.807a97.608 97.608 0 0 0-.541 7.096 116.955 116.955 0 0 1-.348 5.698c-.283 3.158-.471 6.28-.448 9.453l.012.895.01.83c.015.804.004 1.312-.253 2.079-.658.513-.658.513-1.214.556-.512.025-.99.066-1.49.177-.492.504-.492.505-.738.978l.738 1.467h11.31c-.19-6.654-.341-13.308-.475-19.963a9514.03 9514.03 0 0 0-.084-4.137l-.162-8.054-.017-.849-1.537-.012-.63-.003-.62-.006-.599-.003Zm32.89 22.76c-1.349 0-2.624.792-3.427 1.848l-.261.596-.292.565-.2.413h-.492c-2.008.965-3.609 2.078-5.163 3.667 1.19.266 2.331.542 3.42 1.1 1.643.914 2.933 1.281 4.819 1.342l.858.003c.984.011 1.967.016 2.95 0 .154-3.56-.86-6.309-2.212-9.534Zm10.572-6.845c-.492 0-.492 0-.894.182l-.581.306c-1.333.63-2.747 1.279-3.688 2.445-.32 1.008-.32 1.008.048 3.133.126.627.21 1.198.257 1.84.069 1.521.33 2.977.652 4.464.272.586.272.586.856.874.64.168.64.168 1.118.508 1.226.872 2.217 1.098 3.707 1.16.826-1.363 1.097-2.316 1.033-3.904l-.049-.71c-.212-3.637-.872-7-2.459-10.298Zm-19.423 4.4c-.693.797-1.273 1.486-1.721 2.445 1.32.166 2.617.274 3.947.3.819-.096.819-.096 1.953-1.278-1.324-.748-2.708-1.1-4.18-1.467Zm5.655-8.556c-.277.274-.277.274-1.015 1.436l-.952 1.497-.48.734-.458.702c-.528.806-.941 1.572-1.275 2.476l1.338.596.552.244c1.06.476 2.1 1.012 3.273 1.115.569-.351.569-.351.984-.733-.294-1.72-.294-1.72-.339-3.468a21.516 21.516 0 0 0-.153-2.155l-.738-.489-.138-.87-.108-.841-.491-.244Zm-1.967-2.689c-2.492-.063-5.058.316-7.376 1.222a21.493 21.493 0 0 0-.1 5.051l.069.633c.08.737-.013 1.851.522 2.383.845-.19 1.527-.26 2.102-.936l.357-.531c1.05-1.396 1.991-2.852 2.908-4.339l.411-.672.412-.665.38-.626c.345-.566.345-.566.56-1.032l-.245-.488Zm7.622-2.445c.162 1.154.272 2.343.68 3.44.361.757.562 1.309.672 2.152.095.968.345 1.846.636 2.772.224.437.224.437.962.681.437-.271.873-.545 1.288-.847l.48-.36c.56-.41 1.118-.822 1.674-1.238-.232-.732-.43-1.164-1-1.692a29.026 29.026 0 0 1-3.675-3.183 73.076 73.076 0 0 0-.9-.913l-.341-.338-.477-.474Zm-30.488-36.18c.904.293 1.712.562 2.504 1.091 1.351.979 2.472 1.397 4.135 1.597l-.026-.557c-.22-.665-.22-.665-.893-1.116l-.88-.405a84.95 84.95 0 0 0-4.84-2.078v1.467Z" fill="#FCFCFC"/></g><g clip-path="url(#c)"><path d="M151.202 40.04c.325.373-.447.728-2.316 1.066a29.768 29.768 0 0 1-5.425.508l-1.036-.05c-.731-.034-1.097-1.524-1.097-4.47 0-.778.061-2.487.183-5.128l.548-13.965c-3.25 2.133-6.054 4.47-8.411 7.008-2.316 2.54-3.474 4.824-3.474 6.855v1.778c.122 1.523.305 2.826.549 3.91.243 1.05.629 1.879 1.158 2.488.325.373-.447.728-2.317 1.066a29.75 29.75 0 0 1-5.424.508l-1.036-.05c-.732-.034-1.097-1.44-1.097-4.215 0-1.388.061-2.692.182-3.91l.061-1.473c0-.643.082-3.402.244-8.277.285-6.094.427-10.41.427-12.949 0-2.065-.102-3.555-.305-4.469-.162-.914-.65-1.81-1.463-2.691-.243-.305.122-.728 1.097-1.27 1.016-.541 2.235-1.015 3.657-1.421 1.463-.44 2.662-.627 3.597-.559.731.034 1.097 1.625 1.097 4.773 0 1.287-.061 2.895-.183 4.824 0-.067-.041 1.507-.122 4.723 0 1.523-.041 3.944-.122 7.262 1.544-1.355 3.291-2.573 5.242-3.657 1.991-1.083 4.226-2.15 6.704-3.199l.122-3.554c0-2.404-.101-4.08-.305-5.028-.162-.981-.67-1.946-1.523-2.894-.244-.305.142-.728 1.158-1.27 1.015-.541 2.234-1.015 3.657-1.421 1.462-.44 2.661-.627 3.596-.559.731.034 1.097 1.54 1.097 4.52 0 .677-.081 2.37-.244 5.077-.041 2.506-.102 5.84-.183 10.004-.04 4.164-.061 7.566-.061 10.207 0 2.539.102 4.62.305 6.246.203 1.591.691 2.81 1.463 3.656Zm26.403-15.335c1.463.203 2.194 1.134 2.194 2.792 0 .711-.122 1.507-.365 2.387-.732 2.539-2.012 4.57-3.84 6.094-1.788 1.523-4.043 2.826-6.766 3.91-2.681 1.049-5.262 1.59-7.74 1.625-.163 0-.285-.017-.366-.051-.203 0-.305-.017-.305-.05a13.147 13.147 0 0 0-1.28-3.2c-.528-1.05-1.3-2.37-2.316-3.96-1.381-2.1-2.316-3.708-2.804-4.825-1.422-3.351-2.133-6.584-2.133-9.699 0-1.422.142-2.776.427-4.062 1.056-4.604 3.169-7.99 6.339-10.156 2.478-1.625 5.221-2.878 8.228-3.758 3.007-.914 6.014-1.32 9.021-1.219.162 0 .243.136.243.406v.254c-.081 1.287-.548 3.233-1.402 5.84-.812 2.607-1.422 4.4-1.828 5.383-.244.508-.589.761-1.036.761-.528 0-.833-.406-.914-1.218-.204-3.08-1.179-5.857-2.926-8.328-2.682.541-4.734 1.862-6.156 3.96-1.707 2.54-2.519 5.705-2.438 9.496 0 4.063 1.158 8.125 3.474 12.188.447.812 1.057 1.81 1.829 2.996.853 1.354 1.503 2.471 1.95 3.351.488.846.874 1.744 1.158 2.691.447-.236.935-.609 1.463-1.117s.914-.981 1.158-1.421a11.343 11.343 0 0 0 1.828-4.825 4.09 4.09 0 0 0-.304-2.082c-.244-.677-.732-1.066-1.463-1.167-.488-.068-.264-.356.67-.864.935-.508 1.443-.778 1.524-.812.203-.068.63-.237 1.28-.508a10.546 10.546 0 0 1 1.95-.66c.65-.17 1.199-.22 1.646-.152ZM212.84.735c.609 0 .914.102.914.305 0 1.727-.406 3.91-1.219 6.55-.772 2.607-1.442 4.52-2.012 5.739-.243.474-.569.71-.975.71-.244 0-.467-.1-.67-.304-.163-.203-.264-.508-.305-.914-.244-3.216-1.402-6.263-3.474-9.14h-3.901c.041.406.061 1.032.061 1.878 0 1.185-.061 2.692-.183 4.52-.04 1.083-.101 4.062-.183 8.937-.081 4.841-.122 8.582-.122 11.223 0 2.539.102 4.62.305 6.245.204 1.625.691 2.861 1.463 3.707.325.373-.447.728-2.316 1.067a32.966 32.966 0 0 1-5.425.457l-1.036-.051c-.731-.034-1.097-1.506-1.097-4.418 0-.812.061-2.539.183-5.18l.122-2.335c.04-1.253.142-4.13.305-8.633.203-4.502.304-7.668.304-9.496 0-1.862-.101-3.402-.304-4.62-.163-1.253-.488-2.354-.976-3.301h-3.839c-1.707 3.317-2.662 6.364-2.865 9.14-.041.812-.345 1.219-.914 1.219-.407 0-.732-.237-.976-.711-.609-1.388-1.32-3.182-2.133-5.383-.772-2.234-1.158-3.96-1.158-5.18 0-.575.731-1.015 2.194-1.32 1.463-.304 3.109-.508 4.937-.61 1.829-.1 2.743-.135 2.743-.1h22.552Zm29.192 11.527c1.381 2.81 2.072 5.739 2.072 8.785 0 .508-.04 1.236-.122 2.184-.406 3.96-1.686 7.194-3.84 9.699-2.438 2.844-6.034 5.18-10.788 7.008-1.015.507-2.295.947-3.84 1.32-1.503.406-2.275.508-2.316.304a15.614 15.614 0 0 0-1.463-3.199c-.609-1.05-1.401-2.285-2.377-3.707-1.584-2.302-2.702-4.18-3.352-5.636-1.097-2.37-1.645-4.943-1.645-7.719 0-1.185.081-2.251.243-3.199.65-4.333 2.113-7.719 4.389-10.156 1.706-1.828 3.86-3.351 6.46-4.57 2.601-1.219 5.445-2.15 8.533-2.793.326-.068.569-.102.732-.102.366 0 .569.034.609.102a15.654 15.654 0 0 0 1.341 3.148c.569.982 1.382 2.235 2.438 3.758.204.305.63.948 1.28 1.93.65.981 1.199 1.93 1.646 2.843Zm-7.192 19.754c1.178-2.54 1.767-5.264 1.767-8.176 0-3.622-.995-7.126-2.986-10.511a33.824 33.824 0 0 0-2.012-2.996c-.162-.237-.528-.779-1.097-1.625a86.695 86.695 0 0 1-1.523-2.438 17.736 17.736 0 0 1-.976-2.183 8.002 8.002 0 0 0-1.341 1.168c-1.178 1.286-2.092 2.64-2.742 4.062-1.341 2.878-2.012 6.026-2.012 9.445 0 3.352.894 6.568 2.682 9.648.325.542 1.077 1.693 2.255 3.453.65.948 1.301 1.947 1.951 2.997.65 1.049 1.158 2.03 1.523 2.945 1.829-1.388 3.332-3.318 4.511-5.79Zm31.716-7.211c.365.034.142.288-.671.762-.772.474-1.3.778-1.584.914-1.951.88-3.495 1.32-4.633 1.32-1.34 0-2.397-.254-3.169-.762-.772-.541-1.158-1.252-1.158-2.132 0-.373.101-.847.305-1.422a5.58 5.58 0 0 1 .731-1.32c.325-.373.772-.796 1.341-1.27 1.666-1.287 3.048-2.742 4.145-4.367a19.91 19.91 0 0 0 2.499-5.383c.609-1.93.914-3.876.914-5.84 0-.71-.021-1.235-.061-1.574H254.61c.04 1.084.02 2.607-.061 4.57a21.266 21.266 0 0 0-.061 1.778l-.061 2.59c0 3.148.02 5.653.061 7.515l.061 7.566v1.727c0 2.776.101 5.027.304 6.753.204 1.727.691 3.047 1.463 3.961.366.373-.386.728-2.255 1.067a34.06 34.06 0 0 1-5.486.457l-1.036-.051c-.731-.034-1.097-1.422-1.097-4.164 0-1.456.061-2.793.183-4.012l.061-1.421c.041-2.573.081-5.857.122-9.852.081-4.028.122-7.566.122-10.613 0-2.336-.163-4.231-.488-5.687-.284-1.49-.833-2.708-1.645-3.656-.326-.373.447-.728 2.316-1.067 1.91-.338 3.738-.49 5.485-.457h20.358c.934 0 1.401.22 1.401.66 0 3.927-.771 7.093-2.316 9.496-1.503 2.404-2.803 4.097-3.9 5.078a129.611 129.611 0 0 1-1.951 1.727l-.975.762c-.894.677-1.503 1.303-1.829 1.878a3.661 3.661 0 0 0-.487 1.829c0 .778.305 1.404.914 1.878.65.474 1.564.728 2.743.762Zm38.545 15.234c.325.373-.447.728-2.316 1.066a29.768 29.768 0 0 1-5.425.508l-1.036-.05c-.731-.034-1.097-1.524-1.097-4.47 0-.778.061-2.487.183-5.128l.549-13.965c-3.251 2.133-6.055 4.47-8.412 7.008-2.316 2.54-3.474 4.824-3.474 6.855v1.778c.122 1.523.305 2.826.549 3.91.244 1.05.63 1.879 1.158 2.488.325.373-.447.728-2.316 1.066a29.768 29.768 0 0 1-5.425.508l-1.036-.05c-.731-.034-1.097-1.44-1.097-4.215 0-1.388.061-2.692.183-3.91l.061-1.473c0-.643.081-3.402.244-8.277.284-6.094.426-10.41.426-12.949 0-2.065-.101-3.555-.305-4.469-.162-.914-.65-1.81-1.462-2.691-.244-.305.122-.728 1.097-1.27 1.015-.541 2.234-1.015 3.657-1.421 1.463-.44 2.661-.627 3.596-.559.731.034 1.097 1.625 1.097 4.773 0 1.287-.061 2.895-.183 4.824 0-.067-.04 1.507-.122 4.723 0 1.523-.04 3.944-.122 7.262 1.544-1.355 3.292-2.573 5.242-3.657 1.991-1.083 4.226-2.15 6.705-3.199l.121-3.554c0-2.404-.101-4.08-.304-5.028-.163-.981-.671-1.946-1.524-2.894-.244-.305.142-.728 1.158-1.27 1.016-.541 2.235-1.015 3.657-1.421 1.463-.44 2.661-.627 3.596-.559.731.034 1.097 1.54 1.097 4.52 0 .677-.081 2.37-.244 5.077-.04 2.506-.101 5.84-.183 10.004-.04 4.164-.06 7.566-.06 10.207 0 2.539.101 4.62.304 6.246.204 1.591.691 2.81 1.463 3.656Zm31.889.05c.325.373-.447.729-2.316 1.067a32.966 32.966 0 0 1-5.425.457l-1.036-.05c-.731-.034-1.097-1.473-1.097-4.317 0-.745.04-1.76.122-3.047l.061-2.234.122-2.336c.04-1.252.142-4.13.305-8.633.203-4.502.304-7.667.304-9.495 0-1.828-.101-3.369-.304-4.621-.163-1.253-.468-2.353-.915-3.301h-10.544a16.66 16.66 0 0 0 2.194 5.433c1.057 1.66 2.438 3.301 4.145 4.926.203.203.63.61 1.28 1.219.65.61 1.178 1.219 1.584 1.828.407.575.61 1.117.61 1.625s-.183.914-.549 1.219c-.162.135-.914.727-2.255 1.777-1.503 1.083-2.783 2.116-3.84 3.098-1.056.947-2.032 2.166-2.925 3.656a17.55 17.55 0 0 0-1.585 3.91c-.366 1.354-.549 2.64-.549 3.859 0 1.862.346 3.182 1.037 3.96.325.373-.488.729-2.438 1.067-1.951.305-3.84.457-5.669.457l-1.036-.05c-.406 0-.569-.44-.488-1.32 0-.542.041-.983.122-1.321.407-2.64 1.016-4.841 1.829-6.602.853-1.794 2.154-3.554 3.901-5.28a33.484 33.484 0 0 1 4.51-3.708c1.544-1.049 2.377-1.625 2.499-1.726.284-.271-.021-.948-.914-2.031a32.134 32.134 0 0 0-2.865-3.047c-2.072-1.964-3.637-3.995-4.693-6.094-1.057-2.099-1.666-4.418-1.829-6.957-.04-.575.874-1.15 2.743-1.726 1.869-.576 3.393-.931 4.571-1.066.326-.034.589-.051.793-.051h15.664c.366-.034.894-.051 1.585-.051.406 0 .711.017.914.05.731.035 1.097 1.541 1.097 4.52 0 .88-.04 1.93-.122 3.149l-.061 1.675c-.04 1.084-.101 4.063-.183 8.938-.081 4.84-.122 8.581-.122 11.222 0 2.539.102 4.62.305 6.246.203 1.625.691 2.86 1.463 3.707Z" fill="#FCFCFC"/></g><g clip-path="url(#d)"><path d="M134.389 74.426c.146.18-.2.352-1.036.516-.818.148-1.628.222-2.428.222l-.463-.025c-.328-.016-.491-.73-.491-2.14 0-.394.027-1.23.082-2.51.2-5.33.3-8.636.3-9.916 0-.902-.037-1.656-.109-2.263-.073-.607-.21-1.132-.41-1.575h-4.173l.028.788c0 .918-.037 1.689-.11 2.312-.018 1.214-.045 2.83-.081 4.847a535.453 535.453 0 0 0-.028 4.921c0 1.23.046 2.24.137 3.027.091.787.309 1.386.654 1.796.146.18-.2.352-1.036.516-.818.148-1.628.222-2.428.222l-.463-.025c-.328-.016-.491-.73-.491-2.14 0-.394.027-1.23.082-2.51l.054-1.132c.018-.607.064-2 .137-4.183.09-2.181.136-3.715.136-4.6 0-1.116-.073-2.035-.218-2.756-.128-.722-.382-1.32-.764-1.796-.145-.18.2-.345 1.036-.492a12.619 12.619 0 0 1 2.428-.247l.464.025h7.146c.127-.016.3-.025.518-.025.218 0 .373.009.464.025.327.017.491.746.491 2.19 0 .426-.019.935-.055 1.525l-.027.812c-.018.525-.046 1.969-.082 4.33a382.482 382.482 0 0 0-.055 5.438c0 1.23.046 2.24.137 3.027.091.787.309 1.386.654 1.796Zm11.96-7.16c.673.115 1.009.574 1.009 1.378 0 .443-.082.87-.245 1.28-.346 1.065-.946 1.935-1.801 2.607-.872.69-1.891 1.28-3.054 1.772-1.146.492-2.237.746-3.273.763a.416.416 0 0 1-.164-.025c-.091 0-.136-.008-.136-.025a7.056 7.056 0 0 0-.6-1.574 22.23 22.23 0 0 0-1.064-1.796c-.673-1.034-1.128-1.846-1.364-2.436-.636-1.591-.955-3.141-.955-4.65 0-.722.064-1.395.191-2.018a8.75 8.75 0 0 1 1.064-2.731 7.392 7.392 0 0 1 1.937-2.19 12.814 12.814 0 0 1 3.654-1.82 11.699 11.699 0 0 1 4.064-.591c.073 0 .11.073.11.221v.099c-.019.623-.219 1.582-.6 2.878-.382 1.28-.673 2.133-.873 2.56-.109.245-.255.368-.437.368-.109 0-.2-.049-.272-.147a1.004 1.004 0 0 1-.137-.443c-.109-1.575-.554-2.928-1.336-4.06-.473.131-.955.36-1.446.689-.491.312-.918.73-1.282 1.255a7.452 7.452 0 0 0-.982 2.19c-.2.787-.3 1.59-.3 2.41 0 .263.009.452.028.567l.163-.099c.618-.328 1.346-.566 2.182-.713a14.422 14.422 0 0 1 2.51-.222c.709 0 1.309.05 1.8.148.509.082.763.188.763.32 0 1.017-.591 2.034-1.773 3.05-.254.23-.445.345-.572.345-.182 0-.3-.189-.355-.566-.164-1.18-1.036-1.771-2.618-1.771-.655 0-1.337.09-2.046.27.182 1.477.664 3.002 1.446 4.577l.872 1.427c.801 1.18 1.31 2.149 1.528 2.903.236-.115.554-.352.955-.713.509-.525.845-1.272 1.009-2.24.018-.098.027-.262.027-.491 0-.788-.264-1.222-.791-1.305-.164-.032-.082-.155.245-.368.346-.23.601-.378.764-.443.091-.033.282-.115.573-.246.309-.148.6-.255.873-.32.273-.082.509-.107.709-.074Zm14.454 7.16c.146.18-.2.352-1.036.516-.818.148-1.628.222-2.428.222l-.463-.025c-.328-.016-.491-.705-.491-2.066 0-.394.027-1.255.082-2.584.09-2.165.145-3.74.163-4.724h-4.909c-.019 1.181-.028 2.46-.028 3.838 0 1.23.046 2.24.137 3.027.091.787.309 1.386.654 1.796.146.18-.2.352-1.036.516-.818.148-1.628.222-2.428.222l-.463-.025c-.328-.016-.491-.73-.491-2.14 0-.394.027-1.23.082-2.51l.054-1.132c.018-.607.064-2 .136-4.183.091-2.181.137-3.715.137-4.6 0-1.165-.046-1.977-.137-2.436-.072-.476-.3-.944-.681-1.403-.109-.147.063-.352.518-.615.454-.262 1-.492 1.636-.689.655-.213 1.191-.303 1.61-.27.327.016.491.746.491 2.19 0 .344-.037 1.172-.11 2.484l-.054 4.478h4.937l.082-4.109c0-1-.046-1.722-.137-2.165-.073-.443-.291-.877-.654-1.304-.11-.147.054-.352.491-.615.454-.262 1-.492 1.636-.689.655-.213 1.191-.303 1.609-.27.328.016.491.787.491 2.312 0 .64-.027 1.427-.082 2.362l-.136 9.4c0 1.344.045 2.435.136 3.272.091.836.319 1.476.682 1.919Zm11.278-8.366c.891 1.083 1.336 2.15 1.336 3.199 0 .492-.127 1.009-.382 1.55-.545 1.115-1.455 2.017-2.727 2.706-1.255.673-2.737 1.239-4.446 1.698a2.51 2.51 0 0 1-.519.074.83.83 0 0 1-.382-.099c-.909-.475-1.782-1.131-2.618-1.968-.818-.836-1.227-1.648-1.227-2.436 0-.443.136-.828.409-1.156.182-.23.418-.41.709-.541.309-.132.736-.296 1.282-.493.036 0 .291-.057.764-.172.491-.13.681-.114.572.05a1.708 1.708 0 0 0-.354 1.058c0 .524.191 1.131.573 1.82.29.509.663.96 1.118 1.354.455.377.891.647 1.309.811a5.184 5.184 0 0 0 1.637-1.058c.509-.475.763-1.033.763-1.673 0-.951-.318-1.853-.954-2.706-.637-.87-1.491-1.813-2.564-2.83-.273-.246-.409-.59-.409-1.033 0-.164.018-.394.054-.689.219-1.312.7-2.6 1.446-3.863s1.627-2.247 2.646-2.952h-4.774a8.706 8.706 0 0 0-1.363 4.182c-.019.197-.073.345-.164.443a.329.329 0 0 1-.273.148c-.182 0-.327-.123-.436-.37l-.764-1.648c-.455-1.033-.682-1.96-.682-2.78 0-.033.027-.074.082-.123.109-.098.273-.221.491-.37.236-.147.4-.245.491-.294.454-.214.845-.37 1.173-.468.327-.115.654-.172.982-.172h7.937c.255 0 .382.057.382.172 0 .131-.209.361-.628.69l-.054.073c-.837.87-1.491 1.714-1.964 2.534-.473.804-.827 1.755-1.064 2.854a5.716 5.716 0 0 1-.136.566c-.055.246-.082.46-.082.64 0 .328.091.582.273.763.018.016.364.352 1.036 1.008.728.657 1.228 1.157 1.501 1.501Zm13.262 1.206c.672.115 1.009.574 1.009 1.378 0 .443-.082.87-.246 1.28a5.323 5.323 0 0 1-1.8 2.607c-.873.69-1.891 1.28-3.055 1.772-1.145.492-2.236.746-3.273.763a.414.414 0 0 1-.163-.025c-.091 0-.137-.008-.137-.025a6.96 6.96 0 0 0-.6-1.574 22.19 22.19 0 0 0-1.063-1.796c-.673-1.034-1.128-1.846-1.364-2.436-.637-1.591-.955-3.141-.955-4.65 0-.722.064-1.395.191-2.018a8.75 8.75 0 0 1 1.064-2.731 7.388 7.388 0 0 1 1.936-2.19 12.82 12.82 0 0 1 3.655-1.82 11.699 11.699 0 0 1 4.064-.591c.073 0 .109.073.109.221v.099c-.018.623-.218 1.582-.6 2.878-.382 1.28-.673 2.133-.873 2.56-.109.245-.254.368-.436.368-.109 0-.2-.049-.273-.147a1.017 1.017 0 0 1-.136-.443c-.109-1.575-.555-2.928-1.337-4.06a5.06 5.06 0 0 0-1.445.689c-.491.312-.918.73-1.282 1.255a7.426 7.426 0 0 0-.982 2.19c-.2.787-.3 1.59-.3 2.41 0 .263.009.452.027.567l.164-.099c.618-.328 1.345-.566 2.182-.713a14.41 14.41 0 0 1 2.509-.222c.709 0 1.309.05 1.8.148.51.082.764.188.764.32 0 1.017-.591 2.034-1.773 3.05-.254.23-.445.345-.573.345-.181 0-.3-.189-.354-.566-.164-1.18-1.037-1.771-2.619-1.771a8.29 8.29 0 0 0-2.045.27c.182 1.477.663 3.002 1.445 4.577l.873 1.427c.8 1.18 1.309 2.149 1.528 2.903.236-.115.554-.352.954-.713.509-.525.846-1.272 1.009-2.24.019-.098.028-.262.028-.491 0-.788-.264-1.222-.791-1.305-.164-.032-.082-.155.245-.368.346-.23.6-.378.764-.443.091-.033.282-.115.573-.246.309-.148.6-.255.872-.32.273-.082.51-.107.71-.074Zm14.454 7.16c.146.18-.2.352-1.036.516-.819.148-1.628.222-2.428.222l-.464-.025c-.327-.016-.49-.705-.49-2.066 0-.394.027-1.255.081-2.584.091-2.165.146-3.74.164-4.724h-4.91a252.99 252.99 0 0 0-.027 3.838c0 1.23.046 2.24.137 3.027.09.787.309 1.386.654 1.796.146.18-.2.352-1.036.516-.819.148-1.628.222-2.428.222l-.463-.025c-.328-.016-.491-.73-.491-2.14 0-.394.027-1.23.081-2.51l.055-1.132c.018-.607.064-2 .136-4.183.091-2.181.137-3.715.137-4.6 0-1.165-.046-1.977-.137-2.436-.072-.476-.3-.944-.682-1.403-.109-.147.064-.352.519-.615.454-.262 1-.492 1.636-.689.655-.213 1.191-.303 1.609-.27.328.016.491.746.491 2.19 0 .344-.036 1.172-.109 2.484l-.054 4.478h4.937l.081-4.109c0-1-.045-1.722-.136-2.165-.073-.443-.291-.877-.655-1.304-.109-.147.055-.352.491-.615.455-.262 1-.492 1.637-.689.654-.213 1.191-.303 1.609-.27.327.016.491.787.491 2.312 0 .64-.027 1.427-.082 2.362l-.136 9.4c0 1.344.045 2.435.136 3.272.091.836.318 1.476.682 1.919Zm11.823-7.505c.654.099.981.55.981 1.354 0 .344-.054.73-.163 1.156-.327 1.23-.9 2.215-1.719 2.953-.8.738-1.809 1.37-3.027 1.894-1.2.509-2.355.771-3.464.787a.42.42 0 0 1-.164-.024c-.091 0-.136-.008-.136-.025a6.665 6.665 0 0 0-.573-1.55 23.315 23.315 0 0 0-1.036-1.919c-.619-1.017-1.037-1.796-1.255-2.337-.636-1.624-.955-3.19-.955-4.7 0-.689.064-1.345.191-1.968.473-2.231 1.419-3.871 2.837-4.921a13.216 13.216 0 0 1 3.682-1.82 11.487 11.487 0 0 1 4.037-.591c.073 0 .109.065.109.197v.123c-.036.623-.246 1.566-.627 2.83-.364 1.262-.637 2.132-.819 2.607-.109.246-.263.37-.463.37-.237 0-.373-.198-.409-.591-.091-1.493-.528-2.838-1.31-4.035-1.2.262-2.118.902-2.754 1.919-.764 1.23-1.128 2.764-1.091 4.6 0 1.97.518 3.938 1.554 5.906.2.394.473.877.818 1.452.382.656.673 1.197.873 1.623.218.41.391.845.519 1.304.2-.114.418-.295.654-.54a2.99 2.99 0 0 0 .518-.69c.437-.705.71-1.484.819-2.337a2.128 2.128 0 0 0-.137-1.009c-.109-.328-.327-.517-.654-.566-.219-.033-.119-.172.3-.418.418-.246.645-.377.682-.394.09-.033.281-.115.572-.246.309-.147.6-.254.873-.32.291-.082.537-.106.737-.074Zm5.294 3.199c0 1.017.054 1.886.163 2.608.109.705.319 1.255.628 1.649.145.18-.2.352-1.037.516-.818.164-1.627.246-2.427.246l-.464-.024c-.327-.017-.491-.714-.491-2.092 0-.393.027-1.254.082-2.583 0-.279.036-1.632.109-4.06.127-4.133.191-6.315.191-6.545 0-.935-.046-1.583-.136-1.943-.073-.361-.282-.755-.628-1.181-.127-.148.027-.353.464-.615.454-.263 1.009-.493 1.664-.69.654-.213 1.191-.303 1.609-.27.309.016.464.77.464 2.264a42.5 42.5 0 0 1-.082 2.386c-.018 1.1-.046 2.584-.082 4.454a522.89 522.89 0 0 0-.027 4.97v.91Zm4.555-5.487a25.686 25.686 0 0 1 3.082 4.33c.854 1.477 1.509 2.773 1.964 3.888.29.689.518 1.124.681 1.304.182.164.264.263.246.295-.073.18-.546.345-1.418.492-.873.148-1.601.222-2.182.222-.237 0-.391-.05-.464-.148-.073-.098-.164-.328-.273-.689-.036-.114-.1-.295-.191-.541a8.503 8.503 0 0 0-.245-.713c-.346-.919-.928-2.034-1.746-3.347a27.47 27.47 0 0 0-2.564-3.543 6.154 6.154 0 0 0-.436-.492 3.108 3.108 0 0 1-.491-.713 2.054 2.054 0 0 1-.136-.763c0-.656.29-1.649.872-2.977.509-1.148 1.3-2.157 2.373-3.026 1.091-.886 2.191-1.567 3.301-2.043a9.726 9.726 0 0 1 1.691-.566c.563-.147 1.027-.221 1.391-.221.4 0 .6.09.6.27 0 .608-.2 1.592-.6 2.953-.382 1.345-.673 2.206-.873 2.584-.109.262-.255.393-.437.393a.404.404 0 0 1-.3-.147 1.017 1.017 0 0 1-.136-.443c-.073-.853-.2-1.558-.382-2.116s-.363-.976-.545-1.255c-.164-.295-.246-.418-.246-.37-.473.214-.982.608-1.527 1.182a5.693 5.693 0 0 0-1.228 1.968c-.218.59-.372 1.05-.463 1.378a3.583 3.583 0 0 0-.137.96c0 .656.273 1.287.819 1.894Zm18.715-3.74c.619 1.362.928 2.78.928 4.257 0 .246-.018.599-.055 1.058-.182 1.919-.754 3.486-1.718 4.7-1.091 1.377-2.7 2.509-4.828 3.395-.454.246-1.027.459-1.718.64-.673.196-1.018.246-1.037.147a7.854 7.854 0 0 0-.654-1.55 29.869 29.869 0 0 0-1.064-1.796c-.709-1.115-1.209-2.026-1.5-2.731-.491-1.148-.737-2.395-.737-3.74 0-.574.037-1.09.11-1.55.291-2.1.945-3.74 1.963-4.921.764-.886 1.728-1.624 2.892-2.214a16.337 16.337 0 0 1 3.818-1.354c.146-.032.255-.049.327-.049.164 0 .255.017.273.05.146.524.346 1.033.6 1.525.255.476.618 1.082 1.091 1.82l.573.936c.291.475.536.934.736 1.377Zm-3.218 9.572c.527-1.23.791-2.551.791-3.962 0-1.755-.446-3.453-1.337-5.093a16.382 16.382 0 0 0-.9-1.452l-.491-.787c-.254-.426-.481-.82-.681-1.181a8.952 8.952 0 0 1-.437-1.058c-.236.18-.436.37-.6.566a7.674 7.674 0 0 0-1.227 1.968c-.6 1.395-.9 2.92-.9 4.577 0 1.624.4 3.182 1.2 4.674.145.263.482.82 1.009 1.674.291.459.582.943.873 1.451.291.509.518.984.682 1.427.818-.672 1.491-1.607 2.018-2.805Zm15.229-15.182c.291 0 .509.017.655.05.145.016.218.065.218.147 0 .59-.191 1.55-.573 2.88-.382 1.328-.673 2.222-.873 2.681-.109.246-.263.369-.463.369-.237 0-.373-.197-.41-.59-.09-1.411-.536-2.789-1.336-4.134h-3.628c.019.197.028.5.028.91 0 .575-.028 1.304-.082 2.19-.018 1.214-.046 2.83-.082 4.847a567.995 567.995 0 0 0-.027 4.921c0 1.23.045 2.24.136 3.026.091.788.309 1.386.655 1.797.145.18-.2.352-1.037.516-.836.148-1.645.222-2.427.222l-.464-.025c-.182-.016-.309-.205-.382-.566-.073-.36-.109-.861-.109-1.5 0-.394.027-1.255.082-2.584.2-5.331.3-8.636.3-9.916 0-1.132-.073-2.042-.218-2.73-.128-.706-.373-1.297-.737-1.772-.145-.18.209-.353 1.064-.517.873-.164 1.7-.238 2.482-.222h7.228Zm13.524 5.61c.618 1.362.927 2.78.927 4.257 0 .246-.018.599-.055 1.058-.181 1.919-.754 3.486-1.718 4.7-1.091 1.377-2.7 2.509-4.828 3.395-.454.246-1.027.459-1.718.64-.673.196-1.018.246-1.036.147a7.918 7.918 0 0 0-.655-1.55 29.345 29.345 0 0 0-1.064-1.796c-.709-1.115-1.209-2.026-1.5-2.731-.491-1.148-.736-2.395-.736-3.74 0-.574.036-1.09.109-1.55.291-2.1.945-3.74 1.964-4.921.763-.886 1.727-1.624 2.891-2.214a16.337 16.337 0 0 1 3.818-1.354 1.65 1.65 0 0 1 .328-.049c.163 0 .254.017.272.05.146.524.346 1.033.6 1.525.255.476.619 1.082 1.091 1.82l.573.936c.291.475.537.934.737 1.377Zm-3.219 9.572c.527-1.23.791-2.551.791-3.962 0-1.755-.445-3.453-1.336-5.093a16.384 16.384 0 0 0-.901-1.452 176.21 176.21 0 0 1-.49-.787c-.255-.426-.482-.82-.682-1.181a8.952 8.952 0 0 1-.437-1.058c-.236.18-.436.37-.6.566a7.674 7.674 0 0 0-1.227 1.968c-.6 1.395-.9 2.92-.9 4.577 0 1.624.4 3.182 1.2 4.674.145.263.482.82 1.009 1.674.291.459.582.943.873 1.451.291.509.518.984.682 1.427.818-.672 1.491-1.607 2.018-2.805Zm21.818-.345c0 1.017.055 1.886.164 2.608.109.705.318 1.255.627 1.649.146.18-.2.352-1.036.516-.818.164-1.627.246-2.428.246l-.463-.024c-.328-.017-.491-.714-.491-2.092 0-.393.027-1.254.082-2.583 0-.279.036-1.632.109-4.06.127-4.133.191-6.315.191-6.545 0-.935-.046-1.583-.137-1.943-.072-.361-.282-.755-.627-1.181-.127-.148.027-.353.464-.615.454-.263 1.009-.493 1.663-.69.655-.213 1.191-.303 1.61-.27.309.016.463.77.463 2.264 0 .656-.027 1.451-.081 2.386-.019 1.1-.046 2.584-.082 4.454-.019 1.87-.028 3.526-.028 4.97v.91Zm4.555-5.487a25.573 25.573 0 0 1 3.082 4.33c.855 1.477 1.51 2.773 1.964 3.888.291.689.519 1.124.682 1.304.182.164.264.263.246.295-.073.18-.546.345-1.419.492-.872.148-1.6.222-2.182.222-.236 0-.391-.05-.463-.148-.073-.098-.164-.328-.273-.689-.036-.114-.1-.295-.191-.541a8.506 8.506 0 0 0-.246-.713c-.345-.919-.927-2.034-1.745-3.347a27.47 27.47 0 0 0-2.564-3.543 6.37 6.37 0 0 0-.436-.492 3.077 3.077 0 0 1-.491-.713 2.054 2.054 0 0 1-.137-.763c0-.656.291-1.649.873-2.977.509-1.148 1.3-2.157 2.373-3.026 1.091-.886 2.191-1.567 3.3-2.043a9.782 9.782 0 0 1 1.691-.566c.564-.147 1.028-.221 1.391-.221.4 0 .6.09.6.27 0 .608-.2 1.592-.6 2.953-.381 1.345-.672 2.206-.872 2.584-.109.262-.255.393-.437.393a.404.404 0 0 1-.3-.147 1.004 1.004 0 0 1-.136-.443c-.073-.853-.2-1.558-.382-2.116s-.364-.976-.546-1.255c-.163-.295-.245-.418-.245-.37-.473.214-.982.608-1.527 1.182a5.693 5.693 0 0 0-1.228 1.968c-.218.59-.373 1.05-.464 1.378-.09.328-.136.648-.136.96 0 .656.273 1.287.818 1.894Zm16.098 2.338c.163.016.063.14-.3.369a9.5 9.5 0 0 1-.709.443c-.873.426-1.564.64-2.073.64-.6 0-1.073-.124-1.419-.37a1.238 1.238 0 0 1-.518-1.033c0-.18.046-.41.136-.69.091-.245.2-.458.328-.639a5.5 5.5 0 0 1 .6-.615 8.877 8.877 0 0 0 1.855-2.116c.491-.804.863-1.673 1.118-2.608.273-.935.409-1.878.409-2.83 0-.344-.009-.598-.027-.762h-4.746a32.81 32.81 0 0 1-.027 2.214c-.019.23-.028.517-.028.861l-.027 1.255c0 1.526.009 2.74.027 3.642l.028 3.666v.836c0 1.345.045 2.436.136 3.273.091.836.309 1.476.655 1.919.163.18-.173.352-1.01.516a14.1 14.1 0 0 1-2.454.222l-.464-.025c-.327-.016-.491-.689-.491-2.017 0-.706.027-1.353.082-1.944l.027-.689c.018-1.247.036-2.838.055-4.773.036-1.952.054-3.666.054-5.142 0-1.132-.073-2.05-.218-2.756-.127-.722-.373-1.312-.737-1.772-.145-.18.201-.352 1.037-.516a11.723 11.723 0 0 1 2.455-.222h9.11c.418 0 .627.107.627.32 0 1.903-.346 3.436-1.036 4.601-.673 1.165-1.255 1.985-1.746 2.46-.491.476-.782.755-.873.837l-.436.37c-.4.327-.673.63-.819.91a1.894 1.894 0 0 0-.218.885c0 .377.137.68.409.91.291.23.7.353 1.228.37Zm17.276 4.232c.255 1.328.509 2.157.764 2.485.273.328.409.516.409.566.018.13-.182.254-.6.369-.4.098-.845.18-1.336.246-.691.082-1.182.123-1.473.123-.546 0-.855-.09-.928-.271-.054-.131-.181-.714-.381-1.747-.091-.394-.219-.935-.382-1.624-.146-.705-.246-1.132-.3-1.28-.71.969-1.7 1.838-2.973 2.609-1.255.754-2.455 1.353-3.601 1.796-.909.344-1.618.509-2.127.492-.2-.016-.346-.27-.437-.763-.09-.492-.136-1.099-.136-1.82 0-1.034.064-1.895.191-2.584.182-1.033.4-2.01.655-2.928.254-.918.772-2.034 1.554-3.346.8-1.329 1.9-2.534 3.301-3.617a19.22 19.22 0 0 1-.737-1.771c-.145-.492-.209-.919-.191-1.28.018-.36.237-.68.655-.96a5.3 5.3 0 0 1 1.309-.64c.346-.114.673-.204.982-.27.309-.065.491-.065.545 0 .037.05.037.164 0 .345a5.21 5.21 0 0 0-.027.517c0 .836.637 2.566 1.909 5.191.71 1.476 1.401 3.322 2.073 5.536.691 2.214 1.119 3.756 1.282 4.626Zm-9.41 1.377c.655-.344 1.355-.902 2.101-1.673.745-.787 1.345-1.574 1.8-2.362.472-.803.663-1.386.572-1.747a17.906 17.906 0 0 0-.709-2.165c-.254-.64-.582-1.427-.982-2.362l-.409-.886a2.497 2.497 0 0 0-.191-.369c-1.418 1.28-2.318 3.707-2.7 7.283l-.054.566c-.128 1.116-.191 1.895-.191 2.338 0 .967.172 1.451.518 1.451a.425.425 0 0 0 .245-.074Zm24.825 1.797c.145.18-.2.352-1.037.516-.818.148-1.627.222-2.427.222l-.464-.025c-.327-.016-.491-.713-.491-2.091 0-.361.018-.853.055-1.477l.027-1.082.055-1.132c.018-.607.063-2.001.136-4.183.091-2.181.136-3.715.136-4.6 0-.886-.045-1.633-.136-2.24a5.707 5.707 0 0 0-.409-1.599h-4.719c.182.935.509 1.813.982 2.633.473.803 1.091 1.599 1.855 2.386.091.099.282.296.573.59.291.296.527.591.709.887.182.278.273.54.273.787a.756.756 0 0 1-.246.59c-.073.066-.409.353-1.009.862a18.161 18.161 0 0 0-1.718 1.5c-.473.46-.91 1.05-1.31 1.772a8.941 8.941 0 0 0-.709 1.895 7.763 7.763 0 0 0-.245 1.87c0 .902.154 1.541.463 1.919.146.18-.218.352-1.091.516-.872.148-1.718.222-2.536.222l-.464-.025c-.182 0-.254-.213-.218-.64 0-.262.018-.475.055-.64.181-1.279.454-2.345.818-3.198.382-.87.964-1.722 1.745-2.559a15.356 15.356 0 0 1 2.019-1.796 38.552 38.552 0 0 0 1.118-.836c.127-.132-.009-.46-.409-.985a15.09 15.09 0 0 0-1.282-1.476c-.927-.951-1.627-1.935-2.1-2.952-.473-1.017-.746-2.141-.818-3.371-.019-.28.39-.558 1.227-.837.836-.279 1.518-.45 2.046-.517.145-.016.263-.024.354-.024h7.01c.164-.017.4-.025.709-.025.182 0 .318.008.409.025.327.016.491.746.491 2.19 0 .426-.018.935-.054 1.525l-.028.812c-.018.525-.045 1.968-.082 4.33a379.515 379.515 0 0 0-.054 5.438c0 1.23.045 2.24.136 3.026.091.788.309 1.386.655 1.797Z" fill="#FCFCFC"/></g></g><defs><clipPath id="a"><path fill="#fff" d="M0 0h345v167H0z"/></clipPath><clipPath id="b"><path fill="#fff" transform="translate(20)" d="M0 0h100.559v167H0z"/></clipPath><clipPath id="c"><path fill="#fff" transform="translate(120.559)" d="M0 0h217.135v42.052H0z"/></clipPath><clipPath id="d"><path fill="#fff" transform="translate(120.559 54.96)" d="M0 0h246.313v23.04H0z"/></clipPath></defs></svg>