<svg xmlns="http://www.w3.org/2000/svg" width="179" height="295" fill="none" viewBox="0 0 179 295"><path fill="#F0F0F0" d="M68.436 0q.316 1.079.624 2.16l.351 1.214c.67 2.817.857 5.618.87 8.502l.006.985c-.018 1.628-.077 2.991-.792 4.467-1.005 2.081-.54 4.252-.333 6.486.195 2.285.181 4.555.142 6.847l1.303-.432c.319-.87.319-.87.435-1.728 2.877-.485 2.877-.485 4.343 0l.38.864c.411.937.411.937 1.357 1.215 1.151.071 2.048-.01 3.18-.167 2.875-.3 5.635.057 8.492.41l1.592.182c4.159.487 4.159.487 5.846.951l-.434.864-.928.033q-2.115.076-4.23.156l-1.459.051c-4.775.093-4.775.094-9.471.852-1.294.31-2.567.229-3.89.203l-.435-1.295c-2.305.115-2.305.115-4.044 1.511l-.734 1.08-.868.432c-.65 2.022-.46 4.16-.41 6.257l.022 1.255.055 2.718q.046 2.205.088 4.408.06 3.187.124 6.373.16 8.008.304 16.015l.03 1.735a2876 2876 0 0 1 .376 27.762q.068 7.455.12 14.91l.043 5.442q.014 1.858.023 3.716l.018 2.218.003 1.005c.015 1.476.112 2.791.507 4.213a114 114 0 0 1-.435 2.159l.435.864-.435 1.295a40 40 0 0 0-.009 2.249l.026 1.388.036 1.497.03 1.533q.051 2.43.108 4.858l.068 3.291q.084 4.035.176 8.072l.996.259 1.306.344 1.294.34c1.181.352 1.181.352 2.576 1.059 1.529.743 2.83.815 4.523.94 2.965.273 5.09 1.1 7.707 2.555 2.058.988 3.763.832 5.92.117.098-1.642.143-2.744-.62-4.226-1.432-2.908-2.025-6.923-1.118-10.079.939-2.193 2.417-3.235 4.479-4.399 2.542-.647 4.667-.697 6.976.648 1.939 1.357 2.817 2.815 3.312 5.101.223 3.434-.419 6.613-1.303 9.932l-.435.432a64 64 0 0 0 0 2.591c2.952 1.195 5.763 1.567 8.916 1.804 2.852.248 5.029.98 6.991 3.162 2.833 3.408 3.502 7.601 4.072 11.876l1.471.139c2.165.271 4.186.865 6.265 1.507l1.087.324a79 79 0 0 1 5.681 1.961c2.507.92 4.943 1.218 7.592 1.467 7.794.86 15.006 2.889 20.467 8.852 1.426 1.808 2.691 3.662 3.908 5.614l.65 1.031c.605 1.073 1.072 2.141 1.522 3.288l.612 1.545c2.899 8.367 1.907 18.22 1.224 26.914a82 82 0 0 0-.207 5.467l-.027.986c-.015 2.037.351 3.126 1.438 4.817-.034.954-.034.954-.434 1.727-.726.395-.726.395-1.629.702-2.126.933-2.672 2.334-3.495 4.418-.522.926-.522.926-1.314 1.226-1.06.148-1.673.022-2.688-.298l-.998-.3q-1.02-.319-2.039-.641c-1.763-.527-3.26-.841-5.108-.777-1.719.054-2.639-.247-4.037-1.307l-.993-.729-.718-.567c.168 4.457.517 8.875 1.032 13.306l.167 1.442c.274 2.293.58 4.573.959 6.851l.2 1.228q.187 1.126.4 2.247c.432 2.6.012 4.466-1.02 6.882l-1.466.135-1.575.297c-.989 1.157-.989 1.157-.733 2.133l.299.89.434 1.728.951-.243c1.221-.189 1.221-.189 2.166.005 1.855.359 3.735.375 5.62.423 1.939.087 3.15.423 4.727 1.542l.896.405c1.05.572 1.766 1.32 2.579 2.186l-.435.864.869.863c-1.651.547-3.207.509-4.928.521l-1.148.013q-1.94.02-3.879.035l-2.85.027q-3.989.037-7.977.066l-5.078.041c-39.587.319-79.178.199-118.767.161-.571-1.137-.324-1.642-.027-2.861l.256-1.07.206-.819h.868v-.864c.997-.495 1.59-.491 2.698-.508l1.096-.031q1.14-.027 2.283-.04c2.237-.054 2.237-.054 4.152-1.115.645-.853.645-.853.982-1.734.674-1.164 1.638-1.642 2.738-2.376 2.06-1.696 3.662-4.282 3.992-6.929.55-6.698.884-13.45-.716-20.019-.36-1.713-.33-3.304-.281-5.044-.012-2.528-.797-4.8-1.688-7.142-1.56-4.159-2.697-8.266-2.77-12.712-.098-2.165-.35-3.155-1.954-4.643l-.953-.802c-3.5-3.203-5.81-10.84-6.538-15.5-.012-.956.038-1.894.1-2.848.288-4.688-.9-7.836-3.14-11.892-1.763-3.267-2.938-6.82-4.04-10.35-.4-1.251-.659-2.036-1.607-2.979a856 856 0 0 0-1.113 5.263l-.325 1.506-.3 1.454-.283 1.337c-.218 1.231-.218 1.231.102 2.404l.182.991a54 54 0 0 1-1.622 1.812c-.872 1.236-.964 2.557-1.135 4.033-.386 1.45-.923 2.195-2.02 3.224-1.375.241-1.375.241-2.878.189l-1.51-.029c-1.259-.16-1.259-.16-2.127-1.024l-.38-1.43c-.364-1.622-.364-1.622-1.493-2.619l-.733-1.133c.193-.8.193-.8.57-1.727 1.303-3.273.812-6.781-.516-9.987l-.47-1.037c-.65-1.533-1.027-3.115-1.438-4.725a15 15 0 0 0-1.078-2.686c-.812-2.139-.555-3.839.353-5.964l.407-.648-3.474-.864c.027-.945.027-.945.434-2.159 1.309-1.207 2.652-2.03 4.343-2.591l-1.248-.972c-1.065-.891-1.813-1.558-2.226-2.915-.054-1.403-.054-1.403 0-2.591l3.52.633q1.717.316 3.429.663l.678-1.458c1.984-3.93 4.33-7.647 8.704-9.102 6.65-1.508 13.518 1.395 19.56 3.937 1.324.524 2.602.891 3.984 1.225 1.039.283 1.039.283 1.819.648q.458 1.287.869 2.591c.889.426 1.788.649 2.74.91 4.674 1.539 8.706 4.946 12.223 8.27l.8.753q.773.734 1.534 1.482c1.766 1.686 3.488 2.698 5.721 3.699-.52-2.445-1.109-3.242-3.04-4.75-2.542-3.148-3.755-6.508-4.777-10.364l-.455-1.341c-.926-2.916-.824-4.455.404-7.227.606-1.705.781-3.323.946-5.116.467-4.904 1.038-9.828 3.013-14.386q.478-1.186.95-2.375l.788-1.943h.868V35.843l-8.686-1.728-1.303-.863a25.5 25.5 0 0 1-.434-3.401l-.1-.943c-.063-.916-.063-.916.1-2.566 1.49-1.61 2.8-2.097 4.937-2.216l1.089.003 1.082-.003c1.275.063 2.495.26 3.75.489q-.075-1.741-.163-3.482l-.041-.984c-.082-1.564-.23-2.873-.682-4.385-.865-3.136-.383-6.21.18-9.367l.166-1.005c.322-1.865.75-3.609 1.408-5.392zm8.138 227.969a21.2 21.2 0 0 0-4.664.474q-.017 6.721-.026 13.442v1.106c-.012 10.725.036 21.447.228 32.171l.016.864q.1 5.574.217 11.147 1.644.014 3.29.021l1.352.006 1.325.011 1.285.004c3.307.019 4.813-.642 7.949-2.201l-.435-15.978 2.172-1.296c.217-1.459-.005-2.618-.285-4.063-.625-2.69-1.105-5.171-1.072-7.947.037-1.304.064-2.561-.053-3.86-.218-1.755-.36-3.316-.11-5.074l.217-1.511c-.434-.864-.434-.864-1.764-1.35l-1.276-.378q.014-2.588.021-5.177l.006-2.11.014-3.115.001-.984c.01-1.452.19-2.836-.477-4.16q-1.8-.013-3.599-.021l-1.477-.006-1.45-.011zm-13.684.863c-1.237-.008-1.94.076-3.14.474-.944.718-1.263 1.144-1.564 2.297l-.136 1.184-.159 1.329-.15 1.425a172 172 0 0 0-.955 12.535 207 207 0 0 1-.615 10.065c-.5 5.579-.832 11.093-.791 16.698l.02 1.582.018 1.466c.026 1.419.008 2.317-.446 3.672-1.162.906-1.162.906-2.145.982-.905.044-1.747.117-2.632.313-.869.891-.869.891-1.303 1.728l1.303 2.591h19.978a4167 4167 0 0 1-.838-35.265l-.148-7.308-.287-14.226-.03-1.499q-1.358-.013-2.715-.022l-1.112-.005-1.097-.011zm58.098 40.204c-2.383 0-4.635 1.4-6.054 3.265l-.461 1.053-.516.998-.353.729h-.868c-3.548 1.704-6.376 3.671-9.121 6.478 2.103.469 4.118.957 6.042 1.943 2.901 1.615 5.18 2.264 8.511 2.37l1.517.005c1.738.021 3.474.029 5.212 0 .271-6.288-1.52-11.143-3.909-16.841m18.675-12.092c-.868 0-.868 0-1.579.322l-1.027.542c-2.355 1.112-4.853 2.258-6.514 4.318-.564 1.781-.564 1.781.084 5.535.222 1.106.373 2.116.455 3.249.121 2.688.582 5.259 1.151 7.886.481 1.036.481 1.036 1.513 1.543 1.132.298 1.132.298 1.975.898 2.166 1.542 3.915 1.94 6.548 2.049 1.459-2.407 1.938-4.09 1.824-6.895l-.087-1.256c-.374-6.423-1.539-12.364-4.343-18.191m-34.31 7.773c-1.224 1.409-2.248 2.625-3.041 4.319 2.332.294 4.624.485 6.973.531 1.446-.17 1.446-.17 3.451-2.259-2.34-1.32-4.784-1.942-7.383-2.591m9.989-15.114c-.488.485-.488.485-1.792 2.537q-.84 1.323-1.683 2.645l-.846 1.295-.809 1.242c-.934 1.423-1.664 2.776-2.254 4.372q1.182.53 2.364 1.054l.975.431c1.873.84 3.71 1.788 5.782 1.97 1.004-.621 1.004-.621 1.737-1.295-.518-3.039-.518-3.039-.597-6.127a38 38 0 0 0-.271-3.806l-1.303-.863-.244-1.539-.191-1.484zm-3.475-4.75c-4.402-.11-8.934.559-13.03 2.159-.404 3.031-.471 5.885-.175 8.922l.121 1.118c.141 1.303-.023 3.27.923 4.211 1.493-.336 2.697-.46 3.713-1.654l.631-.937c1.856-2.468 3.517-5.04 5.136-7.666l.727-1.187.728-1.174.67-1.107c.61-.999.61-.999.991-1.822zm13.464-4.319c.286 2.039.481 4.139 1.201 6.078.639 1.337.994 2.312 1.188 3.801.168 1.709.609 3.26 1.123 4.897.397.771.397.77 1.7 1.202a37 37 0 0 0 2.276-1.497l.846-.635q1.484-1.085 2.958-2.186c-.41-1.293-.758-2.057-1.766-2.989a51.3 51.3 0 0 1-6.493-5.624q-.787-.812-1.588-1.613l-.603-.597zm-53.855-63.912c1.596.52 3.024.995 4.423 1.928 2.387 1.73 4.367 2.469 7.304 2.822l-.046-.985c-.389-1.174-.389-1.174-1.578-1.97l-1.552-.715a150 150 0 0 0-8.551-3.671z"/></svg>