<?xml version="1.0" encoding="utf-8"?><svg viewBox="0 0 30 31" xmlns="http://www.w3.org/2000/svg" xmlns:xlink="http://www.w3.org/1999/xlink"><style>:root>svg{display:none}:root>svg:target{display:block}</style><svg fill="none" viewBox="0 0 16 22" id="arrow-up" xmlns="http://www.w3.org/2000/svg"><path d="M9.031.585a1.444 1.444 0 0 0-.477-.303 1.358 1.358 0 0 0-1.097 0c-.178.069-.34.172-.477.303L1.202 6.363a1.45 1.45 0 0 0 2.051 2.051l3.308-3.322v15.297a1.444 1.444 0 1 0 2.889 0V5.092l3.308 3.322a1.45 1.45 0 0 0 2.05-2.051L9.032.585Z" fill="currentColor"/></svg><svg fill="none" viewBox="0 0 30 30" id="search" xmlns="http://www.w3.org/2000/svg"><path d="M13 2c6.075 0 11 4.925 11 11 0 2.825-1.066 5.4-2.816 7.348l6.277 6.765-1.934 1.794-6.329-6.821A10.946 10.946 0 0 1 13 24C6.925 24 2 19.075 2 13S6.925 2 13 2Zm0 2a9 9 0 1 0 0 18 9 9 0 0 0 0-18Z" fill="currentColor"/></svg><svg fill="none" viewBox="0 0 30 31" id="tg" xmlns="http://www.w3.org/2000/svg"><path d="M1.84 13.752s13.268-6.585 17.87-8.904C21.472 3.92 27.454.952 27.454.952s2.762-1.299 2.531 1.855c-.076 1.299-.69 5.844-1.303 10.76-.92 6.956-1.918 14.562-1.918 14.562s-.153 2.133-1.457 2.505c-1.304.37-3.451-1.299-3.835-1.67-.306-.278-5.752-4.452-7.746-6.493-.537-.556-1.15-1.67.077-2.968 2.76-3.06 6.059-6.864 8.053-9.275.92-1.113 1.84-3.71-1.994-.557-5.446 4.545-10.814 8.812-10.814 8.812s-1.228.928-3.528.093C3.22 17.74.535 16.628.535 16.628s-1.84-1.392 1.304-2.876Z" fill="#39CAF8"/></svg></svg>