<svg width="20" height="30" viewBox="0 0 20 30" fill="none" xmlns="http://www.w3.org/2000/svg">
<path d="M4.4663 6.30418L12.6315 14.4378L4.41075 22.6266C4.2806 22.7552 4.17729 22.9082 4.10679 23.0768C4.03629 23.2453 4 23.4261 4 23.6087C4 23.7913 4.03629 23.9721 4.10679 24.1407C4.17729 24.3093 4.2806 24.4622 4.41075 24.5908C4.53985 24.7205 4.69343 24.8234 4.86264 24.8936C5.03187 24.9638 5.21337 25 5.39668 25C5.58 25 5.7615 24.9638 5.93071 24.8936C6.09994 24.8234 6.25353 24.7205 6.3826 24.5908L15.5892 15.4199C15.7194 15.2913 15.8227 15.1383 15.8932 14.9697C15.9637 14.8012 16 14.6204 16 14.4378C16 14.2552 15.9637 14.0744 15.8932 13.9058C15.8227 13.7372 15.7194 13.5842 15.5892 13.4556L14.6033 12.5427L6.43815 4.40914C6.30907 4.27954 6.15548 4.17658 5.98627 4.10638C5.81704 4.03618 5.63554 4 5.45223 4C5.26891 4 5.08741 4.03618 4.9182 4.10638C4.74897 4.17658 4.59539 4.27954 4.4663 4.40914C4.22416 4.66564 4.08935 5.00458 4.08935 5.35666C4.08935 5.70874 4.22416 6.04768 4.4663 6.30418Z" fill="currentColor"/>
</svg>
