<svg width="20" height="30" viewBox="0 0 20 30" fill="none" xmlns="http://www.w3.org/2000/svg">
<path d="M15.5337 22.6958L7.36854 14.5622L15.5892 6.37338C15.7194 6.24479 15.8227 6.0918 15.8932 5.92323C15.9637 5.75468 16 5.57387 16 5.39127C16 5.20867 15.9637 5.02787 15.8932 4.85931C15.8227 4.69074 15.7194 4.53776 15.5892 4.40916C15.4602 4.27951 15.3066 4.17661 15.1374 4.10638C14.9681 4.03616 14.7866 4 14.6033 4C14.42 4 14.2385 4.03616 14.0693 4.10638C13.9001 4.17661 13.7465 4.27951 13.6174 4.40916L4.41076 13.5801C4.2806 13.7087 4.1773 13.8617 4.1068 14.0303C4.03631 14.1988 4 14.3796 4 14.5622C4 14.7448 4.03631 14.9256 4.1068 15.0942C4.1773 15.2628 4.2806 15.4158 4.41076 15.5444L5.3967 16.4573L13.5619 24.5909C13.6909 24.7205 13.8445 24.8234 14.0137 24.8936C14.183 24.9638 14.3645 25 14.5478 25C14.7311 25 14.9126 24.9638 15.0818 24.8936C15.251 24.8234 15.4046 24.7205 15.5337 24.5909C15.7758 24.3344 15.9107 23.9954 15.9107 23.6433C15.9107 23.2913 15.7758 22.9523 15.5337 22.6958Z" fill="currentColor"/>
</svg>
