<svg width="30" height="31" viewBox="0 0 30 31" fill="none" xmlns="http://www.w3.org/2000/svg">
<path d="M1.83917 13.752C1.83917 13.752 15.1075 7.16656 19.7092 4.84767C21.4732 3.92006 27.4554 0.95186 27.4554 0.95186C27.4554 0.95186 30.2165 -0.346742 29.9864 2.80708C29.9097 4.10568 29.296 8.65053 28.6827 13.5666C27.7624 20.5231 26.7652 28.1291 26.7652 28.1291C26.7652 28.1291 26.612 30.2623 25.3081 30.6336C24.0041 31.0046 21.8568 29.3352 21.4734 28.964C21.1666 28.6859 15.7211 24.5118 13.7272 22.4712C13.1903 21.9149 12.5768 20.8016 13.8038 19.5033C16.5649 16.4424 19.8629 12.6395 21.8568 10.228C22.7771 9.11472 23.6974 6.51778 19.8627 9.67134C14.4174 14.2162 9.04867 18.483 9.04867 18.483C9.04867 18.483 7.8214 19.4106 5.52077 18.5757C3.21993 17.741 0.53547 16.6278 0.53547 16.6278C0.53547 16.6278 -1.30533 15.236 1.83917 13.752Z" fill="#39CAF8"/>
</svg>
