<svg width="345" height="167" viewBox="0 0 345 167" fill="none" xmlns="http://www.w3.org/2000/svg">
<g clip-path="url(#clip0_92_1788)">
<g clip-path="url(#clip1_92_1788)">
<path d="M58.3551 0C58.4748 0.406921 58.5921 0.814503 58.7086 1.22232L58.9073 1.90988C59.2867 3.5045 59.3924 5.09012 59.4 6.72278C59.401 6.90679 59.402 7.0909 59.403 7.28045C59.3931 8.20233 59.3597 8.97396 58.9545 9.80915C58.3856 10.9877 58.6486 12.2162 58.7662 13.4809C58.8768 14.7748 58.8687 16.0596 58.8468 17.357L59.5844 17.1125C59.7646 16.6199 59.7646 16.6199 59.8303 16.1347C61.4591 15.8597 61.4591 15.8597 62.2889 16.1347L62.5041 16.6236C62.7369 17.154 62.7369 17.154 63.2724 17.3112C63.9239 17.3516 64.4317 17.3057 65.0721 17.2166C66.7003 17.0471 68.2625 17.2494 69.88 17.4487L70.7809 17.5518C73.1353 17.8275 73.1353 17.8275 74.0905 18.0904L73.8446 18.5793C73.6713 18.5855 73.498 18.5916 73.3195 18.5979C72.5214 18.6266 71.7231 18.6564 70.925 18.6863L70.0991 18.7154C67.3956 18.7682 67.3956 18.7683 64.7373 19.1976C64.0051 19.3728 63.284 19.327 62.5348 19.3127L62.2889 18.5793C60.9844 18.6444 60.9844 18.6444 59.9994 19.4349L59.5844 20.0461L59.0927 20.2906C58.7251 21.4357 58.8325 22.646 58.8603 23.8329C58.8645 24.0673 58.8689 24.3017 58.8734 24.5433C58.8832 25.0562 58.8935 25.5691 58.9043 26.0819C58.922 26.9139 58.9383 27.7458 58.954 28.5774C58.9769 29.7802 59.0005 30.9827 59.0246 32.1853C59.0851 35.2073 59.1414 38.2294 59.1962 41.2515C59.2021 41.5788 59.208 41.9062 59.2139 42.2335C59.3041 47.1756 59.373 52.1177 59.4182 57.0605C59.4209 57.3539 59.4236 57.6472 59.4263 57.9494C59.4519 60.7629 59.475 63.5767 59.4947 66.3903C59.502 67.4173 59.5099 68.444 59.5183 69.471C59.5237 70.1721 59.5276 70.8733 59.5315 71.5744C59.535 71.9929 59.5382 72.4114 59.5416 72.83C59.5426 73.1116 59.5426 73.1116 59.5436 73.3991C59.5517 74.2347 59.6068 74.9793 59.8303 75.7841C59.7521 76.1923 59.6705 76.5999 59.5844 77.0064L59.8303 77.4953L59.5844 78.2287C59.5697 78.6526 59.5699 79.0773 59.5792 79.5014C59.5842 79.7608 59.5888 80.0202 59.594 80.2874C59.6041 80.7066 59.6041 80.7066 59.6142 81.1347C59.6201 81.4212 59.6257 81.7077 59.6316 82.0028C59.6505 82.9195 59.6712 83.8363 59.6921 84.753C59.7051 85.3737 59.7179 85.9946 59.7309 86.6156C59.7627 88.1388 59.7959 89.6621 59.8303 91.1854C60.1093 91.2577 60.1093 91.2577 60.394 91.3318C60.6379 91.3961 60.8821 91.4606 61.1334 91.5269C61.375 91.5904 61.617 91.6537 61.866 91.7193C62.5348 91.9187 62.5348 91.9187 63.3243 92.3189C64.1897 92.7394 64.9268 92.7802 65.8847 92.8506C67.5632 93.0056 68.766 93.4735 70.2479 94.2974C71.4128 94.8567 72.378 94.768 73.5988 94.3634C73.6548 93.4339 73.6801 92.8103 73.2482 91.9713C72.4375 90.3251 72.1019 88.052 72.6153 86.2655C73.1469 85.0239 73.9833 84.434 75.1507 83.7751C76.5897 83.4089 77.7927 83.3806 79.1 84.1418C80.1978 84.9099 80.6949 85.7353 80.9747 87.0294C81.1009 88.9737 80.738 90.7734 80.2371 92.6521L79.9913 92.8966C79.9812 93.3855 79.9807 93.8745 79.9913 94.3634C81.6619 95.0401 83.2532 95.2503 85.0382 95.3848C86.653 95.5248 87.8853 95.9395 88.9961 97.1747C90.5999 99.1038 90.9783 101.478 91.3011 103.898L92.1339 103.977C93.3592 104.13 94.5038 104.466 95.6805 104.829L96.2956 105.013C97.387 105.344 98.4494 105.71 99.5118 106.123C100.931 106.644 102.31 106.813 103.81 106.953C108.222 107.441 112.304 108.589 115.396 111.965C116.203 112.988 116.92 114.038 117.609 115.143L117.977 115.726C118.319 116.334 118.583 116.938 118.838 117.588L119.185 118.462C120.826 123.199 120.264 128.777 119.878 133.698C119.801 134.731 119.767 135.759 119.76 136.793L119.745 137.352C119.736 138.504 119.943 139.121 120.559 140.078C120.54 140.619 120.54 140.619 120.313 141.056C119.902 141.28 119.902 141.28 119.391 141.453C118.188 141.981 117.878 142.775 117.413 143.954C117.117 144.479 117.117 144.479 116.669 144.649C116.069 144.732 115.722 144.661 115.147 144.48L114.582 144.31C114.197 144.19 113.812 144.069 113.428 143.947C112.43 143.649 111.582 143.471 110.536 143.507C109.563 143.538 109.042 143.367 108.251 142.767L107.689 142.355L107.282 142.034C107.378 144.557 107.575 147.058 107.866 149.566C107.898 149.836 107.929 150.105 107.961 150.383C108.116 151.681 108.289 152.972 108.504 154.261C108.541 154.49 108.579 154.72 108.617 154.956C108.688 155.381 108.763 155.805 108.844 156.228C109.088 157.7 108.851 158.757 108.266 160.124L107.436 160.201L106.545 160.369C105.985 161.024 105.985 161.024 106.13 161.576L106.299 162.08L106.545 163.058L107.083 162.921C107.774 162.814 107.774 162.814 108.309 162.923C109.359 163.127 110.424 163.136 111.491 163.163C112.588 163.212 113.274 163.402 114.167 164.036L114.674 164.265C115.268 164.589 115.673 165.012 116.134 165.503L115.888 165.992L116.379 166.48C115.445 166.79 114.564 166.768 113.59 166.775C113.268 166.779 113.268 166.779 112.94 166.782C112.208 166.79 111.476 166.796 110.744 166.802C110.206 166.807 109.668 166.813 109.131 166.818C107.625 166.832 106.12 166.844 104.615 166.855C103.657 166.862 102.698 166.87 101.74 166.878C79.3299 167.059 56.9173 166.991 34.5061 166.969C34.1825 166.326 34.3222 166.04 34.4907 165.35L34.6357 164.744L34.752 164.28H35.2437V163.791C35.8077 163.511 36.1436 163.513 36.7707 163.504L37.3912 163.486C37.822 163.476 38.2529 163.468 38.6839 163.463C39.9499 163.433 39.9499 163.433 41.034 162.833C41.3994 162.35 41.3994 162.35 41.5901 161.851C41.9717 161.192 42.5171 160.921 43.1402 160.506C44.3062 159.546 45.2133 158.082 45.3999 156.583C45.7109 152.791 45.9003 148.969 44.9947 145.25C44.7909 144.281 44.8076 143.38 44.8354 142.395C44.8285 140.964 44.3845 139.678 43.8797 138.352C42.9968 135.998 42.353 133.672 42.3123 131.155C42.2565 129.93 42.1137 129.369 41.2059 128.527L40.6662 128.073C38.6845 126.26 37.3772 121.937 36.9647 119.299C36.9583 118.758 36.9866 118.226 37.0216 117.686C37.1849 115.033 36.5126 113.25 35.2437 110.954C34.2462 109.105 33.5809 107.093 32.9567 105.095C32.7306 104.387 32.5842 103.942 32.0474 103.409C31.8335 104.401 31.625 105.394 31.4174 106.388L31.2335 107.24L31.063 108.064C31.0102 108.314 30.9575 108.563 30.9031 108.821C30.7797 109.517 30.7796 109.517 30.9612 110.181C30.9951 110.367 31.0291 110.552 31.064 110.743C30.7637 111.089 30.4616 111.435 30.1458 111.768C29.652 112.468 29.6003 113.216 29.5033 114.051C29.2848 114.872 28.9809 115.294 28.3594 115.876C27.5815 116.013 27.5815 116.013 26.7306 115.983L25.8758 115.967C25.1632 115.876 25.1632 115.876 24.6715 115.387L24.4563 114.578C24.2503 113.659 24.2503 113.659 23.6112 113.096L23.1963 112.454C23.3057 112.001 23.3057 112.001 23.519 111.476C24.2567 109.623 23.9786 107.638 23.227 105.823L22.961 105.235C22.5927 104.367 22.3795 103.472 22.1465 102.561C21.9872 102.012 21.7934 101.549 21.5367 101.04C21.077 99.8291 21.2222 98.8669 21.7364 97.6637L21.9669 97.297L20 96.808C20.0154 96.2732 20.0154 96.2732 20.2459 95.5857C20.9867 94.9022 21.7471 94.4362 22.7045 94.1189L21.9977 93.5689C21.395 93.0643 20.9717 92.6869 20.7376 91.9187C20.7069 91.1242 20.7069 91.1242 20.7376 90.452L22.7305 90.8101C23.3788 90.9292 24.0253 91.0551 24.6715 91.1854L25.0556 90.3603C26.1785 88.1352 27.507 86.0311 29.9825 85.2075C33.7476 84.3538 37.6354 85.9973 41.0551 87.4362C41.8054 87.7325 42.5284 87.9403 43.3112 88.1295C43.8989 88.2899 43.8989 88.2899 44.3407 88.4962C44.5138 88.982 44.6778 89.4712 44.8325 89.963C45.336 90.2046 45.8447 90.3307 46.3836 90.4786C49.0299 91.3494 51.312 93.2782 53.3033 95.1599C53.4525 95.3004 53.602 95.4412 53.7559 95.5862C54.0478 95.8634 54.3376 96.1429 54.6248 96.425C55.624 97.3796 56.5989 97.9526 57.8633 98.5193C57.5688 97.1354 57.2356 96.6841 56.1423 95.8302C54.7032 94.0483 54.0163 92.1461 53.4378 89.963L53.1803 89.204C52.6564 87.5533 52.7142 86.6818 53.409 85.1128C53.752 84.1477 53.8513 83.2315 53.9447 82.2164C54.2088 79.4403 54.5321 76.6529 55.6506 74.0728C55.8308 73.625 56.01 73.1769 56.1885 72.7283C56.3368 72.3616 56.4853 71.9949 56.634 71.6282H57.1257V20.2906L52.2084 19.3127L51.4708 18.8238C51.342 18.1616 51.2665 17.5664 51.225 16.8986L51.1684 16.3648C51.1328 15.8463 51.1328 15.8463 51.225 14.9123C52.0685 14.0007 52.8098 13.7251 54.0197 13.6576L54.6364 13.6595L55.2491 13.6576C55.9707 13.6937 56.6616 13.8048 57.3716 13.9345C57.3433 13.2773 57.3121 12.6205 57.2794 11.9635L57.2563 11.4063C57.2101 10.5212 57.126 9.77974 56.8703 8.92392C56.3805 7.14849 56.6534 5.4082 56.9721 3.62113L57.0662 3.05246C57.2482 1.99647 57.4909 1.00959 57.8633 0H58.3551ZM62.9621 129.053C62.0399 129.049 61.2231 129.132 60.322 129.322C60.3149 131.858 60.3102 134.395 60.3073 136.932C60.3073 137.144 60.3068 137.351 60.3068 137.557C60.3004 143.629 60.3274 149.699 60.4361 155.77C60.439 155.936 60.442 156.097 60.4449 156.259C60.483 158.362 60.5236 160.466 60.5679 162.569C61.1887 162.574 61.8097 162.578 62.4305 162.581L63.1957 162.584L63.9461 162.591L64.6736 162.593C66.5454 162.604 67.3978 162.23 69.1732 161.347L68.9273 152.302L70.1566 151.568C70.2796 150.742 70.1537 150.086 69.9953 149.268C69.6415 147.745 69.3696 146.341 69.3883 144.769C69.4092 144.031 69.4247 143.32 69.3586 142.584C69.2351 141.591 69.1542 140.707 69.2961 139.712L69.419 138.856C69.1732 138.367 69.1732 138.367 68.4203 138.092L67.698 137.878C67.7031 136.901 67.7073 135.924 67.71 134.947C67.711 134.549 67.712 134.151 67.7132 133.753C67.7164 133.165 67.7196 132.577 67.7211 131.989C67.7213 131.8 67.7216 131.616 67.7221 131.432C67.7277 130.61 67.829 129.827 67.4521 129.077C66.773 129.072 66.0937 129.068 65.4146 129.065L64.5784 129.062L63.757 129.056L62.9621 129.053ZM55.2154 129.542C54.5154 129.537 54.1178 129.585 53.4378 129.811C52.9035 130.217 52.7228 130.458 52.5526 131.111C52.5266 131.339 52.501 131.56 52.4754 131.781C52.445 132.037 52.4152 132.285 52.3857 132.533C52.3567 132.808 52.3287 133.074 52.3006 133.34C52.0344 135.704 51.8536 138.06 51.76 140.436C51.6882 142.338 51.5766 144.238 51.4121 146.134C51.1293 149.292 50.9407 152.414 50.9639 155.587C50.9678 155.891 50.9717 156.187 50.9757 156.482C50.9791 156.764 50.9825 157.038 50.9857 157.312C51.0005 158.116 50.9904 158.624 50.7332 159.391C50.0753 159.904 50.0753 159.904 49.5191 159.947C49.0068 159.972 48.5298 160.013 48.0287 160.124C47.537 160.628 47.537 160.629 47.2911 161.102L48.0287 162.569H59.3385C59.1487 155.915 58.9975 149.261 58.864 142.606C58.8365 141.227 58.8085 139.848 58.7804 138.469C58.7261 135.784 58.6718 133.1 58.6179 130.415C58.6123 130.126 58.6066 129.846 58.6009 129.566C58.0886 129.562 57.5762 129.557 57.0638 129.554L56.4344 129.551L55.8133 129.545L55.2154 129.542ZM88.1049 152.302C86.756 152.302 85.4812 153.094 84.678 154.15L84.4169 154.746L84.1248 155.311L83.9251 155.724H83.4334C81.4252 156.689 79.8241 157.802 78.2702 159.391C79.4607 159.657 80.601 159.933 81.6902 160.491C83.3328 161.405 84.6229 161.772 86.5087 161.833L87.3672 161.836C88.3512 161.847 89.3337 161.852 90.3176 161.836C90.4713 158.276 89.4576 155.527 88.1049 152.302ZM98.6771 145.457C98.1853 145.457 98.1853 145.457 97.7829 145.639L97.2019 145.945C95.8686 146.575 94.4546 147.224 93.5139 148.39C93.1948 149.398 93.1948 149.398 93.5618 151.523C93.6875 152.15 93.7726 152.721 93.8193 153.363C93.8876 154.884 94.1485 156.34 94.4706 157.827C94.7432 158.413 94.7432 158.413 95.3272 158.701C95.9679 158.869 95.9679 158.869 96.4451 159.209C97.6712 160.081 98.6616 160.307 100.152 160.369C100.978 159.006 101.249 158.053 101.185 156.465C101.168 156.224 101.152 155.989 101.136 155.755C100.924 152.118 100.264 148.755 98.6771 145.457ZM79.2537 149.857C78.5611 150.654 77.9813 151.343 77.5326 152.302C78.8527 152.468 80.1499 152.576 81.48 152.602C82.2985 152.506 82.2985 152.506 83.4334 151.324C82.1089 150.576 80.7254 150.224 79.2537 149.857ZM84.9086 141.301C84.6325 141.575 84.6325 141.575 83.8944 142.737C83.5772 143.236 83.2596 143.735 82.9417 144.234L82.4625 144.968L82.0044 145.67C81.4758 146.476 81.0628 147.242 80.7289 148.146C81.1746 148.345 81.6206 148.544 82.0671 148.742L82.6191 148.986C83.679 149.462 84.7193 149.998 85.8921 150.101C86.4605 149.75 86.4605 149.75 86.8755 149.368C86.5822 147.648 86.5822 147.648 86.5375 145.9C86.5212 145.166 86.4725 144.477 86.3838 143.745L85.6462 143.256L85.508 142.386L85.4003 141.545L84.9086 141.301ZM82.9417 138.612C80.4498 138.549 77.8837 138.928 75.5657 139.834C75.3365 141.55 75.2984 143.165 75.4664 144.885C75.4895 145.1 75.5123 145.309 75.535 145.518C75.6146 146.255 75.5219 147.369 76.0574 147.901C76.9022 147.711 77.584 147.641 78.1588 146.965L78.5161 146.434C79.5669 145.038 80.5073 143.582 81.4237 142.095C81.5636 141.867 81.6996 141.645 81.8353 141.423C81.9754 141.197 82.1114 140.977 82.2473 140.758C82.3762 140.545 82.5016 140.338 82.6267 140.132C82.9719 139.566 82.9719 139.566 83.1875 139.1L82.9417 138.612ZM90.5635 136.167C90.7255 137.321 90.8359 138.51 91.2436 139.607C91.6052 140.364 91.8064 140.916 91.9158 141.759C92.0109 142.727 92.2607 143.605 92.5516 144.531C92.7763 144.968 92.7763 144.968 93.5139 145.212C93.951 144.941 94.3865 144.667 94.8022 144.365L95.2812 144.005C95.8415 143.595 96.3999 143.183 96.956 142.767C96.7237 142.035 96.5267 141.603 95.9563 141.075C94.6213 140.103 93.4357 139.068 92.2806 137.892C91.9831 137.585 91.6839 137.28 91.3818 136.979L91.04 136.641L90.5635 136.167ZM60.0761 99.9861C60.9797 100.28 61.7879 100.549 62.58 101.078C63.9311 102.057 65.0522 102.475 66.7145 102.675L66.6887 102.118C66.4687 101.453 66.4687 101.453 65.7955 101.002L64.9167 100.597C63.3262 99.8516 61.7102 99.1649 60.0761 98.5193V99.9861Z" fill="#FCFCFC"/>
</g>
<g clip-path="url(#clip2_92_1788)">
<path d="M151.202 40.04C151.527 40.4125 150.755 40.768 148.886 41.1064C147.057 41.4448 145.249 41.6142 143.461 41.6142L142.425 41.5634C141.694 41.5297 141.328 40.04 141.328 37.0948C141.328 36.3161 141.389 34.6066 141.511 31.966L142.059 18.0015C138.809 20.1343 136.005 22.4701 133.648 25.0091C131.332 27.5481 130.174 29.8332 130.174 31.8644V33.6417C130.296 35.1651 130.479 36.4685 130.723 37.5518C130.966 38.6012 131.352 39.4307 131.881 40.04C132.206 40.4125 131.434 40.768 129.564 41.1064C127.736 41.4448 125.928 41.6142 124.14 41.6142L123.104 41.5634C122.372 41.5297 122.007 40.1245 122.007 37.3487C122.007 35.9607 122.068 34.6573 122.189 33.4386L122.25 31.966C122.25 31.3228 122.332 28.5637 122.494 23.6889C122.779 17.5953 122.921 13.279 122.921 10.74C122.921 8.67493 122.819 7.18537 122.616 6.27133C122.454 5.35729 121.966 4.46019 121.153 3.57999C120.91 3.27531 121.275 2.85214 122.25 2.31049C123.266 1.76884 124.485 1.29489 125.907 0.888652C127.37 0.448556 128.569 0.262364 129.504 0.330069C130.235 0.363922 130.601 1.95503 130.601 5.10339C130.601 6.38983 130.54 7.99785 130.418 9.92749C130.418 9.85977 130.377 11.4339 130.296 14.65C130.296 16.1734 130.255 18.5939 130.174 21.9116C131.718 20.5574 133.465 19.3387 135.416 18.2554C137.407 17.1721 139.642 16.1057 142.12 15.0563L142.242 11.5017C142.242 9.09807 142.141 7.42233 141.937 6.47445C141.775 5.49269 141.267 4.52787 140.414 3.57999C140.17 3.27531 140.556 2.85214 141.572 2.31049C142.587 1.76884 143.806 1.29489 145.229 0.888652C146.691 0.448556 147.89 0.262364 148.825 0.330069C149.556 0.363922 149.922 1.8704 149.922 4.84949C149.922 5.52657 149.841 7.21921 149.678 9.92749C149.637 12.4326 149.576 15.7672 149.495 19.9311C149.455 24.0951 149.434 27.4974 149.434 30.1379C149.434 32.6769 149.536 34.7589 149.739 36.3839C149.942 37.975 150.43 39.1937 151.202 40.04ZM177.605 24.7045C179.068 24.9076 179.799 25.8386 179.799 27.4974C179.799 28.2083 179.677 29.0038 179.434 29.884C178.702 32.423 177.422 34.4542 175.594 35.9776C173.806 37.501 171.551 38.8044 168.828 39.8877C166.147 40.937 163.566 41.4789 161.088 41.5126C160.925 41.5126 160.803 41.4956 160.722 41.4619C160.519 41.4619 160.417 41.4448 160.417 41.4111C160.133 40.2939 159.706 39.2275 159.137 38.2119C158.609 37.1625 157.837 35.8422 156.821 34.2511C155.44 32.1522 154.505 30.5442 154.017 29.427C152.595 26.0755 151.884 22.8425 151.884 19.728C151.884 18.3062 152.026 16.9521 152.311 15.6656C153.367 11.0616 155.48 7.67623 158.65 5.50963C161.128 3.88467 163.871 2.6321 166.878 1.75191C169.885 0.837868 172.892 0.431628 175.899 0.533188C176.061 0.533188 176.142 0.668604 176.142 0.939432V0.990208V1.19333C176.061 2.47976 175.594 4.42631 174.74 7.03303C173.928 9.63975 173.318 11.4339 172.912 12.4157C172.668 12.9235 172.323 13.1774 171.876 13.1774C171.348 13.1774 171.043 12.7712 170.962 11.9587C170.758 8.87805 169.783 6.10205 168.036 3.63077C165.354 4.17241 163.302 5.49269 161.88 7.59161C160.173 10.1306 159.361 13.2959 159.442 17.0875C159.442 21.1499 160.6 25.2123 162.916 29.2747C163.363 30.0871 163.973 31.0858 164.745 32.2707C165.598 33.6248 166.248 34.742 166.695 35.6222C167.183 36.4685 167.569 37.3656 167.853 38.3135C168.3 38.0765 168.788 37.7041 169.316 37.1963C169.844 36.6885 170.23 36.2146 170.474 35.7745C171.449 34.3188 172.059 32.7108 172.302 30.9504C172.384 30.2395 172.282 29.5455 171.998 28.8684C171.754 28.1913 171.266 27.802 170.535 27.7005C170.047 27.6328 170.271 27.345 171.205 26.8372C172.14 26.3294 172.648 26.0586 172.729 26.0247C172.932 25.957 173.359 25.7878 174.009 25.5169C174.7 25.2123 175.35 24.9922 175.959 24.8568C176.609 24.6875 177.158 24.6367 177.605 24.7045ZM212.84 0.736312C213.449 0.736312 213.754 0.837868 213.754 1.04099C213.754 2.76751 213.348 4.95105 212.535 7.59161C211.763 10.1983 211.093 12.111 210.523 13.3297C210.28 13.8037 209.954 14.0407 209.548 14.0407C209.304 14.0407 209.081 13.9391 208.878 13.736C208.715 13.5329 208.614 13.2282 208.573 12.8219C208.329 9.60587 207.171 6.55907 205.099 3.68155H201.198C201.239 4.08779 201.259 4.71409 201.259 5.56041C201.259 6.74529 201.198 8.25175 201.076 10.0798C201.036 11.1631 200.975 14.1422 200.893 19.0171C200.812 23.8581 200.771 27.5989 200.771 30.2395C200.771 32.7785 200.873 34.8605 201.076 36.4854C201.28 38.1104 201.767 39.346 202.539 40.1924C202.864 40.5649 202.092 40.9203 200.223 41.2587C198.394 41.5634 196.586 41.7158 194.798 41.7158L193.762 41.665C193.031 41.6313 192.665 40.1586 192.665 37.2471C192.665 36.4346 192.726 34.7081 192.848 32.0676L192.97 29.7317C193.01 28.4791 193.112 25.6016 193.275 21.0991C193.478 16.5966 193.579 13.4313 193.579 11.6032C193.579 9.74131 193.478 8.20097 193.275 6.98225C193.112 5.72969 192.787 4.62943 192.299 3.68155H188.46C186.753 6.99919 185.798 10.046 185.595 12.8219C185.554 13.6344 185.25 14.0407 184.681 14.0407C184.274 14.0407 183.949 13.8037 183.705 13.3297C183.096 11.9417 182.385 10.1475 181.572 7.94707C180.8 5.71275 180.414 3.98623 180.414 2.76751C180.414 2.192 181.145 1.75191 182.608 1.44723C184.071 1.14255 185.717 0.939428 187.545 0.837868C189.374 0.736312 190.288 0.702456 190.288 0.736312H212.84ZM242.032 12.2634C243.413 15.0732 244.104 18.0015 244.104 21.0483C244.104 21.5561 244.064 22.284 243.982 23.2318C243.576 27.1927 242.296 30.4257 240.142 32.9308C237.704 35.7745 234.108 38.1104 229.354 39.9385C228.339 40.4463 227.059 40.8862 225.514 41.2587C224.011 41.665 223.239 41.7665 223.198 41.5634C222.833 40.4463 222.345 39.3799 221.735 38.3643C221.126 37.3148 220.334 36.0792 219.358 34.6573C217.774 32.3553 216.656 30.4764 216.006 29.0208C214.909 26.651 214.361 24.0782 214.361 21.3022C214.361 20.1173 214.442 19.0509 214.604 18.1031C215.254 13.7698 216.717 10.3845 218.993 7.94707C220.699 6.11899 222.853 4.59559 225.453 3.37687C228.054 2.15815 230.898 1.22718 233.986 0.583968C234.312 0.516264 234.555 0.482412 234.718 0.482412C235.084 0.482412 235.287 0.516264 235.327 0.583968C235.653 1.66728 236.099 2.71673 236.668 3.73233C237.237 4.71409 238.05 5.96665 239.106 7.49005C239.31 7.79473 239.736 8.43793 240.386 9.41969C241.036 10.4014 241.585 11.3493 242.032 12.2634ZM234.84 32.0168C236.018 29.4778 236.607 26.7526 236.607 23.8412C236.607 20.2189 235.612 16.7151 233.621 13.3297C232.971 12.2464 232.3 11.2478 231.609 10.3337C231.447 10.0968 231.081 9.55509 230.512 8.70877C229.943 7.82857 229.436 7.01609 228.989 6.27133C228.582 5.49269 228.257 4.76487 228.013 4.08779C227.485 4.46019 227.038 4.84949 226.672 5.25573C225.494 6.54217 224.58 7.89629 223.93 9.31813C222.589 12.1956 221.918 15.344 221.918 18.7632C221.918 22.1147 222.812 25.3308 224.6 28.4114C224.925 28.953 225.677 30.1041 226.855 31.8644C227.505 32.8123 228.156 33.811 228.806 34.8605C229.456 35.9099 229.964 36.8917 230.329 37.8057C232.158 36.4177 233.661 34.4881 234.84 32.0168ZM266.556 24.806C266.921 24.8399 266.698 25.0938 265.885 25.5677C265.113 26.0417 264.585 26.3464 264.301 26.4818C262.35 27.362 260.806 27.802 259.668 27.802C258.328 27.802 257.271 27.5481 256.499 27.0403C255.727 26.4987 255.341 25.7878 255.341 24.9076C255.341 24.5352 255.442 24.0613 255.646 23.4857C255.849 22.9779 256.093 22.5379 256.377 22.1655C256.702 21.7931 257.149 21.3699 257.718 20.896C259.384 19.6095 260.766 18.1538 261.863 16.5289C262.96 14.8701 263.793 13.0758 264.362 11.1462C264.971 9.21657 265.276 7.26999 265.276 5.30651C265.276 4.59559 265.255 4.07085 265.215 3.73233H254.61C254.65 4.81565 254.63 6.33905 254.549 8.30253C254.508 8.77649 254.488 9.36891 254.488 10.0798L254.427 12.6696C254.427 15.818 254.447 18.3231 254.488 20.185L254.549 27.7513V29.4778C254.549 32.2537 254.65 34.505 254.853 36.2315C255.057 37.958 255.544 39.2783 256.316 40.1924C256.682 40.5649 255.93 40.9203 254.061 41.2587C252.192 41.5634 250.364 41.7158 248.575 41.7158L247.539 41.665C246.808 41.6313 246.442 40.2431 246.442 37.501C246.442 36.0453 246.503 34.7081 246.625 33.4894L246.686 32.0676C246.727 29.4947 246.767 26.2109 246.808 22.2162C246.889 18.1877 246.93 14.65 246.93 11.6032C246.93 9.26735 246.767 7.37155 246.442 5.91587C246.158 4.42631 245.609 3.2076 244.797 2.25971C244.471 1.88732 245.244 1.53186 247.113 1.19333C249.023 0.854796 250.851 0.702456 252.598 0.736312H272.59H272.956C273.89 0.736312 274.357 0.956356 274.357 1.39645C274.357 5.32345 273.586 8.48871 272.041 10.8923C270.538 13.2959 269.238 14.9885 268.141 15.9703C267.043 16.9521 266.393 17.5275 266.19 17.6968L265.215 18.4585C264.321 19.1356 263.712 19.7619 263.386 20.3374C263.061 20.9129 262.899 21.5223 262.899 22.1655C262.899 22.9441 263.204 23.5704 263.813 24.0443C264.463 24.5183 265.377 24.7722 266.556 24.806ZM305.101 40.04C305.426 40.4125 304.654 40.768 302.785 41.1064C300.956 41.4448 299.148 41.6142 297.36 41.6142L296.324 41.5634C295.593 41.5297 295.227 40.04 295.227 37.0948C295.227 36.3161 295.288 34.6066 295.41 31.966L295.959 18.0015C292.708 20.1343 289.904 22.4701 287.547 25.0091C285.231 27.5481 284.073 29.8332 284.073 31.8644V33.6417C284.195 35.1651 284.378 36.4685 284.622 37.5518C284.866 38.6012 285.252 39.4307 285.78 40.04C286.105 40.4125 285.333 40.768 283.464 41.1064C281.635 41.4448 279.827 41.6142 278.039 41.6142L277.003 41.5634C276.272 41.5297 275.906 40.1245 275.906 37.3487C275.906 35.9607 275.967 34.6573 276.089 33.4386L276.15 31.966C276.15 31.3228 276.231 28.5637 276.394 23.6889C276.678 17.5953 276.82 13.279 276.82 10.74C276.82 8.67493 276.719 7.18537 276.515 6.27133C276.353 5.35729 275.865 4.46019 275.053 3.57999C274.809 3.27531 275.175 2.85214 276.15 2.31049C277.165 1.76884 278.384 1.29489 279.807 0.888652C281.27 0.448556 282.468 0.262364 283.403 0.330069C284.134 0.363922 284.5 1.95503 284.5 5.10339C284.5 6.38983 284.439 7.99785 284.317 9.92749C284.317 9.85977 284.277 11.4339 284.195 14.65C284.195 16.1734 284.155 18.5939 284.073 21.9116C285.617 20.5574 287.365 19.3387 289.315 18.2554C291.306 17.1721 293.541 16.1057 296.02 15.0563L296.141 11.5017C296.141 9.09807 296.04 7.42233 295.837 6.47445C295.674 5.49269 295.166 4.52787 294.313 3.57999C294.069 3.27531 294.455 2.85214 295.471 2.31049C296.487 1.76884 297.706 1.29489 299.128 0.888652C300.591 0.448556 301.789 0.262364 302.724 0.330069C303.455 0.363922 303.821 1.8704 303.821 4.84949C303.821 5.52657 303.74 7.21921 303.577 9.92749C303.537 12.4326 303.476 15.7672 303.394 19.9311C303.354 24.0951 303.334 27.4974 303.334 30.1379C303.334 32.6769 303.435 34.7589 303.638 36.3839C303.842 37.975 304.329 39.1937 305.101 40.04ZM336.99 40.0908C337.315 40.4633 336.543 40.8188 334.674 41.1572C332.845 41.4619 331.037 41.6142 329.249 41.6142L328.213 41.5634C327.482 41.5297 327.116 40.0908 327.116 37.2471C327.116 36.5024 327.156 35.4868 327.238 34.2003L327.299 31.966L327.421 29.6301C327.461 28.3776 327.563 25.5 327.726 20.9975C327.929 16.495 328.03 13.3297 328.03 11.5017C328.03 9.67359 327.929 8.13325 327.726 6.88069C327.563 5.62813 327.258 4.52787 326.811 3.57999H316.267C316.673 5.50963 317.404 7.32077 318.461 9.01345C319.518 10.6722 320.899 12.3141 322.606 13.9391C322.809 14.1422 323.236 14.5485 323.886 15.1578C324.536 15.7672 325.064 16.3765 325.47 16.9859C325.877 17.5614 326.08 18.1031 326.08 18.6109C326.08 19.1187 325.897 19.5249 325.531 19.8296C325.369 19.965 324.617 20.5574 323.276 21.6069C321.773 22.6902 320.493 23.7227 319.436 24.7045C318.38 25.6523 317.404 26.8711 316.511 28.3606C315.82 29.6132 315.292 30.9166 314.926 32.2707C314.56 33.6248 314.377 34.9112 314.377 36.13C314.377 37.9919 314.723 39.3122 315.414 40.0908C315.739 40.4633 314.926 40.8188 312.976 41.1572C311.025 41.4619 309.136 41.6142 307.307 41.6142L306.271 41.5634C305.865 41.5634 305.702 41.1235 305.783 40.2431C305.783 39.7016 305.824 39.2614 305.905 38.9229C306.312 36.2823 306.921 34.0818 307.734 32.3215C308.587 30.5272 309.888 28.7669 311.635 27.0403C313.097 25.6185 314.601 24.3828 316.145 23.3334C317.689 22.284 318.522 21.7084 318.644 21.6069C318.928 21.336 318.623 20.659 317.73 19.5757C316.836 18.4924 315.881 17.4768 314.865 16.5289C312.793 14.5654 311.228 12.5342 310.172 10.4353C309.115 8.33637 308.506 6.01743 308.343 3.47843C308.303 2.90292 309.217 2.32742 311.086 1.75191C312.955 1.1764 314.479 0.820944 315.657 0.685532C315.983 0.651676 316.246 0.634752 316.45 0.634752C316.653 0.634752 316.775 0.634752 316.815 0.634752H332.114C332.48 0.600896 333.008 0.583968 333.699 0.583968C334.105 0.583968 334.41 0.600896 334.613 0.634752C335.344 0.668604 335.71 2.17508 335.71 5.15417C335.71 6.03437 335.67 7.08381 335.588 8.30253L335.527 9.97827C335.487 11.0616 335.426 14.0407 335.344 18.9155C335.263 23.7566 335.222 27.4974 335.222 30.1379C335.222 32.6769 335.324 34.7589 335.527 36.3839C335.73 38.0088 336.218 39.2445 336.99 40.0908Z" fill="#FCFCFC"/>
</g>
<g clip-path="url(#clip3_92_1788)">
<path d="M134.389 74.4258C134.535 74.6062 134.189 74.7784 133.353 74.9425C132.535 75.0901 131.725 75.1639 130.925 75.1639L130.462 75.1393C130.134 75.1229 129.971 74.4094 129.971 72.9987C129.971 72.605 129.998 71.7685 130.053 70.4891C130.253 65.1581 130.353 61.8529 130.353 60.5735C130.353 59.6713 130.316 58.9168 130.244 58.3099C130.171 57.703 130.034 57.1781 129.834 56.7352H125.661L125.689 57.5225C125.689 58.4411 125.652 59.212 125.579 59.8354C125.561 61.0492 125.534 62.6649 125.498 64.6824C125.479 66.6836 125.47 68.3239 125.47 69.6033C125.47 70.8335 125.516 71.8423 125.607 72.6296C125.698 73.417 125.916 74.0157 126.261 74.4258C126.407 74.6062 126.061 74.7784 125.225 74.9425C124.407 75.0901 123.597 75.1639 122.797 75.1639L122.334 75.1393C122.006 75.1229 121.843 74.4094 121.843 72.9987C121.843 72.605 121.87 71.7685 121.925 70.4891L121.979 69.3573C121.997 68.7503 122.043 67.3561 122.116 65.1745C122.206 62.9929 122.252 61.4593 122.252 60.5735C122.252 59.4581 122.179 58.5395 122.034 57.8178C121.906 57.0961 121.652 56.4974 121.27 56.0217C121.125 55.8412 121.47 55.6772 122.306 55.5296C123.143 55.3656 123.952 55.2835 124.734 55.2835L125.198 55.3082H132.344C132.471 55.2918 132.644 55.2835 132.862 55.2835C133.08 55.2835 133.235 55.2918 133.326 55.3082C133.653 55.3246 133.817 56.0545 133.817 57.4979C133.817 57.9244 133.798 58.4329 133.762 59.0234L133.735 59.8354C133.717 60.3603 133.689 61.8037 133.653 64.1657C133.617 66.5114 133.598 68.3239 133.598 69.6033C133.598 70.8335 133.644 71.8423 133.735 72.6296C133.826 73.417 134.044 74.0157 134.389 74.4258ZM146.349 67.2659C147.022 67.3807 147.358 67.84 147.358 68.6437C147.358 69.0866 147.276 69.5131 147.113 69.9232C146.767 70.9893 146.167 71.8587 145.312 72.5312C144.44 73.2201 143.421 73.8107 142.258 74.3027C141.112 74.7948 140.021 75.0491 138.985 75.0655C138.912 75.0655 138.857 75.0573 138.821 75.0409C138.73 75.0409 138.685 75.0327 138.685 75.0163C138.557 74.4914 138.357 73.9665 138.085 73.4416C137.812 72.9167 137.457 72.318 137.021 71.6455C136.348 70.6121 135.893 69.8001 135.657 69.2096C135.021 67.6185 134.702 66.0685 134.702 64.5594C134.702 63.8377 134.766 63.1652 134.893 62.5418C135.093 61.5741 135.448 60.6637 135.957 59.8108C136.466 58.9414 137.112 58.2115 137.894 57.621C138.985 56.8336 140.203 56.2267 141.548 55.8002C142.912 55.3574 144.267 55.1605 145.612 55.2097C145.685 55.2097 145.722 55.2835 145.722 55.4312V55.5296C145.703 56.1529 145.503 57.1125 145.122 58.4083C144.74 59.6877 144.449 60.5407 144.249 60.9672C144.14 61.2132 143.994 61.3362 143.812 61.3362C143.703 61.3362 143.612 61.287 143.54 61.1886C143.467 61.0738 143.421 60.9262 143.403 60.7457C143.294 59.171 142.849 57.8178 142.067 56.686C141.594 56.8172 141.112 57.0469 140.621 57.3749C140.13 57.6866 139.703 58.1049 139.339 58.6297C138.903 59.2859 138.575 60.0158 138.357 60.8195C138.157 61.6069 138.057 62.4106 138.057 63.2308C138.057 63.4932 138.066 63.6818 138.085 63.7967L138.248 63.6982C138.866 63.3702 139.594 63.1323 140.43 62.9847C141.267 62.8371 142.103 62.7633 142.94 62.7633C143.649 62.7633 144.249 62.8125 144.74 62.9109C145.249 62.9929 145.503 63.0995 145.503 63.2308C145.503 64.2477 144.912 65.2647 143.73 66.2817C143.476 66.5114 143.285 66.6262 143.158 66.6262C142.976 66.6262 142.858 66.4375 142.803 66.0603C142.639 64.8793 141.767 64.2888 140.185 64.2888C139.53 64.2888 138.848 64.379 138.139 64.5594C138.321 66.0357 138.803 67.5611 139.585 69.1358L140.457 70.5629C141.258 71.7439 141.767 72.7117 141.985 73.4662C142.221 73.3514 142.539 73.1135 142.94 72.7527C143.449 72.2278 143.785 71.4814 143.949 70.5137C143.967 70.4152 143.976 70.2512 143.976 70.0216C143.976 69.2342 143.712 68.7996 143.185 68.7175C143.021 68.6847 143.103 68.5617 143.43 68.3485C143.776 68.1188 144.031 67.9712 144.194 67.9056C144.285 67.8728 144.476 67.7908 144.767 67.6596C145.076 67.5119 145.367 67.4053 145.64 67.3397C145.913 67.2577 146.149 67.2331 146.349 67.2659ZM160.803 74.4258C160.949 74.6062 160.603 74.7784 159.767 74.9425C158.949 75.0901 158.139 75.1639 157.339 75.1639L156.876 75.1393C156.548 75.1229 156.385 74.434 156.385 73.0725C156.385 72.6789 156.412 71.8177 156.467 70.4891C156.557 68.3239 156.612 66.7492 156.63 65.765H151.721C151.702 66.946 151.693 68.2255 151.693 69.6033C151.693 70.8335 151.739 71.8423 151.83 72.6296C151.921 73.417 152.139 74.0157 152.484 74.4258C152.63 74.6062 152.284 74.7784 151.448 74.9425C150.63 75.0901 149.82 75.1639 149.02 75.1639L148.557 75.1393C148.229 75.1229 148.066 74.4094 148.066 72.9987C148.066 72.605 148.093 71.7685 148.148 70.4891L148.202 69.3573C148.22 68.7503 148.266 67.3561 148.338 65.1745C148.429 62.9929 148.475 61.4593 148.475 60.5735C148.475 59.4089 148.429 58.5969 148.338 58.1377C148.266 57.662 148.038 57.1945 147.657 56.7352C147.548 56.5876 147.72 56.3825 148.175 56.1201C148.629 55.8577 149.175 55.628 149.811 55.4312C150.466 55.2179 151.002 55.1277 151.421 55.1605C151.748 55.1769 151.912 55.9069 151.912 57.3503C151.912 57.6948 151.875 58.5231 151.802 59.8354L151.748 64.3134H156.685L156.767 60.2044C156.767 59.2038 156.721 58.4821 156.63 58.0392C156.557 57.5964 156.339 57.1617 155.976 56.7352C155.866 56.5876 156.03 56.3825 156.467 56.1201C156.921 55.8577 157.467 55.628 158.103 55.4312C158.758 55.2179 159.294 55.1277 159.712 55.1605C160.04 55.1769 160.203 55.9479 160.203 57.4733C160.203 58.1131 160.176 58.9004 160.121 59.8354L159.985 69.2342C159.985 70.5793 160.03 71.6701 160.121 72.5066C160.212 73.3432 160.44 73.9829 160.803 74.4258ZM172.081 66.0603C172.972 67.1429 173.417 68.2091 173.417 69.2588C173.417 69.7509 173.29 70.2676 173.035 70.8089C172.49 71.9243 171.58 72.8265 170.308 73.5154C169.053 74.1879 167.571 74.7538 165.862 75.2131C165.643 75.2623 165.471 75.2869 165.343 75.2869C165.216 75.2869 165.089 75.2541 164.961 75.1885C164.052 74.7128 163.179 74.0567 162.343 73.2201C161.525 72.3836 161.116 71.5717 161.116 70.7843C161.116 70.3414 161.252 69.956 161.525 69.6279C161.707 69.3983 161.943 69.2178 162.234 69.0866C162.543 68.9554 162.97 68.7914 163.516 68.5945C163.552 68.5945 163.807 68.5371 164.28 68.4223C164.771 68.2911 164.961 68.3075 164.852 68.4715C164.616 68.7832 164.498 69.1358 164.498 69.5295C164.498 70.0544 164.689 70.6613 165.071 71.3502C165.361 71.8587 165.734 72.3098 166.189 72.7035C166.644 73.0807 167.08 73.3514 167.498 73.5154C168.08 73.2858 168.626 72.9331 169.135 72.4574C169.644 71.9817 169.898 71.424 169.898 70.7843C169.898 69.8329 169.58 68.9308 168.944 68.0778C168.307 67.2085 167.453 66.2653 166.38 65.2483C166.107 65.0023 165.971 64.6578 165.971 64.2149C165.971 64.0509 165.989 63.8213 166.025 63.526C166.244 62.2138 166.725 60.9262 167.471 59.6631C168.217 58.4001 169.098 57.4159 170.117 56.7106H165.343C164.525 58.0064 164.07 59.4007 163.98 60.8933C163.961 61.0902 163.907 61.2378 163.816 61.3362C163.743 61.4346 163.652 61.4839 163.543 61.4839C163.361 61.4839 163.216 61.3608 163.107 61.1148C163.07 61.0328 162.816 60.4833 162.343 59.4663C161.888 58.4329 161.661 57.5061 161.661 56.686C161.661 56.6532 161.688 56.6122 161.743 56.563C161.852 56.4646 162.016 56.3415 162.234 56.1939C162.47 56.0463 162.634 55.9479 162.725 55.8987C163.179 55.6854 163.57 55.5296 163.898 55.4312C164.225 55.3164 164.552 55.2589 164.88 55.2589H172.817C173.072 55.2589 173.199 55.3164 173.199 55.4312C173.199 55.5624 172.99 55.792 172.571 56.1201L172.517 56.1939C171.68 57.0633 171.026 57.908 170.553 58.7282C170.08 59.5319 169.726 60.4833 169.489 61.5823C169.471 61.6971 169.426 61.8857 169.353 62.1482C169.298 62.3942 169.271 62.6075 169.271 62.7879C169.271 63.1159 169.362 63.3702 169.544 63.5506C169.562 63.567 169.908 63.9033 170.58 64.5594C171.308 65.2155 171.808 65.7158 172.081 66.0603ZM185.343 67.2659C186.015 67.3807 186.352 67.84 186.352 68.6437C186.352 69.0866 186.27 69.5131 186.106 69.9232C185.761 70.9893 185.161 71.8587 184.306 72.5312C183.433 73.2201 182.415 73.8107 181.251 74.3027C180.106 74.7948 179.015 75.0491 177.978 75.0655C177.906 75.0655 177.851 75.0573 177.815 75.0409C177.724 75.0409 177.678 75.0327 177.678 75.0163C177.551 74.4914 177.351 73.9665 177.078 73.4416C176.805 72.9167 176.451 72.318 176.015 71.6455C175.342 70.6121 174.887 69.8001 174.651 69.2096C174.014 67.6185 173.696 66.0685 173.696 64.5594C173.696 63.8377 173.76 63.1652 173.887 62.5418C174.087 61.5741 174.442 60.6637 174.951 59.8108C175.46 58.9414 176.105 58.2115 176.887 57.621C177.978 56.8336 179.197 56.2267 180.542 55.8002C181.906 55.3574 183.261 55.1605 184.606 55.2097C184.679 55.2097 184.715 55.2835 184.715 55.4312V55.5296C184.697 56.1529 184.497 57.1125 184.115 58.4083C183.733 59.6877 183.442 60.5407 183.242 60.9672C183.133 61.2132 182.988 61.3362 182.806 61.3362C182.697 61.3362 182.606 61.287 182.533 61.1886C182.461 61.0738 182.415 60.9262 182.397 60.7457C182.288 59.171 181.842 57.8178 181.06 56.686C180.588 56.8172 180.106 57.0469 179.615 57.3749C179.124 57.6866 178.697 58.1049 178.333 58.6297C177.896 59.2859 177.569 60.0158 177.351 60.8195C177.151 61.6069 177.051 62.4106 177.051 63.2308C177.051 63.4932 177.06 63.6818 177.078 63.7967L177.242 63.6982C177.86 63.3702 178.587 63.1323 179.424 62.9847C180.26 62.8371 181.097 62.7633 181.933 62.7633C182.642 62.7633 183.242 62.8125 183.733 62.9109C184.243 62.9929 184.497 63.0995 184.497 63.2308C184.497 64.2477 183.906 65.2647 182.724 66.2817C182.47 66.5114 182.279 66.6262 182.151 66.6262C181.97 66.6262 181.851 66.4375 181.797 66.0603C181.633 64.8793 180.76 64.2888 179.178 64.2888C178.524 64.2888 177.842 64.379 177.133 64.5594C177.315 66.0357 177.796 67.5611 178.578 69.1358L179.451 70.5629C180.251 71.7439 180.76 72.7117 180.979 73.4662C181.215 73.3514 181.533 73.1135 181.933 72.7527C182.442 72.2278 182.779 71.4814 182.942 70.5137C182.961 70.4152 182.97 70.2512 182.97 70.0216C182.97 69.2342 182.706 68.7996 182.179 68.7175C182.015 68.6847 182.097 68.5617 182.424 68.3485C182.77 68.1188 183.024 67.9712 183.188 67.9056C183.279 67.8728 183.47 67.7908 183.761 67.6596C184.07 67.5119 184.361 67.4053 184.633 67.3397C184.906 67.2577 185.143 67.2331 185.343 67.2659ZM199.797 74.4258C199.943 74.6062 199.597 74.7784 198.761 74.9425C197.942 75.0901 197.133 75.1639 196.333 75.1639L195.869 75.1393C195.542 75.1229 195.379 74.434 195.379 73.0725C195.379 72.6789 195.406 71.8177 195.46 70.4891C195.551 68.3239 195.606 66.7492 195.624 65.765H190.714C190.696 66.946 190.687 68.2255 190.687 69.6033C190.687 70.8335 190.733 71.8423 190.824 72.6296C190.914 73.417 191.133 74.0157 191.478 74.4258C191.624 74.6062 191.278 74.7784 190.442 74.9425C189.623 75.0901 188.814 75.1639 188.014 75.1639L187.551 75.1393C187.223 75.1229 187.06 74.4094 187.06 72.9987C187.06 72.605 187.087 71.7685 187.141 70.4891L187.196 69.3573C187.214 68.7503 187.26 67.3561 187.332 65.1745C187.423 62.9929 187.469 61.4593 187.469 60.5735C187.469 59.4089 187.423 58.5969 187.332 58.1377C187.26 57.662 187.032 57.1945 186.65 56.7352C186.541 56.5876 186.714 56.3825 187.169 56.1201C187.623 55.8577 188.169 55.628 188.805 55.4312C189.46 55.2179 189.996 55.1277 190.414 55.1605C190.742 55.1769 190.905 55.9069 190.905 57.3503C190.905 57.6948 190.869 58.5231 190.796 59.8354L190.742 64.3134H195.679L195.76 60.2044C195.76 59.2038 195.715 58.4821 195.624 58.0392C195.551 57.5964 195.333 57.1617 194.969 56.7352C194.86 56.5876 195.024 56.3825 195.46 56.1201C195.915 55.8577 196.46 55.628 197.097 55.4312C197.751 55.2179 198.288 55.1277 198.706 55.1605C199.033 55.1769 199.197 55.9479 199.197 57.4733C199.197 58.1131 199.17 58.9004 199.115 59.8354L198.979 69.2342C198.979 70.5793 199.024 71.6701 199.115 72.5066C199.206 73.3432 199.433 73.9829 199.797 74.4258ZM211.62 66.9214C212.274 67.0198 212.601 67.4709 212.601 68.2747C212.601 68.6191 212.547 69.0046 212.438 69.4311C212.111 70.6613 211.538 71.6455 210.719 72.3836C209.919 73.1217 208.91 73.7532 207.692 74.2781C206.492 74.7866 205.337 75.0491 204.228 75.0655C204.155 75.0655 204.101 75.0573 204.064 75.0409C203.973 75.0409 203.928 75.0327 203.928 75.0163C203.801 74.475 203.61 73.9583 203.355 73.4662C203.119 72.9577 202.773 72.318 202.319 71.547C201.7 70.5301 201.282 69.7509 201.064 69.2096C200.428 67.5857 200.109 66.0193 200.109 64.5102C200.109 63.8213 200.173 63.1652 200.3 62.5418C200.773 60.311 201.719 58.6708 203.137 57.621C204.246 56.8336 205.474 56.2267 206.819 55.8002C208.165 55.3574 209.51 55.1605 210.856 55.2097C210.929 55.2097 210.965 55.2753 210.965 55.4066V55.4312V55.5296C210.929 56.1529 210.719 57.0961 210.338 58.3591C209.974 59.6221 209.701 60.4915 209.519 60.9672C209.41 61.2132 209.256 61.3362 209.056 61.3362C208.819 61.3362 208.683 61.1394 208.647 60.7457C208.556 59.2531 208.119 57.908 207.337 56.7106C206.137 56.9731 205.219 57.6128 204.583 58.6297C203.819 59.86 203.455 61.3936 203.492 63.2308C203.492 65.1991 204.01 67.1675 205.046 69.1358C205.246 69.5295 205.519 70.0134 205.864 70.5875C206.246 71.2436 206.537 71.7849 206.737 72.2114C206.955 72.6214 207.128 73.0561 207.256 73.5154C207.456 73.4006 207.674 73.2201 207.91 72.9741C208.147 72.7281 208.319 72.4984 208.428 72.2852C208.865 71.5799 209.138 70.8007 209.247 69.9478C209.283 69.6033 209.238 69.267 209.11 68.939C209.001 68.6109 208.783 68.4223 208.456 68.3731C208.237 68.3403 208.337 68.2009 208.756 67.9548C209.174 67.7088 209.401 67.5775 209.438 67.5611C209.528 67.5283 209.719 67.4463 210.01 67.3151C210.319 67.1675 210.61 67.0608 210.883 66.9952C211.174 66.9132 211.42 66.8886 211.62 66.9214ZM216.914 70.12C216.914 71.137 216.968 72.0063 217.077 72.7281C217.186 73.4334 217.396 73.9829 217.705 74.3766C217.85 74.557 217.505 74.7292 216.668 74.8932C215.85 75.0573 215.041 75.1393 214.241 75.1393L213.777 75.1147C213.45 75.0983 213.286 74.4012 213.286 73.0233C213.286 72.6296 213.313 71.7685 213.368 70.4399C213.368 70.161 213.404 68.8078 213.477 66.3801C213.604 62.2466 213.668 60.065 213.668 59.8354C213.668 58.9004 213.622 58.2525 213.532 57.8916C213.459 57.5308 213.25 57.1371 212.904 56.7106C212.777 56.563 212.931 56.3579 213.368 56.0955C213.822 55.833 214.377 55.6034 215.032 55.4066C215.686 55.1933 216.223 55.1031 216.641 55.1359C216.95 55.1523 217.105 55.9069 217.105 57.3995C217.105 58.0556 217.077 58.8512 217.023 59.7862C217.005 60.8851 216.977 62.3696 216.941 64.2395C216.923 66.1095 216.914 67.7662 216.914 69.2096V70.12ZM221.469 64.6332C222.687 66.0275 223.714 67.4709 224.551 68.9636C225.405 70.4399 226.06 71.7357 226.515 72.8511C226.805 73.54 227.033 73.9747 227.196 74.1551C227.378 74.3191 227.46 74.4176 227.442 74.4504C227.369 74.6308 226.896 74.7948 226.024 74.9425C225.151 75.0901 224.423 75.1639 223.842 75.1639C223.605 75.1639 223.451 75.1147 223.378 75.0163C223.305 74.9179 223.214 74.6882 223.105 74.3273C223.069 74.2125 223.005 74.0321 222.914 73.786C222.841 73.54 222.76 73.3022 222.669 73.0725C222.323 72.154 221.741 71.0386 220.923 69.7263C220.105 68.3977 219.25 67.2167 218.359 66.1833C218.287 66.0849 218.141 65.9208 217.923 65.6912C217.705 65.4452 217.541 65.2073 217.432 64.9777C217.341 64.748 217.296 64.4938 217.296 64.2149C217.296 63.5588 217.586 62.5664 218.168 61.2378C218.677 60.0896 219.468 59.0808 220.541 58.2115C221.632 57.3257 222.732 56.645 223.842 56.1693C224.405 55.9233 224.969 55.7346 225.533 55.6034C226.096 55.4558 226.56 55.382 226.924 55.382C227.324 55.382 227.524 55.4722 227.524 55.6526C227.524 56.2595 227.324 57.2437 226.924 58.6051C226.542 59.9502 226.251 60.8113 226.051 61.1886C225.942 61.451 225.796 61.5823 225.614 61.5823C225.505 61.5823 225.405 61.5331 225.314 61.4346C225.242 61.3198 225.196 61.1722 225.178 60.9918C225.105 60.1388 224.978 59.4335 224.796 58.8758C224.614 58.3181 224.433 57.8998 224.251 57.621C224.087 57.3257 224.005 57.2027 224.005 57.2519C223.532 57.4651 223.023 57.8588 222.478 58.4329C221.932 59.007 221.523 59.6631 221.25 60.4013C221.032 60.9918 220.878 61.451 220.787 61.7791C220.696 62.1072 220.65 62.427 220.65 62.7387C220.65 63.3948 220.923 64.0263 221.469 64.6332ZM240.184 60.8933C240.803 62.2548 241.112 63.6736 241.112 65.1499C241.112 65.396 241.094 65.7486 241.057 66.2079C240.875 68.127 240.303 69.6935 239.339 70.9073C238.248 72.2852 236.639 73.417 234.511 74.3027C234.057 74.5488 233.484 74.762 232.793 74.9425C232.12 75.1393 231.775 75.1885 231.756 75.0901C231.593 74.5488 231.375 74.0321 231.102 73.54C230.829 73.0315 230.474 72.4328 230.038 71.7439C229.329 70.6285 228.829 69.7181 228.538 69.0128C228.047 67.8646 227.801 66.618 227.801 65.2729C227.801 64.6988 227.838 64.1821 227.911 63.7229C228.202 61.6233 228.856 59.983 229.874 58.802C230.638 57.9162 231.602 57.1781 232.766 56.5876C233.929 55.9971 235.202 55.546 236.584 55.2343C236.73 55.2015 236.839 55.1851 236.911 55.1851C237.075 55.1851 237.166 55.2015 237.184 55.2343C237.33 55.7592 237.53 56.2677 237.784 56.7598C238.039 57.2355 238.402 57.8424 238.875 58.5805C238.966 58.7282 239.157 59.0398 239.448 59.5155C239.739 59.9912 239.984 60.4505 240.184 60.8933ZM236.966 70.4645C237.493 69.2342 237.757 67.9138 237.757 66.5031C237.757 64.748 237.311 63.0503 236.42 61.41C236.13 60.8851 235.829 60.4013 235.52 59.9584C235.448 59.8436 235.284 59.5811 235.029 59.171C234.775 58.7446 234.548 58.3509 234.348 57.99C234.166 57.6128 234.02 57.2601 233.911 56.932C233.675 57.1125 233.475 57.3011 233.311 57.4979C232.784 58.1213 232.375 58.7774 232.084 59.4663C231.484 60.8605 231.184 62.386 231.184 64.0427C231.184 65.6666 231.584 67.2249 232.384 68.7175C232.529 68.98 232.866 69.5377 233.393 70.3906C233.684 70.8499 233.975 71.3338 234.266 71.8423C234.557 72.3508 234.784 72.8265 234.948 73.2694C235.766 72.5968 236.439 71.6619 236.966 70.4645ZM252.195 55.2835C252.486 55.2835 252.704 55.3 252.85 55.3328C252.995 55.3492 253.068 55.3984 253.068 55.4804C253.068 56.0709 252.877 57.0305 252.495 58.3591C252.113 59.6877 251.822 60.5817 251.622 61.041C251.513 61.287 251.359 61.41 251.159 61.41C250.922 61.41 250.786 61.2132 250.749 60.8195C250.659 59.4089 250.213 58.031 249.413 56.686H245.785C245.804 56.8828 245.813 57.1863 245.813 57.5964C245.813 58.1705 245.785 58.9004 245.731 59.7862C245.713 61 245.685 62.6157 245.649 64.6332C245.631 66.6344 245.622 68.2747 245.622 69.5541C245.622 70.7843 245.667 71.7931 245.758 72.5804C245.849 73.3678 246.067 73.9665 246.413 74.3766C246.558 74.557 246.213 74.7292 245.376 74.8932C244.54 75.0409 243.731 75.1147 242.949 75.1147L242.485 75.0901C242.303 75.0737 242.176 74.885 242.103 74.5242C242.03 74.1633 241.994 73.663 241.994 73.0233C241.994 72.6296 242.021 71.7685 242.076 70.4399C242.276 65.1089 242.376 61.8037 242.376 60.5243C242.376 59.3925 242.303 58.4821 242.158 57.7932C242.03 57.0879 241.785 56.4974 241.421 56.0217C241.276 55.8412 241.63 55.669 242.485 55.505C243.358 55.341 244.185 55.2671 244.967 55.2835H252.195ZM265.719 60.8933C266.337 62.2548 266.646 63.6736 266.646 65.1499C266.646 65.396 266.628 65.7486 266.591 66.2079C266.41 68.127 265.837 69.6935 264.873 70.9073C263.782 72.2852 262.173 73.417 260.045 74.3027C259.591 74.5488 259.018 74.762 258.327 74.9425C257.654 75.1393 257.309 75.1885 257.291 75.0901C257.127 74.5488 256.909 74.0321 256.636 73.54C256.363 73.0315 256.009 72.4328 255.572 71.7439C254.863 70.6285 254.363 69.7181 254.072 69.0128C253.581 67.8646 253.336 66.618 253.336 65.2729C253.336 64.6988 253.372 64.1821 253.445 63.7229C253.736 61.6233 254.39 59.983 255.409 58.802C256.172 57.9162 257.136 57.1781 258.3 56.5876C259.463 55.9971 260.736 55.546 262.118 55.2343C262.264 55.2015 262.373 55.1851 262.446 55.1851C262.609 55.1851 262.7 55.2015 262.718 55.2343C262.864 55.7592 263.064 56.2677 263.318 56.7598C263.573 57.2355 263.937 57.8424 264.409 58.5805C264.5 58.7282 264.691 59.0398 264.982 59.5155C265.273 59.9912 265.519 60.4505 265.719 60.8933ZM262.5 70.4645C263.027 69.2342 263.291 67.9138 263.291 66.5031C263.291 64.748 262.846 63.0503 261.955 61.41C261.664 60.8851 261.364 60.4013 261.054 59.9584C260.982 59.8436 260.818 59.5811 260.564 59.171C260.309 58.7446 260.082 58.3509 259.882 57.99C259.7 57.6128 259.554 57.2601 259.445 56.932C259.209 57.1125 259.009 57.3011 258.845 57.4979C258.318 58.1213 257.909 58.7774 257.618 59.4663C257.018 60.8605 256.718 62.386 256.718 64.0427C256.718 65.6666 257.118 67.2249 257.918 68.7175C258.063 68.98 258.4 69.5377 258.927 70.3906C259.218 70.8499 259.509 71.3338 259.8 71.8423C260.091 72.3508 260.318 72.8265 260.482 73.2694C261.3 72.5968 261.973 71.6619 262.5 70.4645ZM284.318 70.12C284.318 71.137 284.373 72.0063 284.482 72.7281C284.591 73.4334 284.8 73.9829 285.109 74.3766C285.255 74.557 284.909 74.7292 284.073 74.8932C283.255 75.0573 282.446 75.1393 281.645 75.1393L281.182 75.1147C280.854 75.0983 280.691 74.4012 280.691 73.0233C280.691 72.6296 280.718 71.7685 280.773 70.4399C280.773 70.161 280.809 68.8078 280.882 66.3801C281.009 62.2466 281.073 60.065 281.073 59.8354C281.073 58.9004 281.027 58.2525 280.936 57.8916C280.864 57.5308 280.654 57.1371 280.309 56.7106C280.182 56.563 280.336 56.3579 280.773 56.0955C281.227 55.833 281.782 55.6034 282.436 55.4066C283.091 55.1933 283.627 55.1031 284.046 55.1359C284.355 55.1523 284.509 55.9069 284.509 57.3995C284.509 58.0556 284.482 58.8512 284.428 59.7862C284.409 60.8851 284.382 62.3696 284.346 64.2395C284.327 66.1095 284.318 67.7662 284.318 69.2096V70.12ZM288.873 64.6332C290.092 66.0275 291.119 67.4709 291.955 68.9636C292.81 70.4399 293.465 71.7357 293.919 72.8511C294.21 73.54 294.438 73.9747 294.601 74.1551C294.783 74.3191 294.865 74.4176 294.847 74.4504C294.774 74.6308 294.301 74.7948 293.428 74.9425C292.556 75.0901 291.828 75.1639 291.246 75.1639C291.01 75.1639 290.855 75.1147 290.783 75.0163C290.71 74.9179 290.619 74.6882 290.51 74.3273C290.474 74.2125 290.41 74.0321 290.319 73.786C290.246 73.54 290.164 73.3022 290.073 73.0725C289.728 72.154 289.146 71.0386 288.328 69.7263C287.51 68.3977 286.655 67.2167 285.764 66.1833C285.691 66.0849 285.546 65.9208 285.328 65.6912C285.109 65.4452 284.946 65.2073 284.837 64.9777C284.746 64.748 284.7 64.4938 284.7 64.2149C284.7 63.5588 284.991 62.5664 285.573 61.2378C286.082 60.0896 286.873 59.0808 287.946 58.2115C289.037 57.3257 290.137 56.645 291.246 56.1693C291.81 55.9233 292.374 55.7346 292.937 55.6034C293.501 55.4558 293.965 55.382 294.328 55.382C294.728 55.382 294.928 55.4722 294.928 55.6526C294.928 56.2595 294.728 57.2437 294.328 58.6051C293.947 59.9502 293.656 60.8113 293.456 61.1886C293.347 61.451 293.201 61.5823 293.019 61.5823C292.91 61.5823 292.81 61.5331 292.719 61.4346C292.646 61.3198 292.601 61.1722 292.583 60.9918C292.51 60.1388 292.383 59.4335 292.201 58.8758C292.019 58.3181 291.837 57.8998 291.655 57.621C291.492 57.3257 291.41 57.2027 291.41 57.2519C290.937 57.4651 290.428 57.8588 289.883 58.4329C289.337 59.007 288.928 59.6631 288.655 60.4013C288.437 60.9918 288.282 61.451 288.191 61.7791C288.101 62.1072 288.055 62.427 288.055 62.7387C288.055 63.3948 288.328 64.0263 288.873 64.6332ZM304.971 66.9706C305.134 66.987 305.034 67.1101 304.671 67.3397C304.325 67.5693 304.089 67.717 303.962 67.7826C303.089 68.2091 302.398 68.4223 301.889 68.4223C301.289 68.4223 300.816 68.2993 300.47 68.0532C300.125 67.7908 299.952 67.4463 299.952 67.0198C299.952 66.8394 299.998 66.6098 300.088 66.3309C300.179 66.0849 300.288 65.8716 300.416 65.6912C300.561 65.5108 300.761 65.3057 301.016 65.0761C301.761 64.4528 302.38 63.7475 302.871 62.9601C303.362 62.1564 303.734 61.287 303.989 60.3521C304.262 59.4171 304.398 58.4739 304.398 57.5225C304.398 57.1781 304.389 56.9238 304.371 56.7598H299.625C299.643 57.2847 299.634 58.0228 299.598 58.9742C299.579 59.2038 299.57 59.4909 299.57 59.8354L299.543 61.0902C299.543 62.6157 299.552 63.8295 299.57 64.7316L299.598 68.3977V69.2342C299.598 70.5793 299.643 71.6701 299.734 72.5066C299.825 73.3432 300.043 73.9829 300.389 74.4258C300.552 74.6062 300.216 74.7784 299.379 74.9425C298.543 75.0901 297.725 75.1639 296.925 75.1639L296.461 75.1393C296.134 75.1229 295.97 74.4504 295.97 73.1217C295.97 72.4164 295.997 71.7685 296.052 71.178L296.079 70.4891C296.097 69.2424 296.115 67.6514 296.134 65.7158C296.17 63.7639 296.188 62.0498 296.188 60.5735C296.188 59.4417 296.115 58.5231 295.97 57.8178C295.843 57.0961 295.597 56.5056 295.233 56.0463C295.088 55.8659 295.434 55.6936 296.27 55.5296C297.125 55.3656 297.943 55.2918 298.725 55.3082H307.671H307.835C308.253 55.3082 308.462 55.4148 308.462 55.628C308.462 57.5308 308.116 59.0644 307.426 60.229C306.753 61.3936 306.171 62.2138 305.68 62.6895C305.189 63.1652 304.898 63.444 304.807 63.526L304.371 63.8951C303.971 64.2231 303.698 64.5266 303.552 64.8054C303.407 65.0843 303.334 65.3795 303.334 65.6912C303.334 66.0685 303.471 66.3719 303.743 66.6016C304.034 66.8312 304.443 66.9542 304.971 66.9706ZM322.247 71.2026C322.502 72.5312 322.756 73.3596 323.011 73.6876C323.284 74.0157 323.42 74.2043 323.42 74.2535C323.438 74.3848 323.238 74.5078 322.82 74.6226C322.42 74.721 321.975 74.803 321.484 74.8686C320.793 74.9507 320.302 74.9917 320.011 74.9917C319.465 74.9917 319.156 74.9014 319.083 74.721C319.029 74.5898 318.902 74.0075 318.702 72.9741C318.611 72.5804 318.483 72.0391 318.32 71.3502C318.174 70.6449 318.074 70.2184 318.02 70.0708C317.31 71.0386 316.32 71.9079 315.047 72.6789C313.792 73.4334 312.592 74.0321 311.446 74.475C310.537 74.8194 309.828 74.9835 309.319 74.9671C309.119 74.9507 308.973 74.6964 308.882 74.2043C308.792 73.7122 308.746 73.1053 308.746 72.3836C308.746 71.3502 308.81 70.4891 308.937 69.8001C309.119 68.7668 309.337 67.7908 309.592 66.8722C309.846 65.9537 310.364 64.8383 311.146 63.526C311.946 62.1974 313.046 60.9918 314.447 59.9092C314.119 59.2038 313.874 58.6133 313.71 58.1377C313.565 57.6456 313.501 57.2191 313.519 56.8582C313.537 56.4974 313.756 56.1775 314.174 55.8987C314.592 55.6198 315.028 55.4066 315.483 55.2589C315.829 55.1441 316.156 55.0539 316.465 54.9883C316.774 54.9227 316.956 54.9227 317.01 54.9883C317.047 55.0375 317.047 55.1523 317.01 55.3328C316.992 55.5132 316.983 55.6854 316.983 55.8495C316.983 56.686 317.62 58.4165 318.892 61.041C319.602 62.5172 320.293 64.3626 320.965 66.577C321.656 68.7914 322.084 70.3332 322.247 71.2026ZM312.837 72.5804C313.492 72.236 314.192 71.6783 314.938 70.9073C315.683 70.12 316.283 69.3327 316.738 68.5453C317.21 67.7416 317.401 67.1593 317.31 66.7984C317.092 65.9783 316.856 65.2565 316.601 64.6332C316.347 63.9935 316.019 63.2062 315.619 62.2712L315.21 61.3854C315.138 61.2214 315.074 61.0984 315.019 61.0164C313.601 62.2958 312.701 64.7234 312.319 68.2993L312.265 68.8652C312.137 69.9806 312.074 70.7597 312.074 71.2026C312.074 72.1704 312.246 72.6542 312.592 72.6542C312.683 72.6542 312.765 72.6296 312.837 72.5804ZM337.662 74.3766C337.807 74.557 337.462 74.7292 336.625 74.8932C335.807 75.0409 334.998 75.1147 334.198 75.1147L333.734 75.0901C333.407 75.0737 333.243 74.3766 333.243 72.9987C333.243 72.6378 333.261 72.1458 333.298 71.5224L333.325 70.4399L333.38 69.308C333.398 68.7011 333.443 67.3069 333.516 65.1253C333.607 62.9437 333.652 61.41 333.652 60.5243C333.652 59.6385 333.607 58.8922 333.516 58.2853C333.443 57.6784 333.307 57.1453 333.107 56.686H328.388C328.57 57.621 328.897 58.4985 329.37 59.3187C329.843 60.1224 330.461 60.918 331.225 61.7053C331.316 61.8037 331.507 62.0005 331.798 62.2958C332.089 62.5911 332.325 62.8863 332.507 63.1816C332.689 63.4604 332.78 63.7229 332.78 63.9689C332.78 64.2149 332.698 64.4118 332.534 64.5594C332.461 64.625 332.125 64.9121 331.525 65.4206C330.852 65.9454 330.279 66.4457 329.807 66.9214C329.334 67.3807 328.897 67.9712 328.497 68.6929C328.188 69.2998 327.952 69.9314 327.788 70.5875C327.625 71.2436 327.543 71.8669 327.543 72.4574C327.543 73.3596 327.697 73.9993 328.006 74.3766C328.152 74.557 327.788 74.7292 326.915 74.8932C326.043 75.0409 325.197 75.1147 324.379 75.1147L323.915 75.0901C323.733 75.0901 323.661 74.8768 323.697 74.4504C323.697 74.1879 323.715 73.9747 323.752 73.8107C323.933 72.5312 324.206 71.465 324.57 70.6121C324.952 69.7427 325.534 68.8898 326.315 68.0532C326.97 67.3643 327.643 66.7656 328.334 66.2571C329.025 65.7486 329.398 65.4698 329.452 65.4206C329.579 65.2893 329.443 64.9613 329.043 64.4364C328.643 63.9115 328.216 63.4194 327.761 62.9601C326.834 62.0087 326.134 61.0246 325.661 60.0076C325.188 58.9906 324.915 57.867 324.843 56.6368C324.824 56.3579 325.233 56.0791 326.07 55.8002C326.906 55.5214 327.588 55.3492 328.116 55.2835C328.261 55.2671 328.379 55.2589 328.47 55.2589C328.561 55.2589 328.616 55.2589 328.634 55.2589H335.48C335.644 55.2425 335.88 55.2343 336.189 55.2343C336.371 55.2343 336.507 55.2425 336.598 55.2589C336.925 55.2753 337.089 56.0053 337.089 57.4487C337.089 57.8752 337.071 58.3837 337.035 58.9742L337.007 59.7862C336.989 60.311 336.962 61.7545 336.925 64.1165C336.889 66.4621 336.871 68.2747 336.871 69.5541C336.871 70.7843 336.916 71.7931 337.007 72.5804C337.098 73.3678 337.316 73.9665 337.662 74.3766Z" fill="#FCFCFC"/>
</g>
</g>
<defs>
<clipPath id="clip0_92_1788">
<rect width="345" height="167" fill="white"/>
</clipPath>
<clipPath id="clip1_92_1788">
<rect width="100.559" height="167" fill="white" transform="translate(20)"/>
</clipPath>
<clipPath id="clip2_92_1788">
<rect width="217.135" height="42.0522" fill="white" transform="translate(120.559)"/>
</clipPath>
<clipPath id="clip3_92_1788">
<rect width="246.313" height="23.04" fill="white" transform="translate(120.559 54.96)"/>
</clipPath>
</defs>
</svg>
