<svg width="380" height="137" viewBox="0 0 380 137" fill="none" xmlns="http://www.w3.org/2000/svg">
<path d="M53.6268 70.2547C54.1957 70.9066 52.8445 71.5287 49.5734 72.1209C46.3734 72.7131 43.209 73.0096 40.0801 73.0096L38.2668 72.9207C36.9868 72.8617 36.3468 70.2547 36.3468 65.1003C36.3468 63.7376 36.4534 60.7458 36.6668 56.1246L37.6268 31.6859C31.9379 35.4184 27.0312 39.5063 22.9068 43.9497C18.8534 48.3931 16.8268 52.3922 16.8268 55.9469V59.0573C17.0401 61.7233 17.3601 64.0042 17.7868 65.9001C18.2134 67.7367 18.889 69.1882 19.8134 70.2547C20.3824 70.9066 19.0312 71.5287 15.7601 72.1209C12.5601 72.7131 9.39569 73.0096 6.26678 73.0096L4.45344 72.9207C3.17344 72.8617 2.53344 70.4025 2.53344 65.5446C2.53344 63.1156 2.64011 60.8346 2.85344 58.7018L2.96011 56.1246C2.96011 54.999 3.10233 50.1705 3.38678 41.6391C3.88455 30.975 4.13344 23.4212 4.13344 18.9778C4.13344 15.3638 3.95567 12.757 3.60011 11.1574C3.31567 9.55773 2.46233 7.98775 1.04011 6.44734C0.613443 5.91413 1.25344 5.17357 2.96011 4.22564C4.73788 3.27771 6.87122 2.44827 9.36011 1.73734C11.9201 0.967141 14.0179 0.641293 15.6534 0.759782C16.9334 0.819026 17.5734 3.60356 17.5734 9.11339C17.5734 11.3647 17.4668 14.1789 17.2534 17.5559C17.2534 17.4373 17.1824 20.1923 17.0401 25.8206C17.0401 28.4866 16.969 32.7227 16.8268 38.5287C19.529 36.1589 22.5868 34.0261 26.0001 32.1302C29.4845 30.2344 33.3957 28.3681 37.7334 26.5315L37.9468 20.3108C37.9468 16.1043 37.769 13.1717 37.4134 11.5128C37.129 9.79469 36.2401 8.10619 34.7468 6.44734C34.3201 5.91413 34.9957 5.17357 36.7734 4.22564C38.5512 3.27771 40.6845 2.44827 43.1734 1.73734C45.7334 0.967141 47.8312 0.641293 49.4668 0.759782C50.7468 0.819026 51.3868 3.45545 51.3868 8.66905C51.3868 9.85398 51.2445 12.8162 50.9601 17.5559C50.889 21.94 50.7824 27.7757 50.6401 35.0629C50.569 42.3501 50.5334 48.3042 50.5334 52.9254C50.5334 57.3688 50.7112 61.0124 51.0668 63.8562C51.4224 66.6407 52.2757 68.7736 53.6268 70.2547ZM99.8343 43.4165C102.394 43.772 103.674 45.4012 103.674 48.3042C103.674 49.5484 103.461 50.9406 103.034 52.481C101.754 56.9244 99.5143 60.4792 96.3143 63.1452C93.1851 65.8113 89.2384 68.0922 84.4743 69.9881C79.7809 71.8244 75.2654 72.7728 70.9276 72.8318C70.6432 72.8318 70.4299 72.802 70.2876 72.743C69.932 72.743 69.7543 72.7131 69.7543 72.6541C69.2565 70.699 68.5099 68.8328 67.5143 67.0554C66.5899 65.2188 65.2387 62.9083 63.4609 60.1237C61.0432 56.4505 59.4076 53.6363 58.5543 51.6812C56.0654 45.8159 54.8209 40.158 54.8209 34.7074C54.8209 32.2191 55.0699 29.8493 55.5676 27.598C57.4165 19.5406 61.1143 13.616 66.6609 9.82434C70.9987 6.98055 75.7987 4.78847 81.0609 3.24809C86.3234 1.64846 91.5851 0.937516 96.8476 1.11525C97.1318 1.11525 97.2743 1.35224 97.2743 1.8262V1.91507V2.27054C97.1318 4.52187 96.3143 7.92846 94.8209 12.4904C93.3984 17.0523 92.3318 20.1923 91.6209 21.9104C91.1943 22.7991 90.5901 23.2434 89.8076 23.2434C88.8834 23.2434 88.3501 22.5325 88.2076 21.1106C87.8518 15.7193 86.1451 10.8611 83.0876 6.53621C78.3943 7.48412 74.8032 9.79469 72.3143 13.4679C69.3276 17.9113 67.9054 23.4508 68.0476 30.0863C68.0476 37.1957 70.0743 44.3052 74.1276 51.4146C74.9099 52.8365 75.9765 54.5842 77.3276 56.6578C78.8209 59.0276 79.9587 60.9827 80.7409 62.5231C81.5943 64.0042 82.2699 65.5743 82.7676 67.2331C83.5501 66.8185 84.4034 66.1667 85.3276 65.278C86.2518 64.3894 86.9276 63.5599 87.3543 62.7897C89.0609 60.2422 90.1276 57.428 90.5543 54.3473C90.6968 53.1031 90.5184 51.8886 90.0209 50.7037C89.5943 49.5187 88.7409 48.8374 87.4609 48.6597C86.6076 48.5412 86.9984 48.0376 88.6343 47.149C90.2701 46.2603 91.1584 45.7863 91.3009 45.7271C91.6568 45.6085 92.4034 45.3124 93.5409 44.8384C94.7501 44.3052 95.8876 43.92 96.9543 43.6831C98.0918 43.3868 99.0518 43.298 99.8343 43.4165ZM161.497 1.47073C162.563 1.47073 163.097 1.64846 163.097 2.00393C163.097 5.02545 162.386 8.84679 160.963 13.4679C159.613 18.0298 158.439 21.3772 157.443 23.51C157.017 24.3395 156.448 24.7542 155.737 24.7542C155.31 24.7542 154.919 24.5764 154.563 24.221C154.279 23.8655 154.101 23.3323 154.03 22.6213C153.603 16.993 151.577 11.6609 147.95 6.62508H141.123C141.194 7.33603 141.23 8.43209 141.23 9.9132C141.23 11.9868 141.123 14.6232 140.91 17.8225C140.839 19.7183 140.733 24.9319 140.59 33.4633C140.448 41.9354 140.377 48.482 140.377 53.1031C140.377 57.5465 140.554 61.1901 140.91 64.0339C141.266 66.8777 142.119 69.0402 143.47 70.5213C144.039 71.1732 142.688 71.7953 139.417 72.3875C136.217 72.9207 133.053 73.1873 129.923 73.1873L128.11 73.0984C126.83 73.0394 126.19 70.4622 126.19 65.3669C126.19 63.945 126.297 60.9235 126.51 56.3024L126.723 52.2144C126.794 50.0224 126.973 44.9865 127.257 37.1068C127.613 29.2272 127.79 23.6878 127.79 20.4885C127.79 17.23 127.613 14.5343 127.257 12.4015C126.973 10.2095 126.403 8.28393 125.55 6.62508H118.83C115.843 12.4312 114.173 17.7632 113.817 22.6213C113.746 24.0432 113.213 24.7542 112.217 24.7542C111.506 24.7542 110.937 24.3395 110.51 23.51C109.443 21.0809 108.199 17.941 106.777 14.09C105.426 10.1798 104.75 7.15829 104.75 5.02546C104.75 4.01828 106.03 3.24809 108.59 2.71488C111.15 2.18167 114.03 1.8262 117.23 1.64846C120.43 1.47073 122.03 1.41148 122.03 1.47073H161.497ZM212.585 21.6438C215.003 26.5612 216.212 31.6859 216.212 37.018C216.212 37.9067 216.141 39.1805 215.998 40.8393C215.288 47.771 213.048 53.4289 209.278 57.8131C205.012 62.7897 198.718 66.8777 190.398 70.0769C188.621 70.9656 186.381 71.7356 183.678 72.3875C181.048 73.0984 179.696 73.2762 179.625 72.9207C178.985 70.9656 178.132 69.0994 177.065 67.322C175.998 65.4854 174.612 63.3229 172.905 60.8346C170.132 56.8059 168.176 53.5178 167.038 50.9703C165.118 46.8231 164.158 42.3204 164.158 37.4623C164.158 35.3887 164.301 33.5225 164.585 31.8636C165.723 24.2802 168.283 18.3557 172.265 14.09C175.252 10.8908 179.021 8.22471 183.572 6.09187C188.123 3.95903 193.101 2.32979 198.505 1.20412C199.074 1.08563 199.501 1.02639 199.785 1.02639C200.425 1.02639 200.781 1.08563 200.852 1.20412C201.421 3.09998 202.203 4.93658 203.198 6.71395C204.194 8.43209 205.616 10.6241 207.465 13.2902C207.821 13.8234 208.568 14.949 209.705 16.6672C210.843 18.3853 211.803 20.0442 212.585 21.6438ZM199.998 56.2135C202.061 51.7701 203.092 47.0009 203.092 41.9057C203.092 35.5664 201.349 29.4345 197.865 23.51C196.728 21.6141 195.554 19.8664 194.345 18.2668C194.061 17.8521 193.421 16.9041 192.425 15.423C191.429 13.8826 190.541 12.4607 189.758 11.1574C189.048 9.79469 188.478 8.52096 188.052 7.33603C187.128 7.98775 186.345 8.66905 185.705 9.38C183.643 11.6313 182.043 14.0011 180.905 16.4894C178.558 21.5253 177.385 27.0351 177.385 33.0189C177.385 38.8842 178.949 44.5126 182.078 49.9039C182.648 50.8518 183.963 52.8662 186.025 55.9469C187.163 57.6057 188.301 59.3535 189.438 61.1901C190.576 63.0267 191.465 64.7448 192.105 66.3445C195.305 63.9154 197.936 60.5384 199.998 56.2135ZM255.503 43.5942C256.143 43.6534 255.753 44.0978 254.33 44.9272C252.979 45.7567 252.054 46.2899 251.557 46.5269C248.143 48.0673 245.441 48.8374 243.45 48.8374C241.103 48.8374 239.254 48.3931 237.903 47.5044C236.553 46.5565 235.877 45.3124 235.877 43.772C235.877 43.1202 236.054 42.2908 236.41 41.2837C236.766 40.395 237.193 39.6248 237.69 38.9731C238.259 38.3214 239.041 37.5808 240.037 36.7514C242.953 34.5 245.37 31.9525 247.29 29.1087C249.21 26.2057 250.668 23.0657 251.663 19.6887C252.73 16.3117 253.263 12.9051 253.263 9.46886C253.263 8.22471 253.228 7.30638 253.157 6.71395H234.597C234.668 8.60983 234.633 11.2759 234.49 14.7121C234.419 15.5415 234.383 16.5783 234.383 17.8225L234.277 22.3547C234.277 27.8646 234.313 32.2488 234.383 35.5072L234.49 48.7486V51.7701C234.49 56.6282 234.668 60.568 235.023 63.5896C235.379 66.6111 236.233 68.9216 237.583 70.5213C238.223 71.1732 236.908 71.7953 233.637 72.3875C230.366 72.9207 227.166 73.1873 224.037 73.1873L222.223 73.0984C220.943 73.0394 220.303 70.6101 220.303 65.8113C220.303 63.2637 220.41 60.9235 220.623 58.7907L220.73 56.3024C220.801 51.7997 220.873 46.0529 220.943 39.062C221.086 32.0117 221.157 25.8206 221.157 20.4885C221.157 16.4006 220.873 13.0828 220.303 10.5353C219.806 7.92846 218.846 5.79564 217.423 4.13678C216.854 3.48507 218.206 2.863 221.477 2.27054C224.819 1.67809 228.019 1.41148 231.077 1.47073H266.063H266.703C268.339 1.47073 269.157 1.85582 269.157 2.62602C269.157 9.49851 267.806 15.0379 265.103 19.2444C262.473 23.4508 260.197 26.413 258.277 28.1312C256.357 29.8493 255.219 30.8564 254.863 31.1527L253.157 32.4857C251.593 33.6706 250.526 34.7666 249.957 35.7738C249.388 36.781 249.103 37.8474 249.103 38.9731C249.103 40.3358 249.637 41.4317 250.703 42.2612C251.841 43.0907 253.441 43.535 255.503 43.5942ZM322.96 70.2547C323.529 70.9066 322.178 71.5287 318.907 72.1209C315.707 72.7131 312.543 73.0096 309.413 73.0096L307.6 72.9207C306.32 72.8617 305.68 70.2547 305.68 65.1003C305.68 63.7376 305.787 60.7458 306 56.1246L306.96 31.6859C301.271 35.4184 296.364 39.5063 292.24 43.9497C288.187 48.3931 286.16 52.3922 286.16 55.9469V59.0573C286.373 61.7233 286.693 64.0042 287.12 65.9001C287.547 67.7367 288.223 69.1882 289.147 70.2547C289.716 70.9066 288.364 71.5287 285.093 72.1209C281.893 72.7131 278.729 73.0096 275.6 73.0096L273.787 72.9207C272.507 72.8617 271.867 70.4025 271.867 65.5446C271.867 63.1156 271.973 60.8346 272.187 58.7018L272.293 56.1246C272.293 54.999 272.436 50.1705 272.72 41.6391C273.218 30.975 273.467 23.4212 273.467 18.9778C273.467 15.3638 273.289 12.757 272.933 11.1574C272.649 9.55773 271.796 7.98775 270.373 6.44734C269.947 5.91413 270.587 5.17357 272.293 4.22564C274.071 3.27771 276.204 2.44827 278.693 1.73734C281.253 0.967141 283.351 0.641293 284.987 0.759782C286.267 0.819026 286.907 3.60356 286.907 9.11339C286.907 11.3647 286.8 14.1789 286.587 17.5559C286.587 17.4373 286.516 20.1923 286.373 25.8206C286.373 28.4866 286.303 32.7227 286.16 38.5287C288.863 36.1589 291.92 34.0261 295.333 32.1302C298.818 30.2344 302.729 28.3681 307.067 26.5315L307.28 20.3108C307.28 16.1043 307.103 13.1717 306.747 11.5128C306.463 9.79469 305.573 8.10619 304.08 6.44734C303.653 5.91413 304.329 5.17357 306.107 4.22564C307.884 3.27771 310.018 2.44827 312.507 1.73734C315.067 0.967141 317.164 0.641293 318.8 0.759782C320.08 0.819026 320.72 3.45545 320.72 8.66905C320.72 9.85398 320.578 12.8162 320.293 17.5559C320.223 21.94 320.116 27.7757 319.973 35.0629C319.903 42.3501 319.867 48.3042 319.867 52.9254C319.867 57.3688 320.044 61.0124 320.4 63.8562C320.756 66.6407 321.609 68.7736 322.96 70.2547ZM378.768 70.3435C379.337 70.9955 377.985 71.6175 374.714 72.2098C371.514 72.743 368.35 73.0096 365.221 73.0096L363.408 72.9207C362.128 72.8617 361.488 70.3435 361.488 65.3669C361.488 64.0635 361.558 62.2862 361.701 60.0348L361.808 56.1246L362.021 52.0367C362.092 49.8446 362.27 44.8087 362.554 36.9291C362.91 29.0495 363.088 23.51 363.088 20.3108C363.088 17.1115 362.91 14.4158 362.554 12.2238C362.27 10.0317 361.737 8.10619 360.954 6.44734H342.501C343.212 9.82434 344.492 12.9939 346.341 15.9562C348.19 18.8592 350.608 21.7327 353.594 24.5764C353.95 24.9319 354.697 25.6429 355.834 26.7093C356.972 27.7757 357.897 28.8421 358.608 29.9085C359.318 30.9157 359.674 31.8636 359.674 32.7523C359.674 33.641 359.354 34.3519 358.714 34.8851C358.43 35.1221 357.114 36.1589 354.768 37.9955C352.137 39.8914 349.897 41.6983 348.048 43.4165C346.198 45.0753 344.492 47.2082 342.928 49.815C341.718 52.007 340.794 54.288 340.154 56.6578C339.514 59.0276 339.194 61.279 339.194 63.4118C339.194 66.6703 339.798 68.9809 341.008 70.3435C341.577 70.9955 340.154 71.6175 336.741 72.2098C333.328 72.743 330.021 73.0096 326.821 73.0096L325.008 72.9207C324.297 72.9207 324.012 72.1507 324.154 70.6101C324.154 69.6624 324.225 68.892 324.368 68.2996C325.078 63.6784 326.145 59.8274 327.568 56.7467C329.061 53.6067 331.337 50.5259 334.394 47.5044C336.954 45.0161 339.585 42.8536 342.288 41.017C344.99 39.1805 346.448 38.1733 346.661 37.9955C347.158 37.5215 346.625 36.3367 345.061 34.4408C343.497 32.5449 341.825 30.7676 340.048 29.1087C336.421 25.6725 333.683 22.1178 331.834 18.4445C329.985 14.7713 328.918 10.713 328.634 6.26961C328.563 5.26244 330.163 4.25526 333.434 3.24809C336.705 2.24092 339.372 1.61884 341.434 1.38186C342.003 1.32261 342.465 1.293 342.821 1.293C343.177 1.293 343.39 1.293 343.461 1.293H370.234C370.874 1.23375 371.798 1.20412 373.008 1.20412C373.718 1.20412 374.252 1.23375 374.608 1.293C375.888 1.35224 376.528 3.98866 376.528 9.20226C376.528 10.7427 376.457 12.5792 376.314 14.7121L376.208 17.6447C376.137 19.5406 376.03 24.7542 375.888 33.2855C375.745 41.7576 375.674 48.3042 375.674 52.9254C375.674 57.3688 375.852 61.0124 376.208 63.8562C376.563 66.6999 377.417 68.8624 378.768 70.3435Z" fill="#FCFCFC"/>
<path d="M24.2038 130.432C24.4584 130.748 23.8537 131.049 22.3899 131.336C20.9579 131.595 19.5418 131.724 18.1417 131.724L17.3302 131.681C16.7574 131.652 16.471 130.403 16.471 127.935C16.471 127.246 16.5187 125.782 16.6142 123.543C16.9642 114.213 17.1393 108.429 17.1393 106.19C17.1393 104.611 17.0756 103.29 16.9483 102.228C16.821 101.166 16.5824 100.247 16.2323 99.4724H8.92913L8.97687 100.85C8.97687 102.458 8.91322 103.807 8.78593 104.898C8.75411 107.022 8.70638 109.85 8.64273 113.381C8.61091 116.883 8.595 119.753 8.595 121.992C8.595 124.145 8.67456 125.911 8.83367 127.289C8.99278 128.667 9.37465 129.714 9.97927 130.432C10.2338 130.748 9.62922 131.049 8.1654 131.336C6.7334 131.595 5.31731 131.724 3.91714 131.724L3.10567 131.681C2.53287 131.652 2.24647 130.403 2.24647 127.935C2.24647 127.246 2.29421 125.782 2.38967 123.543L2.48514 121.562C2.51696 120.5 2.59652 118.06 2.72381 114.242C2.88292 110.424 2.96247 107.74 2.96247 106.19C2.96247 104.238 2.83518 102.63 2.58061 101.367C2.35785 100.104 1.91234 99.0562 1.24407 98.2237C0.989495 97.9079 1.59412 97.6209 3.05794 97.3625C4.52176 97.0755 5.93785 96.9319 7.3062 96.9319L8.11767 96.975H20.6238C20.8465 96.9463 21.1489 96.9319 21.5307 96.9319C21.9126 96.9319 22.1831 96.9463 22.3422 96.975C22.915 97.0037 23.2014 98.2811 23.2014 100.807C23.2014 101.554 23.1696 102.444 23.1059 103.477L23.0582 104.898C23.0264 105.816 22.9786 108.343 22.915 112.476C22.8513 116.581 22.8195 119.753 22.8195 121.992C22.8195 124.145 22.8991 125.911 23.0582 127.289C23.2173 128.667 23.5992 129.714 24.2038 130.432ZM45.1337 117.902C46.3112 118.103 46.8999 118.906 46.8999 120.313C46.8999 121.088 46.7567 121.835 46.4703 122.552C45.8656 124.418 44.8155 125.939 43.3199 127.116C41.7924 128.322 40.0104 129.356 37.9737 130.217C35.9689 131.078 34.0596 131.523 32.2457 131.552C32.1185 131.552 32.023 131.537 31.9593 131.508C31.8002 131.508 31.7207 131.494 31.7207 131.465C31.4979 130.547 31.1479 129.628 30.6705 128.71C30.1932 127.791 29.5727 126.743 28.8089 125.566C27.6315 123.758 26.836 122.337 26.4223 121.303C25.3085 118.519 24.7516 115.806 24.7516 113.165C24.7516 111.902 24.863 110.725 25.0857 109.634C25.4358 107.941 26.0563 106.348 26.9473 104.855C27.8384 103.333 28.9681 102.056 30.3364 101.023C32.2457 99.6447 34.3778 98.5825 36.7327 97.8362C39.1193 97.0611 41.4901 96.7166 43.8449 96.8028C43.9722 96.8028 44.0359 96.9319 44.0359 97.1903V97.3625C44.004 98.4534 43.654 100.133 42.9857 102.4C42.3175 104.64 41.8083 106.132 41.4583 106.879C41.2673 107.309 41.0128 107.524 40.6945 107.524C40.5036 107.524 40.3445 107.438 40.2172 107.266C40.0899 107.065 40.0104 106.807 39.9785 106.491C39.7876 103.735 39.008 101.367 37.6396 99.3863C36.8122 99.616 35.9689 100.018 35.1097 100.592C34.2505 101.137 33.5027 101.869 32.8663 102.788C32.1025 103.936 31.5297 105.214 31.1479 106.62C30.7978 107.998 30.6228 109.405 30.6228 110.84C30.6228 111.299 30.6387 111.629 30.6705 111.83L30.9569 111.658C32.0389 111.084 33.3118 110.668 34.7756 110.409C36.2394 110.151 37.7032 110.022 39.1671 110.022C40.4081 110.022 41.4583 110.108 42.3175 110.28C43.2085 110.424 43.654 110.61 43.654 110.84C43.654 112.62 42.6198 114.4 40.5513 116.179C40.1058 116.581 39.7717 116.782 39.5489 116.782C39.2307 116.782 39.0239 116.452 38.9284 115.792C38.642 113.725 37.1145 112.692 34.346 112.692C33.2004 112.692 32.0071 112.849 30.766 113.165C31.0842 115.749 31.9275 118.418 33.2959 121.174L34.8233 123.672C36.2235 125.739 37.1145 127.432 37.4964 128.753C37.9101 128.552 38.467 128.136 39.1671 127.504C40.0581 126.585 40.6468 125.279 40.9332 123.586C40.965 123.413 40.9809 123.126 40.9809 122.724C40.9809 121.347 40.5195 120.586 39.5967 120.442C39.3103 120.385 39.4535 120.17 40.0263 119.796C40.6309 119.394 41.0764 119.136 41.3628 119.021C41.5219 118.964 41.856 118.82 42.3652 118.591C42.9062 118.332 43.4153 118.146 43.8927 118.031C44.37 117.887 44.7837 117.844 45.1337 117.902ZM70.4298 130.432C70.6843 130.748 70.0797 131.049 68.6159 131.336C67.1839 131.595 65.7678 131.724 64.3676 131.724L63.5562 131.681C62.9834 131.652 62.697 130.446 62.697 128.064C62.697 127.375 62.7447 125.868 62.8402 123.543C62.9993 119.753 63.0947 116.998 63.1266 115.275H54.5346C54.5027 117.342 54.4868 119.581 54.4868 121.992C54.4868 124.145 54.5664 125.911 54.7255 127.289C54.8846 128.667 55.2665 129.714 55.8711 130.432C56.1257 130.748 55.5211 131.049 54.0572 131.336C52.6252 131.595 51.2091 131.724 49.809 131.724L48.9975 131.681C48.4247 131.652 48.1383 130.403 48.1383 127.935C48.1383 127.246 48.186 125.782 48.2815 123.543L48.377 121.562C48.4088 120.5 48.4883 118.06 48.6156 114.242C48.7747 110.424 48.8543 107.74 48.8543 106.19C48.8543 104.152 48.7747 102.731 48.6156 101.927C48.4883 101.094 48.0906 100.276 47.4223 99.4724C47.2314 99.2141 47.5337 98.8552 48.3292 98.3959C49.1248 97.9366 50.0795 97.5348 51.1932 97.1903C52.3388 96.8171 53.2776 96.6592 54.0095 96.7166C54.5823 96.7453 54.8687 98.0228 54.8687 100.549C54.8687 101.152 54.8051 102.601 54.6778 104.898L54.5823 112.735H63.222L63.3652 105.544C63.3652 103.793 63.2857 102.53 63.1266 101.755C62.9993 100.979 62.6174 100.219 61.981 99.4724C61.79 99.2141 62.0764 98.8552 62.8402 98.3959C63.6357 97.9366 64.5904 97.5348 65.7042 97.1903C66.8498 96.8171 67.7885 96.6592 68.5204 96.7166C69.0932 96.7453 69.3796 98.0945 69.3796 100.764C69.3796 101.884 69.3319 103.262 69.2364 104.898L68.9978 121.347C68.9978 123.7 69.0773 125.609 69.2364 127.073C69.3955 128.537 69.7933 129.657 70.4298 130.432ZM90.1656 115.792C91.7249 117.686 92.5046 119.552 92.5046 121.39C92.5046 122.251 92.2818 123.155 91.8363 124.102C90.8817 126.054 89.2905 127.633 87.063 128.839C84.8673 130.016 82.2737 131.006 79.2821 131.81C78.9002 131.896 78.5979 131.939 78.3751 131.939C78.1524 131.939 77.9296 131.882 77.7069 131.767C76.1158 130.934 74.5883 129.786 73.1245 128.322C71.6925 126.858 70.9765 125.437 70.9765 124.059C70.9765 123.284 71.2151 122.61 71.6925 122.035C72.0107 121.634 72.4244 121.318 72.9335 121.088C73.4745 120.858 74.2223 120.571 75.177 120.227C75.2406 120.227 75.6861 120.126 76.5135 119.926C77.3727 119.696 77.7069 119.725 77.5159 120.012C77.1022 120.557 76.8954 121.174 76.8954 121.863C76.8954 122.782 77.2295 123.844 77.8978 125.05C78.407 125.939 79.0593 126.729 79.8553 127.418C80.6508 128.078 81.4145 128.552 82.1465 128.839C83.1648 128.437 84.1194 127.82 85.0105 126.987C85.9015 126.155 86.347 125.179 86.347 124.059C86.347 122.394 85.7901 120.815 84.6763 119.323C83.5625 117.801 82.0669 116.151 80.1894 114.371C79.7121 113.94 79.473 113.337 79.473 112.562C79.473 112.275 79.5048 111.873 79.5685 111.357C79.9507 109.06 80.794 106.807 82.0987 104.596C83.4034 102.386 84.9468 100.664 86.7289 99.4294H78.3751C76.9431 101.697 76.1476 104.137 75.9885 106.749C75.9566 107.094 75.8612 107.352 75.7021 107.524C75.5748 107.697 75.4157 107.783 75.2247 107.783C74.9065 107.783 74.6519 107.568 74.461 107.137C74.3974 106.993 73.9518 106.032 73.1245 104.252C72.3289 102.444 71.9311 100.822 71.9311 99.3863C71.9311 99.3289 71.9789 99.2571 72.0743 99.171C72.2653 98.9988 72.5517 98.7835 72.9335 98.5251C73.3472 98.2668 73.6336 98.0945 73.7927 98.0084C74.5883 97.6352 75.2725 97.3625 75.8453 97.1903C76.4181 96.9893 76.9909 96.8889 77.5637 96.8889H91.4544C91.9 96.8889 92.1227 96.9893 92.1227 97.1903C92.1227 97.4199 91.7568 97.8218 91.0249 98.3959L90.9294 98.5251C89.4656 100.047 88.32 101.525 87.4926 102.96C86.6652 104.367 86.0447 106.032 85.631 107.955C85.5992 108.156 85.5196 108.486 85.3923 108.945C85.2969 109.376 85.2491 109.749 85.2491 110.065C85.2491 110.639 85.4082 111.084 85.7265 111.4C85.7583 111.429 86.3629 112.017 87.5403 113.165C88.8132 114.313 89.6883 115.189 90.1656 115.792ZM113.375 117.902C114.553 118.103 115.141 118.906 115.141 120.313C115.141 121.088 114.998 121.835 114.712 122.552C114.107 124.418 113.057 125.939 111.561 127.116C110.034 128.322 108.252 129.356 106.215 130.217C104.21 131.078 102.301 131.523 100.487 131.552C100.36 131.552 100.264 131.537 100.201 131.508C100.042 131.508 99.9621 131.494 99.9621 131.465C99.7394 130.547 99.3893 129.628 98.912 128.71C98.4346 127.791 97.8141 126.743 97.0504 125.566C95.873 123.758 95.0774 122.337 94.6637 121.303C93.5499 118.519 92.9931 115.806 92.9931 113.165C92.9931 111.902 93.1044 110.725 93.3272 109.634C93.6772 107.941 94.2978 106.348 95.1888 104.855C96.0798 103.333 97.2095 102.056 98.5779 101.023C100.487 99.6447 102.619 98.5825 104.974 97.8362C107.361 97.0611 109.732 96.7166 112.086 96.8028C112.214 96.8028 112.277 96.9319 112.277 97.1903V97.3625C112.245 98.4534 111.895 100.133 111.227 102.4C110.559 104.64 110.05 106.132 109.7 106.879C109.509 107.309 109.254 107.524 108.936 107.524C108.745 107.524 108.586 107.438 108.459 107.266C108.331 107.065 108.252 106.807 108.22 106.491C108.029 103.735 107.249 101.367 105.881 99.3863C105.054 99.616 104.21 100.018 103.351 100.592C102.492 101.137 101.744 101.869 101.108 102.788C100.344 103.936 99.7712 105.214 99.3893 106.62C99.0393 107.998 98.8643 109.405 98.8643 110.84C98.8643 111.299 98.8802 111.629 98.912 111.83L99.1984 111.658C100.28 111.084 101.553 110.668 103.017 110.409C104.481 110.151 105.945 110.022 107.409 110.022C108.65 110.022 109.7 110.108 110.559 110.28C111.45 110.424 111.895 110.61 111.895 110.84C111.895 112.62 110.861 114.4 108.793 116.179C108.347 116.581 108.013 116.782 107.79 116.782C107.472 116.782 107.265 116.452 107.17 115.792C106.883 113.725 105.356 112.692 102.587 112.692C101.442 112.692 100.249 112.849 99.0074 113.165C99.3257 115.749 100.169 118.418 101.537 121.174L103.065 123.672C104.465 125.739 105.356 127.432 105.738 128.753C106.152 128.552 106.708 128.136 107.409 127.504C108.3 126.585 108.888 125.279 109.175 123.586C109.206 123.413 109.222 123.126 109.222 122.724C109.222 121.347 108.761 120.586 107.838 120.442C107.552 120.385 107.695 120.17 108.268 119.796C108.872 119.394 109.318 119.136 109.604 119.021C109.763 118.964 110.097 118.82 110.607 118.591C111.148 118.332 111.657 118.146 112.134 118.031C112.611 117.887 113.025 117.844 113.375 117.902ZM138.671 130.432C138.926 130.748 138.321 131.049 136.858 131.336C135.426 131.595 134.009 131.724 132.609 131.724L131.798 131.681C131.225 131.652 130.939 130.446 130.939 128.064C130.939 127.375 130.986 125.868 131.082 123.543C131.241 119.753 131.336 116.998 131.368 115.275H122.776C122.744 117.342 122.729 119.581 122.729 121.992C122.729 124.145 122.808 125.911 122.967 127.289C123.126 128.667 123.508 129.714 124.113 130.432C124.367 130.748 123.763 131.049 122.299 131.336C120.867 131.595 119.451 131.724 118.051 131.724L117.239 131.681C116.666 131.652 116.38 130.403 116.38 127.935C116.38 127.246 116.428 125.782 116.523 123.543L116.619 121.562C116.65 120.5 116.73 118.06 116.857 114.242C117.016 110.424 117.096 107.74 117.096 106.19C117.096 104.152 117.016 102.731 116.857 101.927C116.73 101.094 116.332 100.276 115.664 99.4724C115.473 99.2141 115.775 98.8552 116.571 98.3959C117.366 97.9366 118.321 97.5348 119.435 97.1903C120.581 96.8171 121.519 96.6592 122.251 96.7166C122.824 96.7453 123.11 98.0228 123.11 100.549C123.11 101.152 123.047 102.601 122.919 104.898L122.824 112.735H131.464L131.607 105.544C131.607 103.793 131.527 102.53 131.368 101.755C131.241 100.979 130.859 100.219 130.223 99.4724C130.032 99.2141 130.318 98.8552 131.082 98.3959C131.877 97.9366 132.832 97.5348 133.946 97.1903C135.091 96.8171 136.03 96.6592 136.762 96.7166C137.335 96.7453 137.621 98.0945 137.621 100.764C137.621 101.884 137.574 103.262 137.478 104.898L137.239 121.347C137.239 123.7 137.319 125.609 137.478 127.073C137.637 128.537 138.035 129.657 138.671 130.432ZM159.361 117.299C160.507 117.471 161.08 118.261 161.08 119.667C161.08 120.27 160.984 120.945 160.793 121.691C160.221 123.844 159.218 125.566 157.786 126.858C156.386 128.15 154.62 129.255 152.488 130.174C150.388 131.064 148.367 131.523 146.426 131.552C146.298 131.552 146.203 131.537 146.139 131.508C145.98 131.508 145.901 131.494 145.901 131.465C145.678 130.518 145.344 129.614 144.898 128.753C144.485 127.863 143.88 126.743 143.084 125.394C142.002 123.614 141.271 122.251 140.889 121.303C139.775 118.462 139.218 115.72 139.218 113.079C139.218 111.873 139.329 110.725 139.552 109.634C140.38 105.73 142.034 102.86 144.516 101.023C146.458 99.6447 148.606 98.5825 150.96 97.8362C153.315 97.0611 155.67 96.7166 158.025 96.8028C158.152 96.8028 158.216 96.9176 158.216 97.1472V97.1903V97.3625C158.152 98.4534 157.786 100.104 157.118 102.314C156.482 104.525 156.004 106.046 155.686 106.879C155.495 107.309 155.225 107.524 154.875 107.524C154.461 107.524 154.222 107.18 154.159 106.491C153.999 103.879 153.236 101.525 151.867 99.4294C149.767 99.8887 148.16 101.008 147.046 102.788C145.71 104.941 145.073 107.625 145.137 110.84C145.137 114.285 146.044 117.73 147.858 121.174C148.208 121.863 148.685 122.71 149.29 123.715C149.958 124.863 150.467 125.81 150.817 126.557C151.199 127.274 151.501 128.035 151.724 128.839C152.074 128.638 152.456 128.322 152.87 127.892C153.283 127.461 153.586 127.059 153.777 126.686C154.54 125.451 155.018 124.088 155.209 122.595C155.272 121.992 155.193 121.404 154.97 120.83C154.779 120.256 154.397 119.926 153.824 119.839C153.443 119.782 153.618 119.538 154.349 119.107C155.081 118.677 155.479 118.447 155.543 118.418C155.702 118.361 156.036 118.218 156.545 117.988C157.086 117.73 157.595 117.543 158.073 117.428C158.582 117.285 159.011 117.242 159.361 117.299ZM168.626 122.897C168.626 124.676 168.722 126.198 168.913 127.461C169.104 128.695 169.47 129.657 170.011 130.346C170.265 130.662 169.661 130.963 168.197 131.25C166.765 131.537 165.349 131.681 163.949 131.681L163.137 131.638C162.564 131.609 162.278 130.389 162.278 127.978C162.278 127.289 162.326 125.782 162.421 123.456C162.421 122.968 162.485 120.6 162.612 116.352C162.835 109.118 162.946 105.3 162.946 104.898C162.946 103.262 162.867 102.128 162.708 101.496C162.58 100.865 162.214 100.176 161.61 99.4294C161.387 99.171 161.657 98.8122 162.421 98.3529C163.217 97.8936 164.187 97.4917 165.333 97.1472C166.478 96.774 167.417 96.6162 168.149 96.6736C168.69 96.7023 168.961 98.0228 168.961 100.635C168.961 101.783 168.913 103.176 168.817 104.812C168.786 106.735 168.738 109.333 168.674 112.605C168.642 115.878 168.626 118.777 168.626 121.303V122.897ZM176.598 113.294C178.73 115.734 180.528 118.261 181.992 120.873C183.487 123.456 184.633 125.724 185.429 127.676C185.938 128.882 186.336 129.643 186.622 129.958C186.94 130.245 187.083 130.418 187.052 130.475C186.924 130.791 186.097 131.078 184.569 131.336C183.042 131.595 181.769 131.724 180.751 131.724C180.337 131.724 180.067 131.638 179.939 131.465C179.812 131.293 179.653 130.891 179.462 130.26C179.398 130.059 179.287 129.743 179.128 129.312C179.001 128.882 178.857 128.466 178.698 128.064C178.094 126.456 177.075 124.504 175.643 122.208C174.211 119.882 172.716 117.816 171.156 116.007C171.029 115.835 170.774 115.548 170.393 115.146C170.011 114.715 169.724 114.299 169.533 113.897C169.374 113.495 169.295 113.05 169.295 112.562C169.295 111.414 169.804 109.677 170.822 107.352C171.713 105.343 173.098 103.577 174.975 102.056C176.884 100.506 178.81 99.3145 180.751 98.4821C181.737 98.0515 182.724 97.7214 183.71 97.4917C184.697 97.2333 185.508 97.1042 186.145 97.1042C186.845 97.1042 187.195 97.2621 187.195 97.5778C187.195 98.6399 186.845 100.362 186.145 102.745C185.476 105.099 184.967 106.606 184.617 107.266C184.426 107.725 184.172 107.955 183.853 107.955C183.662 107.955 183.487 107.869 183.328 107.697C183.201 107.496 183.121 107.237 183.09 106.922C182.962 105.429 182.74 104.195 182.421 103.219C182.103 102.243 181.785 101.511 181.467 101.023C181.18 100.506 181.037 100.291 181.037 100.377C180.21 100.75 179.319 101.439 178.364 102.444C177.409 103.448 176.693 104.596 176.216 105.888C175.834 106.922 175.564 107.725 175.405 108.3C175.245 108.874 175.166 109.433 175.166 109.979C175.166 111.127 175.643 112.232 176.598 113.294ZM209.352 106.749C210.434 109.132 210.975 111.615 210.975 114.199C210.975 114.629 210.943 115.246 210.879 116.05C210.561 119.409 209.559 122.15 207.872 124.275C205.963 126.686 203.146 128.667 199.423 130.217C198.628 130.647 197.625 131.02 196.416 131.336C195.239 131.681 194.634 131.767 194.602 131.595C194.316 130.647 193.934 129.743 193.457 128.882C192.979 127.992 192.359 126.944 191.595 125.739C190.354 123.787 189.479 122.193 188.97 120.959C188.11 118.95 187.681 116.768 187.681 114.414C187.681 113.409 187.744 112.505 187.872 111.701C188.381 108.027 189.526 105.156 191.309 103.089C192.645 101.539 194.332 100.247 196.368 99.2141C198.405 98.1806 200.632 97.3912 203.051 96.8458C203.306 96.7884 203.496 96.7597 203.624 96.7597C203.91 96.7597 204.069 96.7884 204.101 96.8458C204.356 97.7644 204.706 98.6543 205.151 99.5155C205.597 100.348 206.233 101.41 207.061 102.702C207.22 102.96 207.554 103.506 208.063 104.338C208.572 105.171 209.002 105.974 209.352 106.749ZM203.719 123.499C204.642 121.347 205.103 119.036 205.103 116.567C205.103 113.495 204.324 110.524 202.765 107.654C202.255 106.735 201.73 105.888 201.189 105.113C201.062 104.912 200.776 104.453 200.33 103.735C199.885 102.989 199.487 102.3 199.137 101.668C198.819 101.008 198.564 100.391 198.373 99.8169C197.959 100.133 197.609 100.463 197.323 100.807C196.4 101.898 195.684 103.046 195.175 104.252C194.125 106.692 193.6 109.362 193.6 112.261C193.6 115.103 194.3 117.83 195.7 120.442C195.955 120.902 196.543 121.878 197.466 123.37C197.975 124.174 198.484 125.021 198.994 125.911C199.503 126.801 199.901 127.633 200.187 128.408C201.619 127.231 202.796 125.595 203.719 123.499ZM230.371 96.9319C230.88 96.9319 231.262 96.9606 231.517 97.0181C231.771 97.0468 231.899 97.1329 231.899 97.2764C231.899 98.3098 231.564 99.9891 230.896 102.314C230.228 104.64 229.719 106.204 229.369 107.008C229.178 107.438 228.907 107.654 228.557 107.654C228.144 107.654 227.905 107.309 227.841 106.62C227.682 104.152 226.902 101.74 225.502 99.3863H219.154C219.186 99.7308 219.201 100.262 219.201 100.979C219.201 101.984 219.154 103.262 219.058 104.812C219.026 106.936 218.979 109.764 218.915 113.294C218.883 116.797 218.867 119.667 218.867 121.906C218.867 124.059 218.947 125.825 219.106 127.203C219.265 128.58 219.647 129.628 220.252 130.346C220.506 130.662 219.902 130.963 218.438 131.25C216.974 131.508 215.558 131.638 214.189 131.638L213.378 131.595C213.06 131.566 212.837 131.236 212.71 130.604C212.582 129.973 212.519 129.097 212.519 127.978C212.519 127.289 212.567 125.782 212.662 123.456C213.012 114.127 213.187 108.343 213.187 106.104C213.187 104.123 213.06 102.53 212.805 101.324C212.582 100.09 212.153 99.0562 211.516 98.2237C211.262 97.9079 211.882 97.6065 213.378 97.3195C214.906 97.0324 216.353 96.9032 217.722 96.9319H230.371ZM254.038 106.749C255.12 109.132 255.661 111.615 255.661 114.199C255.661 114.629 255.629 115.246 255.566 116.05C255.247 119.409 254.245 122.15 252.558 124.275C250.649 126.686 247.833 128.667 244.11 130.217C243.314 130.647 242.312 131.02 241.102 131.336C239.925 131.681 239.32 131.767 239.288 131.595C239.002 130.647 238.62 129.743 238.143 128.882C237.666 127.992 237.045 126.944 236.281 125.739C235.04 123.787 234.165 122.193 233.656 120.959C232.797 118.95 232.367 116.768 232.367 114.414C232.367 113.409 232.431 112.505 232.558 111.701C233.067 108.027 234.213 105.156 235.995 103.089C237.331 101.539 239.018 100.247 241.055 99.2141C243.091 98.1806 245.319 97.3912 247.737 96.8458C247.992 96.7884 248.183 96.7597 248.31 96.7597C248.596 96.7597 248.756 96.7884 248.787 96.8458C249.042 97.7644 249.392 98.6543 249.838 99.5155C250.283 100.348 250.919 101.41 251.747 102.702C251.906 102.96 252.24 103.506 252.749 104.338C253.258 105.171 253.688 105.974 254.038 106.749ZM248.406 123.499C249.328 121.347 249.79 119.036 249.79 116.567C249.79 113.495 249.01 110.524 247.451 107.654C246.942 106.735 246.417 105.888 245.876 105.113C245.748 104.912 245.462 104.453 245.016 103.735C244.571 102.989 244.173 102.3 243.823 101.668C243.505 101.008 243.25 100.391 243.059 99.8169C242.646 100.133 242.296 100.463 242.009 100.807C241.086 101.898 240.37 103.046 239.861 104.252C238.811 106.692 238.286 109.362 238.286 112.261C238.286 115.103 238.986 117.83 240.386 120.442C240.641 120.902 241.23 121.878 242.152 123.37C242.662 124.174 243.171 125.021 243.68 125.911C244.189 126.801 244.587 127.633 244.873 128.408C246.305 127.231 247.483 125.595 248.406 123.499ZM286.589 122.897C286.589 124.676 286.684 126.198 286.875 127.461C287.066 128.695 287.432 129.657 287.973 130.346C288.228 130.662 287.623 130.963 286.159 131.25C284.727 131.537 283.311 131.681 281.911 131.681L281.1 131.638C280.527 131.609 280.24 130.389 280.24 127.978C280.24 127.289 280.288 125.782 280.384 123.456C280.384 122.968 280.447 120.6 280.575 116.352C280.797 109.118 280.909 105.3 280.909 104.898C280.909 103.262 280.829 102.128 280.67 101.496C280.543 100.865 280.177 100.176 279.572 99.4294C279.349 99.171 279.62 98.8122 280.384 98.3529C281.179 97.8936 282.15 97.4917 283.295 97.1472C284.441 96.774 285.38 96.6162 286.112 96.6736C286.653 96.7023 286.923 98.0228 286.923 100.635C286.923 101.783 286.875 103.176 286.78 104.812C286.748 106.735 286.7 109.333 286.637 112.605C286.605 115.878 286.589 118.777 286.589 121.303V122.897ZM294.56 113.294C296.693 115.734 298.49 118.261 299.954 120.873C301.45 123.456 302.596 125.724 303.391 127.676C303.9 128.882 304.298 129.643 304.584 129.958C304.903 130.245 305.046 130.418 305.014 130.475C304.887 130.791 304.059 131.078 302.532 131.336C301.004 131.595 299.732 131.724 298.713 131.724C298.3 131.724 298.029 131.638 297.902 131.465C297.775 131.293 297.615 130.891 297.424 130.26C297.361 130.059 297.249 129.743 297.09 129.312C296.963 128.882 296.82 128.466 296.661 128.064C296.056 126.456 295.038 124.504 293.606 122.208C292.174 119.882 290.678 117.816 289.119 116.007C288.992 115.835 288.737 115.548 288.355 115.146C287.973 114.715 287.687 114.299 287.496 113.897C287.337 113.495 287.257 113.05 287.257 112.562C287.257 111.414 287.766 109.677 288.785 107.352C289.676 105.343 291.06 103.577 292.938 102.056C294.847 100.506 296.772 99.3145 298.713 98.4821C299.7 98.0515 300.686 97.7214 301.673 97.4917C302.659 97.2333 303.471 97.1042 304.107 97.1042C304.807 97.1042 305.157 97.2621 305.157 97.5778C305.157 98.6399 304.807 100.362 304.107 102.745C303.439 105.099 302.93 106.606 302.58 107.266C302.389 107.725 302.134 107.955 301.816 107.955C301.625 107.955 301.45 107.869 301.291 107.697C301.164 107.496 301.084 107.237 301.052 106.922C300.925 105.429 300.702 104.195 300.384 103.219C300.066 102.243 299.747 101.511 299.429 101.023C299.143 100.506 299 100.291 299 100.377C298.172 100.75 297.281 101.439 296.327 102.444C295.372 103.448 294.656 104.596 294.179 105.888C293.797 106.922 293.526 107.725 293.367 108.3C293.208 108.874 293.128 109.433 293.128 109.979C293.128 111.127 293.606 112.232 294.56 113.294ZM322.732 117.385C323.018 117.414 322.843 117.629 322.207 118.031C321.602 118.433 321.188 118.691 320.966 118.806C319.438 119.552 318.229 119.926 317.338 119.926C316.288 119.926 315.46 119.71 314.856 119.28C314.251 118.82 313.949 118.218 313.949 117.471C313.949 117.155 314.029 116.754 314.188 116.266C314.347 115.835 314.538 115.462 314.76 115.146C315.015 114.83 315.365 114.471 315.811 114.069C317.115 112.979 318.197 111.744 319.056 110.366C319.916 108.96 320.568 107.438 321.013 105.802C321.491 104.166 321.729 102.515 321.729 100.85C321.729 100.247 321.714 99.8025 321.682 99.5155H313.376C313.408 100.434 313.392 101.726 313.328 103.391C313.297 103.793 313.281 104.295 313.281 104.898L313.233 107.094C313.233 109.764 313.249 111.888 313.281 113.467L313.328 119.882V121.347C313.328 123.7 313.408 125.609 313.567 127.073C313.726 128.537 314.108 129.657 314.713 130.432C314.999 130.748 314.41 131.049 312.947 131.336C311.483 131.595 310.051 131.724 308.651 131.724L307.839 131.681C307.266 131.652 306.98 130.475 306.98 128.15C306.98 126.915 307.028 125.782 307.123 124.748L307.171 123.543C307.203 121.361 307.234 118.576 307.266 115.189C307.33 111.773 307.362 108.773 307.362 106.19C307.362 104.209 307.234 102.601 306.98 101.367C306.757 100.104 306.327 99.0705 305.691 98.2668C305.436 97.951 306.041 97.6496 307.505 97.3625C309.001 97.0755 310.433 96.9463 311.801 96.975H327.457H327.744C328.476 96.975 328.842 97.1616 328.842 97.5348C328.842 100.865 328.237 103.549 327.028 105.587C325.85 107.625 324.832 109.06 323.973 109.893C323.114 110.725 322.605 111.213 322.445 111.357L321.682 112.003C320.982 112.577 320.504 113.108 320.25 113.596C319.995 114.084 319.868 114.601 319.868 115.146C319.868 115.806 320.107 116.337 320.584 116.739C321.093 117.141 321.809 117.356 322.732 117.385ZM352.967 124.791C353.412 127.116 353.858 128.566 354.303 129.14C354.781 129.714 355.019 130.044 355.019 130.131C355.051 130.36 354.701 130.576 353.969 130.776C353.269 130.949 352.49 131.092 351.63 131.207C350.421 131.351 349.562 131.422 349.053 131.422C348.098 131.422 347.557 131.264 347.43 130.949C347.334 130.719 347.112 129.7 346.762 127.892C346.602 127.203 346.38 126.255 346.093 125.05C345.839 123.815 345.664 123.069 345.568 122.811C344.327 124.504 342.593 126.026 340.365 127.375C338.17 128.695 336.069 129.743 334.065 130.518C332.473 131.121 331.232 131.408 330.341 131.379C329.991 131.351 329.737 130.906 329.578 130.044C329.418 129.183 329.339 128.121 329.339 126.858C329.339 125.05 329.45 123.543 329.673 122.337C329.991 120.528 330.373 118.82 330.819 117.213C331.264 115.605 332.171 113.653 333.539 111.357C334.94 109.032 336.865 106.922 339.315 105.027C338.742 103.793 338.313 102.759 338.026 101.927C337.772 101.066 337.66 100.319 337.692 99.6877C337.724 99.0562 338.106 98.4964 338.838 98.0084C339.57 97.5204 340.333 97.1472 341.129 96.8889C341.734 96.6879 342.306 96.53 342.847 96.4152C343.388 96.3004 343.707 96.3004 343.802 96.4152C343.866 96.5013 343.866 96.7023 343.802 97.0181C343.77 97.3338 343.754 97.6352 343.754 97.9223C343.754 99.3863 344.868 102.415 347.096 107.008C348.337 109.591 349.546 112.821 350.723 116.696C351.933 120.571 352.681 123.27 352.967 124.791ZM336.499 127.203C337.645 126.6 338.87 125.624 340.174 124.275C341.479 122.897 342.529 121.519 343.325 120.141C344.152 118.734 344.486 117.715 344.327 117.084C343.945 115.648 343.532 114.385 343.086 113.294C342.641 112.175 342.068 110.797 341.368 109.161L340.652 107.611C340.524 107.324 340.413 107.108 340.318 106.965C337.835 109.204 336.26 113.452 335.592 119.71L335.497 120.701C335.274 122.653 335.162 124.016 335.162 124.791C335.162 126.485 335.465 127.332 336.069 127.332C336.228 127.332 336.372 127.289 336.499 127.203ZM379.943 130.346C380.198 130.662 379.593 130.963 378.13 131.25C376.698 131.508 375.281 131.638 373.881 131.638L373.07 131.595C372.497 131.566 372.211 130.346 372.211 127.935C372.211 127.303 372.242 126.442 372.306 125.351L372.354 123.456L372.449 121.476C372.481 120.414 372.561 117.974 372.688 114.156C372.847 110.338 372.927 107.654 372.927 106.104C372.927 104.553 372.847 103.247 372.688 102.185C372.561 101.123 372.322 100.19 371.972 99.3863H363.714C364.032 101.023 364.605 102.558 365.432 103.994C366.26 105.4 367.342 106.792 368.678 108.17C368.837 108.343 369.172 108.687 369.681 109.204C370.19 109.721 370.604 110.237 370.922 110.754C371.24 111.242 371.399 111.701 371.399 112.132C371.399 112.562 371.256 112.907 370.97 113.165C370.842 113.28 370.254 113.782 369.203 114.672C368.026 115.591 367.024 116.466 366.196 117.299C365.369 118.103 364.605 119.136 363.905 120.399C363.364 121.461 362.95 122.567 362.664 123.715C362.378 124.863 362.234 125.954 362.234 126.987C362.234 128.566 362.505 129.686 363.046 130.346C363.3 130.662 362.664 130.963 361.136 131.25C359.609 131.508 358.129 131.638 356.697 131.638L355.886 131.595C355.568 131.595 355.44 131.221 355.504 130.475C355.504 130.016 355.536 129.643 355.599 129.356C355.918 127.116 356.395 125.251 357.031 123.758C357.7 122.236 358.718 120.744 360.086 119.28C361.232 118.074 362.409 117.026 363.619 116.136C364.828 115.246 365.48 114.758 365.576 114.672C365.798 114.443 365.56 113.869 364.86 112.95C364.16 112.031 363.412 111.17 362.616 110.366C360.993 108.701 359.768 106.979 358.941 105.199C358.113 103.42 357.636 101.453 357.509 99.3002C357.477 98.8122 358.193 98.3242 359.657 97.8362C361.121 97.3482 362.314 97.0468 363.237 96.9319C363.491 96.9032 363.698 96.8889 363.857 96.8889C364.016 96.8889 364.112 96.8889 364.144 96.8889H376.125C376.411 96.8602 376.825 96.8458 377.366 96.8458C377.684 96.8458 377.923 96.8602 378.082 96.8889C378.655 96.9176 378.941 98.195 378.941 100.721C378.941 101.468 378.909 102.357 378.846 103.391L378.798 104.812C378.766 105.73 378.718 108.257 378.655 112.39C378.591 116.495 378.559 119.667 378.559 121.906C378.559 124.059 378.639 125.825 378.798 127.203C378.957 128.58 379.339 129.628 379.943 130.346Z" fill="#FCFCFC"/>
</svg>
