<svg width="179" height="295" viewBox="0 0 179 295" fill="none" xmlns="http://www.w3.org/2000/svg">
<path d="M68.4358 0C68.6473 0.718813 68.8545 1.43879 69.0604 2.15919L69.4113 3.37374C70.0815 6.19058 70.2682 8.99153 70.2817 11.8756C70.2834 12.2006 70.2851 12.5258 70.2869 12.8607C70.2695 14.4891 70.2104 15.8522 69.4947 17.3275C68.4897 19.4094 68.9544 21.5795 69.162 23.8135C69.3574 26.0991 69.3431 28.3688 69.3045 30.6606L70.6074 30.2287C70.9258 29.3585 70.9258 29.3585 71.0417 28.5014C73.919 28.0156 73.919 28.0156 75.3849 28.5014L75.7649 29.365C76.1762 30.302 76.1762 30.302 77.1221 30.5796C78.273 30.6511 79.1699 30.5699 80.3013 30.4126C83.1773 30.1132 85.937 30.4704 88.7943 30.8225L90.3856 31.0047C94.5446 31.4917 94.5446 31.4917 96.2319 31.9561L95.7976 32.8198C95.4914 32.8306 95.1852 32.8415 94.8699 32.8527C93.4601 32.9033 92.0499 32.9559 90.6401 33.0087L89.1813 33.0601C84.4056 33.1534 84.4056 33.1536 79.7097 33.912C78.4164 34.2214 77.1425 34.1406 75.8192 34.1153L75.3849 32.8198C73.0804 32.9347 73.0804 32.9347 71.3405 34.3312L70.6074 35.4108L69.7388 35.8426C69.0895 37.8655 69.2793 40.0034 69.3283 42.1001C69.3357 42.5141 69.3436 42.9281 69.3514 43.3549C69.3687 44.2609 69.387 45.1669 69.4061 46.0729C69.4374 47.5424 69.466 49.012 69.4938 50.4811C69.5342 52.6058 69.5759 54.73 69.6185 56.8542C69.7253 62.1926 69.8248 67.531 69.9216 72.8694C69.932 73.4476 69.9425 74.0258 69.9529 74.6041C70.1123 83.3341 70.2339 92.0642 70.3138 100.796C70.3186 101.314 70.3234 101.832 70.3281 102.366C70.3733 107.336 70.4141 112.306 70.4489 117.276C70.4619 119.09 70.4758 120.904 70.4906 122.718C70.5001 123.957 70.5071 125.195 70.514 126.434C70.5201 127.173 70.5258 127.912 70.5318 128.652C70.5336 129.149 70.5336 129.149 70.5353 129.657C70.5496 131.133 70.6469 132.448 71.0417 133.87C70.9036 134.591 70.7594 135.311 70.6074 136.029L71.0417 136.893L70.6074 138.188C70.5813 138.937 70.5818 139.687 70.5983 140.437C70.607 140.895 70.6152 141.353 70.6243 141.825C70.6422 142.566 70.6422 142.566 70.66 143.322C70.6704 143.828 70.6804 144.334 70.6908 144.855C70.7242 146.475 70.7607 148.094 70.7976 149.713C70.8207 150.81 70.8432 151.907 70.8662 153.004C70.9223 155.694 70.9809 158.385 71.0417 161.076C71.5347 161.204 71.5347 161.204 72.0376 161.335C72.4684 161.448 72.8997 161.562 73.3436 161.679C73.7705 161.791 74.1979 161.903 74.6378 162.019C75.8192 162.371 75.8192 162.371 77.2138 163.078C78.7425 163.821 80.0446 163.893 81.7367 164.018C84.7018 164.291 86.8264 165.118 89.444 166.573C91.5018 167.561 93.2069 167.405 95.3633 166.69C95.4623 165.048 95.5071 163.946 94.744 162.464C93.312 159.556 92.7192 155.541 93.626 152.385C94.565 150.192 96.0426 149.15 98.1047 147.986C100.647 147.339 102.772 147.289 105.081 148.634C107.02 149.991 107.898 151.449 108.393 153.735C108.616 157.169 107.974 160.348 107.09 163.667L106.655 164.099C106.638 164.962 106.637 165.826 106.655 166.69C109.607 167.885 112.418 168.257 115.571 168.494C118.423 168.742 120.6 169.474 122.562 171.656C125.395 175.064 126.064 179.257 126.634 183.532L128.105 183.671C130.27 183.942 132.291 184.536 134.37 185.178L135.457 185.502C137.384 186.087 139.261 186.733 141.138 187.463C143.645 188.383 146.081 188.681 148.73 188.93C156.524 189.79 163.736 191.819 169.197 197.782C170.623 199.59 171.888 201.444 173.105 203.396L173.755 204.427C174.36 205.5 174.827 206.568 175.277 207.715L175.889 209.26C178.788 217.627 177.796 227.48 177.113 236.174C176.979 237.997 176.919 239.813 176.906 241.641L176.879 242.627C176.864 244.664 177.23 245.753 178.317 247.444C178.283 248.398 178.283 248.398 177.883 249.171C177.157 249.566 177.157 249.566 176.254 249.873C174.128 250.806 173.582 252.207 172.759 254.291C172.237 255.217 172.237 255.217 171.445 255.517C170.385 255.665 169.772 255.539 168.757 255.219L167.759 254.919C167.079 254.706 166.399 254.493 165.72 254.278C163.957 253.751 162.46 253.437 160.612 253.501C158.893 253.555 157.973 253.254 156.575 252.194L155.582 251.465L154.864 250.898C155.032 255.355 155.381 259.773 155.896 264.204C155.951 264.68 156.006 265.156 156.063 265.646C156.337 267.939 156.643 270.219 157.022 272.497C157.088 272.902 157.154 273.308 157.222 273.725C157.347 274.476 157.48 275.225 157.622 275.972C158.054 278.572 157.634 280.438 156.602 282.854L155.136 282.989L153.561 283.286C152.572 284.443 152.572 284.443 152.828 285.419L153.127 286.309L153.561 288.037L154.512 287.794C155.733 287.605 155.733 287.605 156.678 287.799C158.533 288.158 160.413 288.174 162.298 288.222C164.237 288.309 165.448 288.645 167.025 289.764L167.921 290.169C168.971 290.741 169.687 291.489 170.5 292.355L170.065 293.219L170.934 294.082C169.283 294.629 167.727 294.591 166.006 294.603C165.438 294.609 165.438 294.609 164.858 294.616C163.565 294.63 162.272 294.64 160.979 294.651C160.029 294.66 159.079 294.669 158.129 294.678C155.47 294.703 152.811 294.724 150.152 294.744C148.46 294.757 146.767 294.771 145.074 294.785C105.487 295.104 65.896 294.984 26.3074 294.946C25.7357 293.809 25.9825 293.304 26.2802 292.085L26.5364 291.015L26.7417 290.196H27.6103V289.332C28.6067 288.837 29.2 288.841 30.3078 288.824L31.4038 288.793C32.1648 288.775 32.9261 288.761 33.6873 288.753C35.9237 288.699 35.9237 288.699 37.8388 287.638C38.4842 286.785 38.4842 286.785 38.8211 285.904C39.4951 284.74 40.4586 284.262 41.5593 283.528C43.6189 281.832 45.2213 279.246 45.551 276.599C46.1004 269.901 46.4348 263.149 44.8352 256.58C44.4752 254.867 44.5047 253.276 44.5538 251.536C44.5416 249.008 43.7572 246.736 42.8656 244.394C41.306 240.235 40.1687 236.128 40.0969 231.682C39.9983 229.517 39.746 228.527 38.1424 227.039L37.189 226.237C33.6885 223.034 31.3792 215.397 30.6505 210.737C30.6392 209.781 30.689 208.843 30.751 207.889C31.0395 203.201 29.8519 200.053 27.6103 195.997C25.8484 192.73 24.673 189.177 23.5704 185.647C23.171 184.396 22.9124 183.611 21.9642 182.668C21.5864 184.421 21.218 186.176 20.8513 187.931L20.5264 189.437L20.2253 190.891C20.132 191.332 20.0389 191.774 19.9428 192.228C19.7249 193.459 19.7247 193.459 20.0454 194.632C20.1053 194.959 20.1653 195.286 20.227 195.623C19.6966 196.236 19.163 196.846 18.6051 197.435C17.7327 198.671 17.6414 199.992 17.4701 201.468C17.0842 202.918 16.5473 203.663 15.4495 204.692C14.0753 204.933 14.0753 204.933 12.5722 204.881L11.0623 204.852C9.80345 204.692 9.80345 204.692 8.93483 203.828L8.5548 202.398C8.19085 200.776 8.19085 200.776 7.06185 199.779L6.32894 198.646C6.52234 197.846 6.52234 197.846 6.89898 196.919C8.20227 193.646 7.71097 190.138 6.38323 186.932L5.9133 185.895C5.26283 184.362 4.88624 182.78 4.47463 181.17C4.19323 180.2 3.85089 179.382 3.39732 178.484C2.5853 176.345 2.84177 174.645 3.7502 172.52L4.15737 171.872L0.682861 171.008C0.710006 170.063 0.710006 170.063 1.11718 168.849C2.42589 167.642 3.76913 166.819 5.46031 166.258L4.21166 165.286C3.14707 164.395 2.39938 163.728 1.9858 162.371C1.93151 160.968 1.93151 160.968 1.9858 159.78L5.50613 160.413C6.65138 160.623 7.79345 160.846 8.93483 161.076L9.61344 159.618C11.597 155.688 13.9437 151.971 18.3167 150.516C24.9676 149.008 31.8352 151.911 37.8761 154.453C39.2013 154.977 40.4786 155.344 41.8613 155.678C42.8995 155.961 42.8995 155.961 43.6799 156.326C43.9856 157.184 44.2754 158.048 44.5486 158.917C45.438 159.343 46.3366 159.566 47.2887 159.827C51.9632 161.366 55.9945 164.773 59.512 168.097C59.7756 168.345 60.0397 168.594 60.3116 168.85C60.8271 169.34 61.3391 169.833 61.8464 170.332C63.6115 172.018 65.3335 173.03 67.5672 174.031C67.0469 171.586 66.4584 170.789 64.527 169.281C61.985 166.133 60.7715 162.773 59.7496 158.917L59.2948 157.576C58.3693 154.66 58.4714 153.121 59.6987 150.349C60.3046 148.644 60.4801 147.026 60.6451 145.233C61.1116 140.329 61.6827 135.405 63.6584 130.847C63.9767 130.056 64.2934 129.265 64.6087 128.472C64.8706 127.824 65.1329 127.177 65.3956 126.529H66.2643V35.8426L57.578 34.1153L56.275 33.2516C56.0475 32.0818 55.9141 31.0305 55.8407 29.8509L55.7408 28.9079C55.6779 27.9919 55.6779 27.9919 55.8407 26.3422C57.3309 24.7318 58.6403 24.2449 60.7776 24.1256L61.8668 24.129L62.9491 24.1256C64.2239 24.1895 65.4443 24.3857 66.6986 24.6148C66.6486 23.4539 66.5935 22.2936 66.5357 21.1331L66.4949 20.1488C66.4132 18.5854 66.2647 17.2756 65.813 15.7638C64.9479 12.6276 65.4299 9.5534 65.9928 6.39661L66.1592 5.39207C66.4806 3.5267 66.9092 1.7834 67.5672 0H68.4358ZM76.574 227.969C74.9449 227.96 73.5021 228.108 71.9103 228.443C71.8978 232.924 71.8895 237.404 71.8843 241.885C71.8843 242.261 71.8834 242.626 71.8834 242.991C71.8721 253.716 71.9199 264.438 72.1119 275.162C72.1171 275.456 72.1223 275.741 72.1275 276.026C72.1948 279.742 72.2665 283.457 72.3447 287.173C73.4413 287.182 74.5384 287.189 75.635 287.194L76.9866 287.2L78.3121 287.211L79.5973 287.215C82.9037 287.234 84.4095 286.573 87.5456 285.014L87.1113 269.036L89.2829 267.74C89.5001 266.281 89.2777 265.122 88.998 263.677C88.373 260.987 87.8927 258.506 87.9257 255.73C87.9626 254.426 87.9899 253.169 87.8731 251.87C87.6551 250.115 87.5122 248.554 87.7628 246.796L87.98 245.285C87.5456 244.421 87.5456 244.421 86.2158 243.935L84.9398 243.557C84.9489 241.832 84.9563 240.106 84.961 238.38C84.9628 237.677 84.9645 236.973 84.9667 236.27C84.9723 235.231 84.978 234.193 84.9806 233.155C84.981 232.82 84.9815 232.496 84.9823 232.171C84.9923 230.719 85.1712 229.335 84.5054 228.011C83.3059 228.002 82.1059 227.995 80.9063 227.99L79.4292 227.984L77.9781 227.973L76.574 227.969ZM62.8896 228.832C61.6532 228.824 60.9509 228.908 59.7496 229.306C58.8058 230.024 58.4866 230.45 58.186 231.603C58.14 232.005 58.0948 232.396 58.0496 232.787C57.9958 233.238 57.9432 233.677 57.8911 234.116C57.8399 234.6 57.7904 235.071 57.7409 235.541C57.2705 239.716 56.9513 243.879 56.7858 248.076C56.659 251.435 56.4618 254.792 56.1712 258.141C55.6718 263.72 55.3387 269.234 55.3795 274.839C55.3864 275.376 55.3934 275.898 55.4003 276.421C55.4064 276.919 55.4125 277.403 55.4181 277.887C55.4442 279.306 55.4264 280.204 54.9721 281.559C53.8099 282.465 53.8099 282.465 52.8275 282.541C51.9223 282.585 51.0798 282.658 50.1946 282.854C49.326 283.745 49.326 283.745 48.8917 284.582L50.1946 287.173H70.1731C69.8378 275.419 69.5707 263.665 69.3349 251.908C69.2862 249.472 69.2367 247.036 69.1872 244.6C69.0912 239.858 68.9952 235.116 68.9001 230.374C68.8901 229.864 68.8801 229.37 68.8701 228.875C67.965 228.866 67.0599 228.859 66.1548 228.853L65.043 228.848L63.9459 228.837L62.8896 228.832ZM120.988 269.036C118.605 269.036 116.353 270.436 114.934 272.301L114.473 273.354L113.957 274.352L113.604 275.081H112.736C109.188 276.785 106.36 278.752 103.615 281.559C105.718 282.028 107.733 282.516 109.657 283.502C112.558 285.117 114.837 285.766 118.168 285.872L119.685 285.877C121.423 285.898 123.159 285.906 124.897 285.877C125.168 279.589 123.377 274.734 120.988 269.036ZM139.663 256.944C138.795 256.944 138.795 256.944 138.084 257.266L137.057 257.808C134.702 258.92 132.204 260.066 130.543 262.126C129.979 263.907 129.979 263.907 130.627 267.661C130.849 268.767 131 269.777 131.082 270.91C131.203 273.598 131.664 276.169 132.233 278.796C132.714 279.832 132.714 279.832 133.746 280.339C134.878 280.637 134.878 280.637 135.721 281.237C137.887 282.779 139.636 283.177 142.269 283.286C143.728 280.879 144.207 279.196 144.093 276.391C144.064 275.964 144.035 275.549 144.006 275.135C143.632 268.712 142.467 262.771 139.663 256.944ZM105.353 264.717C104.129 266.126 103.105 267.342 102.312 269.036C104.644 269.33 106.936 269.521 109.285 269.567C110.731 269.397 110.731 269.397 112.736 267.308C110.396 265.988 107.952 265.366 105.353 264.717ZM115.342 249.603C114.854 250.088 114.854 250.088 113.55 252.14C112.99 253.022 112.429 253.904 111.867 254.785L111.021 256.08L110.212 257.322C109.278 258.745 108.548 260.098 107.958 261.694C108.746 262.047 109.534 262.399 110.322 262.748L111.297 263.179C113.17 264.019 115.007 264.967 117.079 265.149C118.083 264.528 118.083 264.528 118.816 263.854C118.298 260.815 118.298 260.815 118.219 257.727C118.19 256.431 118.104 255.214 117.948 253.921L116.645 253.058L116.401 251.519L116.21 250.035L115.342 249.603ZM111.867 244.853C107.465 244.743 102.933 245.412 98.8378 247.012C98.433 250.043 98.3657 252.897 98.6623 255.934C98.7032 256.314 98.7436 256.683 98.7835 257.052C98.9242 258.355 98.7605 260.322 99.7064 261.263C101.199 260.927 102.403 260.803 103.419 259.609L104.05 258.672C105.906 256.204 107.567 253.632 109.186 251.006C109.433 250.603 109.673 250.211 109.913 249.819C110.16 249.42 110.401 249.032 110.641 248.645C110.868 248.269 111.09 247.903 111.311 247.538C111.921 246.539 111.921 246.539 112.302 245.716L111.867 244.853ZM125.331 240.534C125.617 242.573 125.812 244.673 126.532 246.612C127.171 247.949 127.526 248.924 127.72 250.413C127.888 252.122 128.329 253.673 128.843 255.31C129.24 256.081 129.24 256.08 130.543 256.512C131.315 256.034 132.084 255.549 132.819 255.015L133.665 254.38C134.654 253.656 135.641 252.928 136.623 252.194C136.213 250.901 135.865 250.137 134.857 249.205C132.499 247.487 130.405 245.66 128.364 243.581C127.839 243.04 127.31 242.501 126.776 241.968L126.173 241.371L125.331 240.534ZM71.476 176.622C73.0721 177.142 74.4997 177.617 75.8991 178.55C78.2856 180.28 80.2661 181.019 83.2025 181.372L83.1569 180.387C82.7682 179.213 82.7682 179.213 81.579 178.417L80.0268 177.702C77.2172 176.385 74.3625 175.172 71.476 174.031V176.622Z" fill="#F0F0F0"/>
</svg>
